<svg xmlns="http://www.w3.org/2000/svg" xmlns:xlink="http://www.w3.org/1999/xlink" xml:space="preserve" width="5.18037in" height="0.717217in" style="shape-rendering:geometricPrecision; text-rendering:geometricPrecision; image-rendering:optimizeQuality; fill-rule:evenodd; clip-rule:evenodd" viewBox="0 0 4987 690"> <defs> <style type="text/css"> .fil0 {fill:#2656A1} .fil1 {fill:#E32324} .fil2 {fill:#373435;fill-rule:nonzero} </style> </defs> <g id="Layer_x0020_1"> <metadata id="CorelCorpID_0Corel-Layer"></metadata> <g id="_2398636277520"> <path class="fil0" d="M258 1l605 0 102 1 -242 160 -338 0c-51,0 -112,42 -117,95l-17 193c0,3 0,6 0,9l-251 160 18 -124 45 -320c13,-96 101,-174 195,-174z"></path> <path class="fil1" d="M997 55l-41 461c-8,96 -101,174 -195,174l-618 0 -118 0 255 -161 0 0 363 1c51,1 106,-43 110,-96l15 -193 0 -23 229 -163z"></path> <path class="fil2" d="M1051 687l99 0 47 -631 3 0 326 631 102 0 437 -622 3 0 -67 622 100 0 60 -687 -148 0 -434 616 -317 -616 -147 0 -64 687zm1874 -270l-421 0 232 -353 13 1 176 352zm-717 270l114 0 145 -214 486 0 106 214 106 0 -362 -687 -110 0 -485 687zm1194 -631l388 0c132,0 192,39 212,120 25,102 -87,150 -241,150l-379 0 20 -270zm-134 631l83 0 25 -298 395 0c109,0 176,37 174,104l-5 194 80 0c-4,-32 13,-170 5,-203 -15,-63 -27,-105 -132,-120l0 -1c267,-30 252,-363 -112,-363l-454 0 -59 687zm882 -612l369 0 -59 612 91 0 59 -612 373 0 4 -75 -833 0 -4 75z"></path> </g> </g> </svg>