<svg xmlns="http://www.w3.org/2000/svg" xmlns:xlink="http://www.w3.org/1999/xlink" xml:space="preserve" width="4.77098in" height="0.970634in" style="shape-rendering:geometricPrecision; text-rendering:geometricPrecision; image-rendering:optimizeQuality; fill-rule:evenodd; clip-rule:evenodd" viewBox="0 0 2282 464"> <defs> <style type="text/css"> .str0 {stroke:#373435;stroke-width:3.32228} .fil3 {fill:#373435} .fil0 {fill:#060709} .fil2 {fill:#135CA9} .fil1 {fill:#EA2329} .fil4 {fill:#373435;fill-rule:nonzero} </style> </defs> <g id="Layer_x0020_1"> <metadata id="CorelCorpID_0Corel-Layer"></metadata> <g id="_2050811611056"> <g> <path class="fil0" d="M1529 241l68 0 13 -77 155 1c6,-2 11,-50 11,-51l-157 -1c1,-8 2,-13 4,-22 2,-15 0,-19 9,-19l160 0 9 -52 -233 0 -39 221z"></path> <path class="fil0" d="M2196 20l-264 0c-5,1 -6,20 -8,28 -1,8 -5,21 -4,29l97 1 -29 163 71 0 29 -164 98 0 10 -57z"></path> <path class="fil1" d="M35 252c27,7 86,5 113,5 36,0 95,3 123,-9 33,-14 40,-46 49,-85 6,-30 18,-83 8,-115 -6,2 -5,2 -11,6l-61 40c5,16 -5,72 -12,85 -12,22 -50,19 -78,19 -17,0 -31,0 -47,-1 -22,-2 -23,2 -37,11l-59 39 12 5z"></path> <path class="fil0" d="M409 65c3,-15 1,-17 6,-18 40,0 80,0 120,0 45,0 77,-7 63,47 -4,17 -9,28 -26,33 -18,5 -151,3 -174,2l11 -64zm179 79c14,-2 26,-11 31,-21 6,-10 9,-27 12,-41 6,-38 -4,-55 -40,-60 -40,-4 -156,-2 -203,-2l-38 221 29 0 14 -85c47,0 93,0 140,0 23,0 45,-1 45,24 1,21 -7,42 -8,61 3,0 27,1 28,-1 0,-1 1,-1 1,-1 3,-7 8,-43 9,-52 2,-15 3,-27 -10,-36 -6,-4 -6,-2 -10,-7z"></path> <path class="fil0" d="M1326 48c23,-4 71,-1 97,-1 54,0 63,3 61,39 -2,26 -9,61 -15,84 -10,37 -15,40 -56,44 -32,3 -63,1 -96,0 -15,-1 -32,0 -46,-4 -16,-4 -18,-14 -16,-33 3,-30 7,-59 14,-85 14,-50 24,-38 57,-44zm187 41c3,-19 3,-41 -8,-53 -10,-10 -31,-14 -50,-15 -20,0 -40,-1 -62,-1 -21,0 -43,1 -62,1 -46,0 -71,9 -84,45 -10,28 -18,71 -22,104 -6,52 8,69 59,69 41,1 84,5 126,2 47,-3 68,-8 82,-46 13,-34 15,-67 21,-106z"></path> <path class="fil2" d="M73 177c7,-54 6,-93 48,-95l92 -1c11,0 23,-11 31,-16 10,-7 54,-33 56,-39 -48,-7 -99,-5 -149,-5 -123,1 -130,13 -150,164 -1,5 -2,31 1,35 2,3 -1,5 12,-4l59 -39z"></path> <path class="fil0" d="M1141 241c38,3 29,3 35,-37l22 -123c3,-18 10,-44 10,-61l-29 0 -16 94 -203 -1 15 -93 -29 0 -38 221 29 0c5,-18 14,-90 19,-102l202 0 -17 102z"></path> <path class="fil0" d="M1862 240c1,-18 34,-183 38,-220l-68 0c-5,3 -4,6 -5,12 0,6 -1,9 -2,15l-34 194c11,0 64,1 71,-1z"></path> <path class="fil1" d="M1451 464c4,-13 30,-163 29,-171 -6,0 -13,0 -20,0 -15,0 -12,2 -23,15 -4,5 -6,5 -9,9 -22,29 -69,75 -91,103 -5,5 -14,17 -20,20 -4,-6 -33,-61 -40,-73 -7,-12 -14,-25 -20,-37 -7,-12 -13,-26 -20,-36l-31 0 -29 170 20 0c5,-18 23,-136 26,-143 1,-3 0,-1 2,-3l41 73c6,11 37,68 41,73 22,0 14,0 26,-12l35 -39c7,-8 11,-12 18,-20l36 -39c4,-5 4,-7 8,-11 3,-3 5,-5 9,-9 7,-8 12,-13 18,-19 -4,19 -26,141 -25,149l19 0z"></path> <path class="fil1" d="M1757 376c-1,-6 8,-55 10,-64 16,-2 120,-3 136,2 14,5 11,20 8,34 -6,32 -25,28 -63,28 -30,0 -61,2 -91,0zm144 10c28,-5 30,-19 34,-44 6,-33 2,-43 -28,-47 -15,-2 -140,-3 -158,-1 -3,6 -29,159 -29,168l21 0 12 -65c30,-2 79,-3 110,-1 18,1 34,0 35,20 0,15 -8,34 -6,46l21 0c2,-15 5,-30 8,-46 3,-23 -16,-26 -20,-30z"></path> <path class="fil0" d="M663 47l110 0 -35 193 30 1 34 -194 110 0 5 -27 -248 0c-4,1 -4,4 -5,12 -1,5 -2,9 -1,15z"></path> <path class="fil1" d="M1612 312c5,5 42,91 42,96l-117 0 75 -96zm-142 152c28,2 23,2 52,-38l141 0 16 36 23 0 -73 -168c-9,-1 -26,-3 -32,4l-127 166z"></path> <path class="fil1" d="M2154 292c-23,-1 -187,-2 -196,2 -3,4 -3,12 -3,17l86 1 -25 150 21 0 26 -151 87 0 4 -19z"></path> </g> <path class="fil3 str0" d="M2244 2c20,0 37,16 37,36 0,21 -17,37 -37,37 -20,0 -37,-16 -37,-37 0,-20 17,-36 37,-36zm0 6c17,0 31,13 31,30 0,17 -14,31 -31,31 -17,0 -31,-14 -31,-31 0,-17 14,-30 31,-30z"></path> <path class="fil4" d="M2228 57l0 -40 17 0c4,0 7,1 9,1 2,1 4,2 5,4 1,2 1,4 1,6 0,3 0,6 -2,8 -2,2 -4,3 -8,3 2,1 3,2 4,4 1,1 3,3 5,6l5 8 -10 0 -6 -9c-2,-3 -3,-5 -4,-6 -1,0 -1,-1 -2,-1 -1,-1 -2,-1 -4,-1l-2 0 0 17 -8 0zm8 -23l6 0c4,0 6,0 7,-1 1,0 2,0 2,-1 1,-1 1,-2 1,-3 0,-1 0,-3 -1,-3 -1,-1 -2,-2 -3,-2 0,0 -2,0 -6,0l-6 0 0 10z"></path> </g> </g> </svg>