<svg xmlns="http://www.w3.org/2000/svg" xmlns:xlink="http://www.w3.org/1999/xlink" xml:space="preserve" width="6.92169in" height="1.25315in" style="shape-rendering:geometricPrecision; text-rendering:geometricPrecision; image-rendering:optimizeQuality; fill-rule:evenodd; clip-rule:evenodd" viewBox="0 0 5756 1042"> <defs> <style type="text/css"> .str0 {stroke:#373435;stroke-width:5.77491} .fil5 {fill:#727376} .fil9 {fill:#EE3F46} .fil8 {fill:#B2943E} .fil6 {fill:#393F6F} .fil7 {fill:#3B3F76} .fil0 {fill:#060709} .fil2 {fill:#135CA9} .fil3 {fill:#373435} .fil1 {fill:#EA2329} .fil4 {fill:#373435;fill-rule:nonzero} </style> </defs> <g id="Layer_x0020_1"> <metadata id="CorelCorpID_0Corel-Layer"></metadata> <g id="_2781086667872"> <g> <g id="_2050811611056"> <g> <path class="fil0" d="M2658 538l118 0 23 -134 269 2c11,-4 20,-87 20,-89l-273 -2c1,-14 3,-22 7,-38 3,-26 0,-33 15,-33l278 0 16 -90 -405 0 -68 384 0 0z"></path> <path class="fil0" d="M3818 154l-459 0c-9,1 -11,34 -14,48 -2,14 -9,37 -7,51l169 1 -51 284 124 0 50 -285 170 0 18 -99 0 0z"></path> <path class="fil1" d="M61 557c47,12 149,9 196,9 63,0 165,5 214,-16 57,-24 70,-80 85,-148 11,-52 32,-144 14,-200 -10,4 -8,4 -19,11l-106 69c9,28 -9,125 -21,148 -21,38 -87,33 -135,33 -30,0 -54,0 -82,-2 -38,-3 -40,4 -64,19l-103 68 21 9 0 0z"></path> <path class="fil0" d="M711 232c5,-26 2,-30 10,-32 70,0 140,0 209,0 78,0 134,-12 110,82 -7,30 -16,49 -46,58 -31,8 -262,5 -302,3l19 -111 0 0zm311 137c25,-3 45,-19 54,-36 11,-18 16,-47 21,-72 10,-66 -7,-95 -70,-104 -69,-7 -271,-3 -352,-3l-67 384 51 0 24 -148c82,0 162,0 244,0 40,0 78,-2 78,42 2,36 -12,73 -14,106 5,0 47,1 49,-2 0,-2 1,-2 1,-2 6,-12 14,-74 16,-90 3,-26 5,-47 -17,-63 -11,-7 -11,-3 -18,-12z"></path> <path class="fil0" d="M2305 202c40,-7 124,-2 169,-2 94,0 109,6 106,68 -4,45 -16,106 -26,146 -18,65 -26,70 -98,77 -55,5 -109,2 -166,0 -26,-2 -56,0 -80,-7 -28,-7 -32,-24 -28,-58 5,-52 12,-102 24,-147 24,-87 42,-66 99,-77l0 0zm325 71c6,-33 6,-71 -14,-92 -17,-17 -53,-24 -87,-26 -34,0 -69,-1 -107,-1 -37,0 -75,1 -108,1 -80,0 -124,16 -146,79 -17,48 -31,123 -38,180 -11,91 14,120 102,120 71,2 146,9 219,4 82,-5 118,-14 143,-80 22,-59 26,-117 36,-185l0 0z"></path> <path class="fil2" d="M127 426c12,-93 10,-161 83,-165l160 -1c19,0 40,-20 54,-28 18,-12 94,-58 98,-68 -84,-12 -173,-9 -259,-9 -214,2 -226,23 -261,285 -2,9 -4,54 1,61 4,5 -1,9 21,-7l103 -68 0 0z"></path> <path class="fil0" d="M1984 538c66,5 50,5 60,-65l39 -213c5,-32 17,-77 17,-106l-50 0 -28 163 -353 -2 26 -161 -50 0 -66 384 50 0c9,-32 24,-157 33,-178l351 0 -29 178z"></path> <path class="fil0" d="M3237 536c2,-31 59,-318 66,-382l-118 0c-9,5 -7,10 -9,20 0,11 -2,16 -3,26l-59 338c19,0 111,1 123,-2z"></path> <path class="fil1" d="M2523 925c6,-22 52,-283 50,-297 -10,0 -23,0 -35,0 -26,0 -21,4 -40,26 -7,9 -10,9 -15,16 -39,50 -120,130 -159,179 -8,9 -24,29 -34,35 -7,-11 -58,-106 -70,-127 -12,-21 -24,-44 -35,-65 -12,-20 -22,-45 -34,-62l-54 0 -51 295 35 0c9,-31 40,-236 45,-248 2,-5 0,-2 4,-5l71 127c10,19 64,118 71,126 38,0 25,0 45,-20l61 -68c12,-14 19,-21 32,-35l62 -68c7,-8 7,-12 14,-19 5,-5 9,-9 16,-16 12,-13 21,-22 31,-33 -7,33 -45,246 -43,259l33 0 0 0z"></path> <path class="fil1" d="M3055 772c-2,-10 13,-95 17,-111 28,-3 209,-5 236,4 25,8 19,34 14,59 -10,55 -43,48 -109,48 -52,0 -106,4 -158,0zm250 18c49,-9 52,-33 59,-77 10,-57 3,-74 -49,-81 -26,-4 -243,-6 -274,-2 -6,10 -51,276 -51,292l37 0 21 -113c52,-4 137,-5 191,-2 31,2 59,0 61,35 0,26 -14,59 -11,80l37 0c3,-26 8,-52 14,-80 5,-40 -28,-45 -35,-52l0 0z"></path> <path class="fil0" d="M1153 200l191 0 -61 336 52 2 59 -338 191 0 9 -46 -431 0c-7,1 -7,6 -9,20 -1,9 -3,16 -1,26z"></path> <path class="fil1" d="M2802 661c9,9 73,158 73,167l-203 0 130 -167 0 0zm-246 264c48,4 40,4 90,-66l245 0 28 63 40 0 -127 -292c-16,-2 -45,-5 -56,7l-220 288z"></path> <path class="fil1" d="M3745 626c-40,-1 -325,-3 -341,4 -5,7 -5,21 -5,29l149 2 -43 261 36 0 45 -263 152 0 7 -33z"></path> </g> <path class="fil3 str0" d="M3901 122c35,0 64,28 64,63 0,36 -29,64 -64,64 -35,0 -64,-28 -64,-64 0,-35 29,-63 64,-63zm0 11c30,0 54,22 54,52 0,29 -24,54 -54,54 -29,0 -54,-25 -54,-54 0,-30 25,-52 54,-52z"></path> <path class="fil4" d="M3873 218l0 -70 30 0c7,0 12,2 16,2 3,2 6,4 8,7 2,3 2,7 2,10 0,6 0,11 -4,14 -3,4 -6,6 -13,6 3,1 5,3 7,7 1,1 5,5 8,10l9 14 -17 0 -11 -16c-3,-5 -5,-8 -7,-10 -2,0 -2,-2 -3,-2 -2,-2 -4,-2 -7,-2l-4 0 0 30 -14 0 0 0zm14 -40l11 0c7,0 10,0 12,-2 2,0 3,0 3,-2 2,-1 2,-3 2,-5 0,-2 0,-5 -2,-5 -1,-2 -3,-4 -5,-4 0,0 -3,0 -10,0l-11 0 0 18z"></path> </g> </g> <rect class="fil5" x="4157" y="47" width="11.5007" height="954.723"></rect> <g> <polygon class="fil6" points="4682,545 4676,545 4669,545 4669,522 4648,483 4655,483 4663,483 4676,510 4688,483 4695,483 4703,483 4682,522 "></polygon> <polygon class="fil6" points="4758,545 4711,545 4711,483 4756,483 4756,489 4756,494 4724,494 4724,507 4754,507 4754,513 4754,518 4724,518 4724,534 4758,534 4758,540 "></polygon> <path class="fil6" d="M4822 545l-7 0 -7 0 -4 -12 -23 0 -4 12 -7 0 -7 0 22 -62 8 0 7 0 22 62zm-29 -48l-9 25 17 0 -8 -25z"></path> <path class="fil6" d="M4843 545l-6 0 -6 0 0 -62 6 0 25 0c6,0 10,2 14,5 4,3 5,7 5,13 0,5 -2,10 -6,13 -1,0 -2,1 -3,1 1,1 1,1 2,1 3,3 5,6 5,11l1 10c0,2 0,4 0,5 1,0 1,1 2,2l0 1 -14 0c0,0 -1,-2 -1,-4 0,-2 0,-4 0,-7l0 -6c0,-2 -1,-4 -3,-5 -1,-2 -4,-2 -8,-2l-13 0 0 24zm0 -51l0 16 15 0c4,0 6,0 8,-2 2,-1 2,-3 2,-6 0,-3 0,-5 -2,-6 -1,-1 -4,-2 -7,-2l-16 0z"></path> <path class="fil6" d="M4915 547c-8,0 -14,-2 -18,-6 -5,-3 -7,-8 -7,-15l12 0c0,3 1,6 4,8 2,1 5,2 9,2 4,0 7,0 10,-2 2,-1 3,-3 3,-5 0,-3 -1,-4 -2,-5 -2,-2 -5,-3 -11,-4 -10,-2 -16,-4 -19,-7 -4,-2 -5,-6 -5,-12 0,-6 2,-11 6,-14 5,-4 10,-5 18,-5 7,0 12,1 17,5 4,4 7,9 7,15l-13 0c0,-3 -1,-5 -3,-7 -3,-2 -6,-3 -10,-3 -3,0 -6,1 -7,2 -2,2 -3,4 -3,6 0,2 1,4 3,5 2,1 6,2 12,3 9,2 15,5 18,7 3,3 5,7 5,13 0,6 -3,10 -7,14 -5,3 -11,5 -19,5z"></path> <path class="fil6" d="M5001 547c-9,0 -16,-3 -21,-9 -6,-6 -8,-13 -8,-23 0,-11 2,-19 8,-24 5,-6 12,-9 21,-9 10,0 17,3 22,9 6,5 8,13 8,24 0,10 -2,17 -8,23 -5,6 -12,9 -22,9zm0 -54c-5,0 -9,2 -12,5 -3,4 -4,10 -4,17 0,6 1,11 4,15 3,4 7,6 12,6 6,0 10,-2 13,-6 3,-4 4,-9 4,-15 0,-7 -1,-13 -4,-17 -3,-3 -7,-5 -13,-5z"></path> <polygon class="fil6" points="5054,545 5048,545 5042,545 5042,483 5086,483 5086,489 5086,494 5054,494 5054,508 5082,508 5082,514 5082,519 5054,519 "></polygon> <path class="fil6" d="M5141 547c-8,0 -14,-2 -19,-6 -4,-3 -7,-8 -7,-15l13 0c0,3 1,6 3,8 2,1 6,2 10,2 4,0 7,0 9,-2 3,-1 4,-3 4,-5 0,-3 -1,-4 -3,-5 -1,-2 -5,-3 -10,-4 -10,-2 -17,-4 -20,-7 -3,-2 -5,-6 -5,-12 0,-6 2,-11 7,-14 4,-4 10,-5 17,-5 7,0 13,1 17,5 5,4 7,9 7,15l-12 0c0,-3 -2,-5 -4,-7 -2,-2 -5,-3 -9,-3 -4,0 -6,1 -8,2 -2,2 -3,4 -3,6 0,2 1,4 3,5 2,1 6,2 12,3 9,2 15,5 18,7 3,3 5,7 5,13 0,6 -2,10 -7,14 -4,3 -11,5 -18,5z"></path> <polygon class="fil6" points="5223,545 5176,545 5176,483 5221,483 5221,489 5221,494 5189,494 5189,507 5219,507 5219,513 5219,518 5189,518 5189,534 5223,534 5223,540 "></polygon> <path class="fil6" d="M5246 545l-6 0 -7 0 0 -62 7 0 25 0c6,0 10,2 14,5 4,3 5,7 5,13 0,5 -2,10 -6,13 -1,0 -2,1 -3,1 0,1 1,1 2,1 3,3 5,6 5,11l1 10c0,2 0,4 0,5 1,0 1,1 2,2l0 1 -14 0c0,0 -1,-2 -1,-4 0,-2 0,-4 0,-7l0 -6c0,-2 -1,-4 -3,-5 -1,-2 -4,-2 -8,-2l-13 0 0 24zm0 -51l0 16 15 0c4,0 6,0 8,-2 2,-1 2,-3 2,-6 0,-3 0,-5 -2,-6 -2,-1 -4,-2 -7,-2l-16 0z"></path> <polygon class="fil6" points="5324,545 5318,545 5312,545 5291,483 5298,483 5305,483 5318,531 5332,483 5338,483 5345,483 "></polygon> <polygon class="fil6" points="5365,545 5359,545 5352,545 5352,483 5359,483 5365,483 "></polygon> <path class="fil6" d="M5403 547c-9,0 -16,-3 -21,-9 -5,-6 -7,-13 -7,-23 0,-11 2,-19 7,-24 5,-6 12,-9 21,-9 7,0 13,2 18,6 5,4 8,9 9,16l-13 0c-1,-4 -2,-6 -4,-8 -3,-2 -6,-3 -10,-3 -5,0 -8,2 -11,6 -3,3 -4,9 -4,16 0,6 1,11 4,15 3,4 6,6 11,6 4,0 7,-1 10,-4 2,-2 3,-5 4,-8l13 0c-1,7 -4,12 -9,17 -4,4 -11,6 -18,6z"></path> <polygon class="fil6" points="5487,545 5440,545 5440,483 5485,483 5485,489 5485,494 5453,494 5453,507 5483,507 5483,513 5483,518 5453,518 5453,534 5487,534 5487,540 "></polygon> <polygon class="fil6" points="4735,649 4728,649 4722,649 4722,587 4728,587 4735,587 "></polygon> <polygon class="fil6" points="4797,649 4790,649 4784,649 4758,604 4758,649 4752,649 4746,649 4746,587 4753,587 4760,587 4784,630 4784,587 4790,587 4797,587 "></polygon> <polygon class="fil6" points="4883,649 4876,649 4870,649 4870,621 4845,621 4845,649 4839,649 4832,649 4832,587 4839,587 4845,587 4845,610 4870,610 4870,587 4876,587 4883,587 "></polygon> <polygon class="fil6" points="4942,649 4895,649 4895,587 4941,587 4941,592 4941,598 4908,598 4908,611 4939,611 4939,616 4939,622 4908,622 4908,638 4942,638 4942,643 "></polygon> <path class="fil6" d="M5007 649l-7 0 -7 0 -4 -13 -24 0 -4 13 -6 0 -7 0 22 -62 7 0 8 0 22 62zm-30 -48l-8 25 16 0 -8 -25z"></path> <polygon class="fil6" points="5059,649 5015,649 5015,587 5022,587 5028,587 5028,638 5059,638 5059,643 "></polygon> <polygon class="fil6" points="5094,649 5088,649 5081,649 5081,598 5063,598 5063,592 5063,587 5113,587 5113,592 5113,598 5094,598 "></polygon> <polygon class="fil6" points="5170,649 5164,649 5157,649 5157,621 5133,621 5133,649 5127,649 5120,649 5120,587 5127,587 5133,587 5133,610 5157,610 5157,587 5164,587 5170,587 "></polygon> <path class="fil6" d="M5209 651c-9,0 -16,-3 -21,-9 -5,-6 -8,-14 -8,-24 0,-10 3,-18 8,-24 5,-6 12,-9 21,-9 7,0 13,2 18,6 5,4 8,10 8,16l-12 0c-1,-3 -2,-6 -5,-8 -2,-2 -5,-3 -9,-3 -5,0 -9,2 -11,6 -3,4 -5,9 -5,16 0,7 2,12 4,16 3,3 7,5 12,5 4,0 7,-1 9,-3 3,-2 4,-5 5,-9l12 0c0,7 -3,13 -8,17 -5,4 -11,7 -18,7z"></path> <path class="fil6" d="M5299 649l-7 0 -6 0 -5 -13 -23 0 -4 13 -7 0 -6 0 21 -62 8 0 7 0 22 62zm-29 -48l-8 25 16 0 -8 -25z"></path> <path class="fil6" d="M5321 649l-7 0 -6 0 0 -62 6 0 25 0c6,0 11,1 14,5 4,3 6,7 6,12 0,6 -2,10 -6,13 -1,1 -3,2 -4,2 1,0 1,1 2,1 4,2 5,6 6,11l0 10c0,2 0,3 0,4 1,1 2,2 3,2l0 2 -15 0c0,-1 0,-2 -1,-4 0,-2 0,-5 0,-7l0 -6c0,-3 -1,-5 -3,-6 -1,-1 -4,-2 -7,-2l-13 0 0 25zm0 -51l0 16 15 0c3,0 5,-1 7,-2 2,-1 3,-4 3,-6 0,-3 -1,-5 -3,-6 -1,-2 -4,-2 -7,-2l-15 0z"></path> <polygon class="fil6" points="5417,649 5370,649 5370,587 5416,587 5416,592 5416,598 5383,598 5383,611 5413,611 5413,616 5413,622 5383,622 5383,638 5417,638 5417,643 "></polygon> <path class="fil7" d="M5054 401l-198 0 0 -26c0,-14 3,-26 10,-38 7,-11 16,-22 27,-32 11,-10 22,-20 35,-29 12,-10 23,-19 34,-29 11,-10 20,-20 27,-30 7,-10 10,-22 10,-34 0,-13 -4,-23 -13,-31 -9,-7 -22,-11 -38,-11 -15,0 -26,3 -34,9 -8,7 -13,16 -15,29 8,0 14,2 19,6 4,5 7,10 7,18 0,7 -3,13 -8,17 -6,4 -12,6 -21,6 -9,0 -18,-3 -25,-9 -7,-6 -10,-16 -10,-30 0,-14 4,-27 11,-38 7,-11 18,-19 32,-26 14,-6 30,-9 49,-9 19,0 36,3 51,9 14,7 26,15 34,27 8,11 12,25 12,41 0,15 -3,29 -11,41 -7,13 -16,24 -28,34 -11,10 -23,19 -36,28 -13,8 -25,16 -37,23 -11,7 -20,14 -28,21 -7,6 -11,13 -11,19l112 0 10 -50 33 0 0 94z"></path> <path class="fil7" d="M5182 405c-19,0 -35,-3 -49,-9 -13,-6 -24,-14 -31,-24 -7,-10 -11,-20 -11,-31 0,-14 4,-25 11,-32 8,-8 16,-12 25,-12 11,0 18,2 22,7 4,5 6,10 6,17 0,6 -2,11 -7,16 -4,5 -11,8 -19,8 2,9 6,17 14,23 8,7 19,10 34,10 16,0 29,-6 38,-18 9,-12 14,-27 14,-46 0,-20 -4,-35 -12,-46 -8,-11 -20,-17 -36,-17 -10,0 -20,2 -28,5 -8,3 -14,8 -19,15l-29 -12 20 -141 113 0 7 -12 29 0 -18 55 -107 0 -12 80c8,-6 16,-10 25,-13 9,-3 19,-4 30,-4 19,0 35,3 48,10 14,8 24,18 32,31 7,13 11,29 11,47 0,18 -4,34 -12,48 -8,14 -20,25 -35,33 -15,8 -33,12 -54,12z"></path> <polygon class="fil8" points="4767,285 4739,264 4711,285 4722,252 4694,232 4728,232 4739,199 4750,232 4784,232 4756,252 "></polygon> <polygon class="fil8" points="5430,285 5402,264 5374,285 5385,252 5357,232 5391,232 5402,199 5412,232 5447,232 5419,252 "></polygon> <path class="fil7" d="M4780 874c-7,1 -16,1 -24,-1 -4,-1 -4,-3 -2,-7 8,-17 36,-31 56,-26 4,1 3,3 2,5 -4,14 -16,25 -32,29z"></path> <path class="fil7" d="M4734 825c7,-2 16,-1 25,1 5,1 5,2 3,6 -8,17 -29,26 -49,21 -5,-1 -12,-2 -13,-6 0,-4 5,-8 9,-11 6,-6 14,-9 25,-11z"></path> <path class="fil7" d="M4654 794c-17,2 -30,-3 -42,-13 -4,-3 -2,-5 0,-6 12,-9 25,-10 38,-8 8,2 15,5 22,9 3,2 4,4 1,7 -6,5 -12,9 -19,11z"></path> <path class="fil7" d="M4677 801c13,-3 25,-1 37,3 4,2 4,4 2,7 -16,21 -44,20 -62,7 -4,-2 -1,-4 0,-5 7,-7 15,-11 23,-12z"></path> <path class="fil7" d="M4620 755c-15,4 -35,-5 -45,-19 -2,-2 -2,-4 1,-5 19,-11 46,-2 61,12 2,3 0,4 -1,5 -5,4 -10,6 -16,7z"></path> <path class="fil7" d="M4553 680c18,-3 42,8 52,23 2,4 0,5 -3,6 -10,5 -21,5 -32,1 -9,-4 -16,-11 -21,-18 -6,-8 -5,-10 4,-12z"></path> <path class="fil7" d="M4573 665c-21,5 -40,-10 -48,-32 -2,-4 2,-4 5,-4 12,-2 24,3 33,10 6,5 11,10 15,16 5,8 5,9 -5,10z"></path> <path class="fil7" d="M4511 531c0,-4 -3,-10 0,-13 4,-3 9,1 14,3 16,8 24,23 28,40 2,5 -1,6 -5,5 -18,0 -33,-15 -37,-35z"></path> <path class="fil7" d="M4562 610c3,7 -1,7 -4,7 -17,1 -33,-9 -40,-26 -2,-3 -3,-7 -4,-10 -3,-6 0,-8 5,-7 19,2 31,14 40,29 2,3 3,6 3,7z"></path> <path class="fil7" d="M4550 500c0,0 0,0 0,1 1,5 4,12 0,14 -4,3 -10,-1 -15,-4 -14,-7 -22,-26 -20,-47 1,-4 4,-3 7,-2 14,6 21,17 26,31 1,2 1,5 2,7l0 0z"></path> <path class="fil7" d="M4531 406c23,8 30,37 27,57 -1,4 -4,2 -6,2 -8,-4 -15,-9 -19,-17 -7,-14 -7,-28 -2,-42z"></path> <path class="fil7" d="M4548 390c-2,-11 0,-21 5,-31 1,-4 3,-5 6,-2 12,10 16,24 15,39 0,5 -1,11 -2,16 -1,5 -3,5 -7,3 -9,-6 -15,-14 -17,-25z"></path> <path class="fil7" d="M4599 329c2,13 0,26 -6,38 -1,4 -3,4 -6,2 -10,-8 -14,-19 -13,-31 1,-10 4,-18 9,-26 2,-5 5,-4 8,-1 4,5 7,11 8,18z"></path> <path class="fil7" d="M4781 801c0,-1 0,-4 0,-7 0,-5 -1,-12 4,-14 4,-2 9,4 13,7 12,10 17,24 17,40 0,7 -2,7 -8,5 -13,-6 -22,-15 -26,-31z"></path> <path class="fil7" d="M4769 797c1,5 1,12 -1,18 0,5 -2,7 -7,4 -18,-9 -27,-33 -19,-52 2,-5 4,-4 8,-2 10,8 16,18 19,32z"></path> <path class="fil7" d="M4726 769c2,9 1,18 -2,27 -2,4 -3,5 -7,3 -17,-12 -22,-38 -11,-55 2,-4 3,-4 6,-1 8,7 12,16 14,26z"></path> <path class="fil7" d="M4688 732c3,15 1,27 -5,38 -2,4 -4,4 -7,1 -15,-14 -17,-40 -3,-55 3,-4 5,-3 7,0 4,6 7,12 8,16z"></path> <path class="fil7" d="M4657 697c2,15 -1,28 -10,41 -3,3 -5,3 -7,-1 -13,-16 -11,-40 5,-54 3,-2 5,-4 7,1 2,5 3,9 5,13z"></path> <path class="fil7" d="M4631 655c3,17 -2,32 -14,44 -3,3 -5,4 -8,-1 -9,-17 -4,-39 11,-50 7,-6 8,-5 10,3 1,1 1,3 1,4z"></path> <path class="fil7" d="M4584 651c-4,-18 5,-37 21,-45 5,-2 8,-2 8,4 2,18 -3,33 -17,45 -8,6 -10,5 -12,-4z"></path> <path class="fil7" d="M4653 296c-1,20 -20,43 -39,49 -6,2 -5,-2 -4,-5 1,-16 9,-28 22,-37 6,-4 13,-7 21,-7z"></path> <path class="fil7" d="M4569 609c-4,-21 9,-42 27,-46 5,-1 6,0 6,4 1,17 -10,38 -26,45 -4,1 -7,3 -7,-3z"></path> <path class="fil7" d="M4564 565c-3,1 -4,-1 -5,-4 -1,-21 15,-40 34,-42 3,0 6,-1 6,4 -1,18 -18,38 -35,42z"></path> <path class="fil7" d="M4568 515c-10,2 -12,1 -10,-8 5,-19 21,-32 39,-31 4,0 6,1 5,6 -6,17 -18,28 -34,33z"></path> <path class="fil7" d="M4578 467c-5,0 -11,3 -14,-1 -3,-4 2,-9 4,-13 9,-16 25,-23 40,-20 4,1 5,2 3,6 -6,15 -18,24 -33,28z"></path> <path class="fil7" d="M4597 420c-7,1 -17,4 -20,-2 -2,-5 5,-12 11,-17 10,-9 22,-13 35,-9 6,2 8,3 4,9 -8,10 -17,17 -30,19z"></path> <path class="fil7" d="M4624 352c9,-2 17,-1 25,4 3,2 4,3 2,6 -11,13 -33,20 -49,15 -5,-2 -6,-3 -3,-8 7,-9 15,-15 25,-17z"></path> <path class="fil7" d="M5362 874c8,1 16,1 24,-1 5,-1 5,-3 3,-7 -8,-17 -37,-31 -56,-26 -4,1 -3,3 -3,5 4,14 17,25 32,29z"></path> <path class="fil7" d="M5408 825c-7,-2 -16,-1 -25,1 -5,1 -5,2 -3,6 8,17 29,26 49,21 5,-1 12,-2 13,-6 1,-4 -5,-8 -8,-11 -7,-6 -15,-9 -26,-11z"></path> <path class="fil7" d="M5489 794c16,2 30,-3 42,-13 3,-3 2,-5 -1,-6 -11,-9 -24,-10 -37,-8 -8,2 -16,5 -23,9 -3,2 -4,4 0,7 5,5 11,9 19,11z"></path> <path class="fil7" d="M5466 801c-14,-3 -26,-1 -38,3 -4,2 -4,4 -1,7 15,21 44,20 62,7 3,-2 1,-4 -1,-5 -6,-7 -14,-11 -22,-12z"></path> <path class="fil7" d="M5522 755c16,4 36,-5 45,-19 2,-2 2,-4 -1,-5 -19,-11 -46,-2 -60,12 -2,3 -1,4 1,5 4,4 9,6 15,7z"></path> <path class="fil7" d="M5589 680c-17,-3 -42,8 -52,23 -2,4 1,5 3,6 11,5 21,5 32,1 9,-4 16,-11 22,-18 5,-8 5,-10 -5,-12z"></path> <path class="fil7" d="M5569 665c21,5 41,-10 48,-32 2,-4 -1,-4 -4,-4 -13,-2 -24,3 -34,10 -6,5 -11,10 -14,16 -5,8 -5,9 4,10z"></path> <path class="fil7" d="M5632 531c0,-4 3,-10 0,-13 -4,-3 -10,1 -14,3 -16,8 -24,23 -29,40 -1,5 1,6 5,5 18,0 33,-15 38,-35z"></path> <path class="fil7" d="M5580 610c-2,7 2,7 4,7 17,1 33,-9 41,-26 2,-3 3,-7 4,-10 2,-6 -1,-8 -6,-7 -19,2 -31,14 -40,29 -1,3 -2,6 -3,7z"></path> <path class="fil7" d="M5592 500c0,0 0,0 0,1 -1,5 -3,12 0,14 4,3 10,-1 15,-4 14,-7 23,-26 20,-47 -1,-4 -4,-3 -6,-2 -14,6 -22,17 -27,31 -1,2 -1,5 -1,7l-1 0z"></path> <path class="fil7" d="M5611 406c-23,8 -29,37 -26,57 1,4 3,2 5,2 9,-4 15,-9 19,-17 7,-14 7,-28 2,-42z"></path> <path class="fil7" d="M5594 390c2,-11 0,-21 -4,-31 -2,-4 -3,-5 -7,-2 -12,10 -15,24 -15,39 0,5 2,11 2,16 1,5 4,5 8,3 9,-6 14,-14 16,-25z"></path> <path class="fil7" d="M5544 329c-3,13 0,26 5,38 2,4 3,4 7,2 9,-8 13,-19 12,-31 0,-10 -3,-18 -8,-26 -3,-5 -5,-4 -8,-1 -4,5 -7,11 -8,18z"></path> <path class="fil7" d="M5361 801c0,-1 0,-4 0,-7 0,-5 1,-12 -3,-14 -4,-2 -9,4 -13,7 -13,10 -18,24 -18,40 0,7 3,7 8,5 14,-6 22,-15 26,-31z"></path> <path class="fil7" d="M5374 797c-1,5 -1,12 0,18 1,5 2,7 7,4 19,-9 27,-33 19,-52 -2,-5 -4,-4 -7,-2 -10,8 -16,18 -19,32z"></path> <path class="fil7" d="M5416 769c-2,9 -1,18 3,27 1,4 2,5 6,3 18,-12 23,-38 11,-55 -2,-4 -3,-4 -6,-1 -8,7 -12,16 -14,26z"></path> <path class="fil7" d="M5455 732c-4,15 -2,27 4,38 3,4 4,4 7,1 16,-14 17,-40 3,-55 -3,-4 -4,-3 -7,0 -4,6 -7,12 -7,16z"></path> <path class="fil7" d="M5486 697c-3,15 0,28 10,41 2,3 4,3 7,-1 12,-16 10,-40 -5,-54 -3,-2 -5,-4 -8,1 -2,5 -3,9 -4,13z"></path> <path class="fil7" d="M5511 655c-3,17 2,32 14,44 3,3 5,4 8,-1 9,-17 5,-39 -11,-50 -7,-6 -8,-5 -10,3 0,1 0,3 -1,4z"></path> <path class="fil7" d="M5558 651c4,-18 -4,-37 -20,-45 -5,-2 -8,-2 -9,4 -1,18 4,33 17,45 8,6 10,5 12,-4z"></path> <path class="fil7" d="M5490 296c1,20 19,43 38,49 7,2 5,-2 5,-5 -2,-16 -9,-28 -22,-37 -6,-4 -13,-7 -21,-7z"></path> <path class="fil7" d="M5574 609c3,-21 -9,-42 -28,-46 -4,-1 -6,0 -6,4 -1,17 11,38 26,45 4,1 8,3 8,-3z"></path> <path class="fil7" d="M5578 565c4,1 5,-1 5,-4 1,-21 -14,-40 -34,-42 -3,0 -6,-1 -5,4 0,18 17,38 34,42z"></path> <path class="fil7" d="M5574 515c11,2 12,1 10,-8 -4,-19 -21,-32 -39,-31 -4,0 -6,1 -4,6 5,17 17,28 33,33z"></path> <path class="fil7" d="M5565 467c4,0 11,3 14,-1 2,-4 -2,-9 -5,-13 -8,-16 -25,-23 -40,-20 -4,1 -5,2 -3,6 7,15 18,24 34,28z"></path> <path class="fil7" d="M5545 420c7,1 17,4 20,-2 3,-5 -5,-12 -10,-17 -11,-9 -23,-13 -36,-9 -5,2 -8,3 -3,9 7,10 17,17 29,19z"></path> <path class="fil7" d="M5518 352c-8,-2 -17,-1 -25,4 -3,2 -4,3 -1,6 10,13 32,20 48,15 5,-2 7,-3 3,-8 -7,-9 -15,-15 -25,-17z"></path> <path class="fil9" d="M4492 739l-11 8 8 11c2,2 4,4 6,5 2,0 4,0 6,-1 2,-2 3,-3 2,-5 0,-2 -1,-5 -3,-7l-8 -11zm-14 41c2,0 4,0 6,-2 4,-3 3,-7 -1,-12l-10 -13 -11 9 10 12c2,3 4,5 6,6zm18 2c-1,3 -2,6 -5,8 -4,3 -9,4 -13,2 -5,-1 -9,-5 -14,-11l-18 -24 46 -35 17 23c4,5 7,10 7,15 0,5 -2,8 -6,11 -2,2 -4,3 -7,3 -2,0 -5,0 -7,-1 1,3 1,6 0,9z"></path> <polygon class="fil9" points="4530,770 4539,780 4505,812 4525,833 4517,841 4488,810 "></polygon> <polygon class="fil9" points="4566,869 4559,877 4525,848 4563,804 4596,833 4589,841 4566,821 4558,830 4578,848 4572,856 4551,838 4543,849 "></polygon> <path class="fil9" d="M4576 888c-3,-3 -5,-7 -6,-10l10 -5c1,3 2,6 4,8 3,3 5,6 8,8 3,2 5,3 8,3 2,0 3,0 4,-2 1,-1 1,-2 1,-4 0,-1 -1,-2 -2,-4 -1,-1 -3,-3 -4,-5 -3,-4 -6,-7 -7,-9 -2,-3 -3,-5 -3,-8 -1,-3 0,-7 2,-10 2,-2 5,-4 8,-6 3,-1 7,-1 10,0 4,1 8,3 13,6 3,2 5,4 8,7 2,3 4,6 5,9l-9 6c-3,-6 -6,-10 -11,-13 -3,-3 -5,-4 -7,-4 -2,0 -4,1 -5,3 -1,1 -1,3 0,5 1,2 3,5 6,8 3,3 5,6 7,9 1,2 2,5 3,8 0,3 -1,6 -3,9 -2,3 -5,5 -8,6 -3,1 -6,1 -10,0 -4,-1 -8,-3 -13,-6 -3,-2 -7,-5 -9,-9z"></path> <path class="fil9" d="M4622 919c-3,-3 -6,-6 -7,-9l9 -6c1,2 3,5 6,8 2,3 5,5 8,7 3,2 6,3 8,2 2,0 3,0 4,-2 1,-1 1,-2 1,-4 -1,-1 -2,-2 -3,-4 -1,-1 -3,-3 -5,-5 -3,-3 -5,-6 -7,-8 -2,-2 -3,-5 -4,-8 -1,-3 0,-6 2,-10 2,-2 4,-5 7,-6 3,-1 7,-2 11,-1 4,0 8,2 12,4 4,2 6,5 9,7 3,3 5,5 6,8l-9 7c-3,-6 -7,-10 -11,-12 -3,-2 -6,-3 -8,-3 -2,0 -4,1 -5,3 -1,1 -1,3 0,5 2,2 4,4 7,7 3,4 6,6 8,9 2,2 3,5 3,8 1,3 0,6 -2,9 -1,3 -4,5 -7,6 -3,2 -6,2 -10,2 -4,-1 -8,-2 -13,-5 -4,-3 -7,-5 -10,-9z"></path> <polygon class="fil9" points="4709,955 4704,965 4664,945 4690,893 4729,913 4724,922 4697,909 4691,920 4716,932 4711,941 4687,929 4681,941 "></polygon> <path class="fil9" d="M4745 970c5,2 10,2 14,1 5,-2 8,-6 10,-11 2,-5 2,-10 0,-14 -2,-4 -6,-7 -11,-9l-11 -5 -14 33 12 5zm-7 -53l25 10c5,2 10,5 14,9 3,4 6,9 6,14 1,5 1,10 -1,15 -3,6 -6,10 -10,13 -4,3 -9,5 -14,5 -5,1 -11,0 -17,-3l-24 -9 21 -54z"></path> <path class="fil9" d="M4832 961l-4 13 13 4c3,1 6,1 8,0 2,-1 3,-2 4,-4 0,-2 0,-4 -1,-6 -2,-1 -4,-3 -7,-3l-13 -4zm13 41c2,-1 4,-2 4,-5 2,-4 -1,-7 -8,-9l-15 -4 -4 13 15 4c4,1 6,2 8,1zm17 -9c1,3 1,6 0,9 -1,5 -4,8 -9,10 -4,2 -10,1 -18,-1l-28 -7 15 -56 27 7c7,2 12,5 15,8 3,4 3,8 2,12 -1,3 -2,5 -4,7 -2,2 -4,3 -7,4 3,2 5,4 7,7z"></path> <polygon class="fil9" points="4900,1005 4896,1025 4883,1023 4887,1002 4872,962 4886,964 4896,993 4917,970 4929,973 "></polygon> <polygon class="fil9" points="4975,979 4968,1036 4955,1035 4961,988 4949,986 4950,976 "></polygon> <polygon class="fil9" points="5010,982 5024,983 5022,1029 5051,1031 5050,1042 5008,1040 "></polygon> <path class="fil9" d="M5094 1019l-10 -22 -9 22 19 0zm4 10l-27 0 -5 13 -14 0 25 -58 14 0 26 57 -14 0 -5 -12z"></path> <polygon class="fil9" points="5145,1016 5138,1025 5139,1039 5126,1040 5121,983 5134,982 5137,1009 5160,980 5175,978 5153,1006 5181,1036 5165,1037 "></polygon> <polygon class="fil9" points="5233,969 5242,1027 5228,1029 5225,1005 5199,1009 5202,1033 5189,1035 5180,978 5194,975 5197,998 5223,994 5220,971 "></polygon> <polygon class="fil9" points="5312,986 5298,989 5301,1003 5291,1005 5288,992 5274,995 5271,986 5285,982 5282,968 5292,966 5295,979 5309,976 "></polygon> <path class="fil9" d="M5376 959c2,-3 2,-6 1,-9 -1,-3 -3,-5 -6,-5 -2,-1 -5,-1 -9,0l-10 4 6 19 11 -4c3,-1 6,-3 7,-5zm-4 -26c4,0 8,1 11,3 3,3 5,6 7,10 1,4 1,8 0,11 0,4 -2,7 -5,10 -3,3 -7,5 -12,7l-11 4 5 15 -12 5 -20 -55 24 -8c5,-2 9,-3 13,-2z"></path> <path class="fil9" d="M5432 942l-17 -16 1 24 16 -8zm8 8l-24 11 0 13 -12 6 0 -63 12 -6 47 42 -13 6 -10 -9z"></path> <polygon class="fil9" points="5456,903 5440,912 5435,903 5479,879 5484,888 5468,897 5490,938 5478,945 "></polygon> <polygon class="fil9" points="5484,875 5495,868 5526,917 5514,924 "></polygon> <polygon class="fil9" points="5569,874 5576,883 5539,909 5506,862 5541,836 5547,845 5523,863 5530,873 5552,857 5558,866 5536,881 5544,892 "></polygon> <polygon class="fil9" points="5589,796 5627,839 5619,846 5574,839 5597,865 5587,874 5549,831 5557,823 5602,831 5579,804 "></polygon> <polygon class="fil9" points="5613,786 5600,800 5592,792 5626,755 5634,762 5622,776 5656,808 5647,817 "></polygon> <path class="fil9" d="M5678 780c-4,3 -7,5 -10,6l-5 -10c2,-1 5,-2 8,-4 3,-2 6,-5 8,-8 2,-3 3,-5 3,-7 0,-3 0,-4 -2,-5 -1,-1 -2,-1 -3,-1 -2,0 -3,1 -5,2 -1,1 -3,2 -5,4 -4,3 -7,6 -9,7 -3,2 -5,3 -8,3 -3,0 -7,-1 -10,-3 -2,-2 -4,-4 -5,-7 -2,-4 -2,-7 -1,-11 1,-4 3,-8 6,-12 2,-3 5,-6 8,-8 2,-2 5,-4 8,-5l6 9c-6,2 -10,6 -13,10 -2,3 -4,6 -4,8 0,2 1,4 3,5 1,1 3,1 5,0 2,-1 5,-3 8,-6 3,-3 6,-5 9,-7 2,-1 5,-2 8,-3 3,0 6,1 9,3 3,2 5,5 6,8 1,3 1,7 0,10 -1,4 -3,9 -6,13 -2,3 -6,7 -9,9z"></path> <path class="fil8" d="M4443 711c-37,-64 -56,-132 -56,-202 0,-136 71,-264 200,-360 130,-96 302,-149 484,-149 183,0 355,53 484,149 129,96 201,224 201,360 0,68 -18,134 -53,196l-3 -2c34,-62 52,-127 52,-194 0,-135 -71,-261 -199,-357 -129,-95 -300,-148 -482,-148 -182,0 -353,53 -481,148 -129,96 -199,222 -199,357 0,70 18,137 55,200l-3 2z"></path> <polygon class="fil9" points="4861,818 4887,827 4869,881 4853,876 4866,834 4856,831 "></polygon> <path class="fil9" d="M4907 847c-2,1 -3,2 -3,5 -1,2 0,3 0,5 1,1 3,2 5,3 2,0 4,0 5,-1 2,-1 3,-2 3,-4 1,-2 1,-4 0,-5 -1,-2 -3,-3 -5,-3 -2,-1 -4,-1 -5,0zm-6 31c4,1 7,0 9,-1 3,-2 5,-5 6,-9 -4,3 -9,4 -14,2 -3,0 -6,-2 -8,-4 -3,-2 -4,-5 -5,-8 -1,-3 -1,-7 0,-10 1,-4 3,-7 5,-10 3,-2 6,-4 9,-5 4,0 8,0 12,1 5,1 9,3 12,6 3,4 5,7 6,12 0,5 0,10 -1,15 -2,6 -4,11 -7,15 -3,4 -7,7 -12,8 -4,1 -9,1 -14,0 -3,-1 -7,-2 -10,-3 -3,-2 -5,-4 -7,-6l9 -10c2,4 5,6 10,7z"></path> <path class="fil9" d="M4956 858c-1,1 -2,2 -3,5 0,2 0,4 1,5 1,1 3,2 5,2 2,1 4,0 5,-1 2,-1 3,-2 3,-4 0,-2 0,-4 -1,-5 -1,-2 -3,-3 -5,-3 -2,0 -4,0 -5,1zm-4 31c4,1 8,0 10,-2 2,-2 4,-5 4,-9 -3,3 -7,4 -13,4 -3,-1 -6,-2 -9,-4 -2,-2 -4,-5 -5,-8 -1,-3 -1,-6 0,-10 0,-4 2,-7 4,-10 2,-2 5,-4 8,-5 4,-1 8,-2 12,-1 5,1 9,3 12,6 3,3 6,6 7,11 1,4 1,9 0,15 -1,6 -3,11 -5,15 -3,4 -7,7 -11,9 -5,2 -9,2 -15,1 -3,0 -6,-1 -9,-2 -3,-2 -6,-3 -8,-5l8 -11c2,3 6,5 10,6z"></path> <path class="fil9" d="M5007 863c-1,0 -2,2 -2,4 0,1 1,3 2,4 1,1 2,1 4,1 2,1 4,0 5,-1 1,0 2,-2 2,-3 0,-2 0,-4 -1,-5 -1,-1 -3,-1 -5,-1 -2,-1 -3,0 -5,1zm-3 23c-1,1 -2,2 -2,4 0,2 0,4 2,5 1,1 3,2 5,2 3,0 5,0 6,-1 1,-1 2,-3 2,-5 0,-2 0,-3 -1,-4 -1,-2 -3,-2 -6,-3 -2,0 -4,1 -6,2zm20 -33c3,2 5,4 6,7 2,2 3,5 2,8 0,2 -1,4 -2,6 -1,2 -3,4 -5,5 3,2 5,4 6,7 2,2 2,5 2,8 0,3 -2,6 -4,9 -2,2 -5,4 -8,5 -4,1 -8,1 -13,1 -5,-1 -9,-2 -12,-3 -3,-2 -6,-4 -8,-7 -1,-2 -2,-5 -2,-9 0,-3 2,-5 4,-8 2,-2 4,-4 7,-5 -2,-2 -3,-4 -4,-6 -1,-2 -2,-5 -2,-7 1,-3 2,-6 4,-8 2,-2 4,-4 7,-4 3,-1 7,-2 11,-1 4,0 8,1 11,2z"></path> <polygon class="fil9" points="5060,881 5082,881 5082,891 5060,891 "></polygon> <path class="fil9" d="M5152 894l1 13 -44 3 -1 -10 18 -23c2,-2 3,-3 3,-5 1,-1 1,-3 1,-4 0,-1 0,-2 -1,-3 -1,0 -2,0 -4,0 -2,0 -5,1 -7,2 -3,2 -6,4 -8,6l-7 -11c8,-7 15,-11 23,-11 4,0 8,0 11,1 3,1 6,2 8,5 2,2 3,4 3,7 0,3 -1,6 -2,10 -2,3 -4,6 -8,10l-9 11 23 -1z"></path> <path class="fil9" d="M5173 862c-1,2 -1,7 0,13 1,6 3,10 4,12 2,2 4,3 7,3 3,-1 5,-2 6,-5 1,-3 1,-7 0,-13 -1,-6 -2,-10 -4,-12 -2,-3 -4,-4 -7,-3 -3,0 -5,2 -6,5zm24 -13c5,4 9,11 10,20 2,9 1,17 -3,23 -4,5 -9,9 -18,10 -8,1 -15,0 -20,-4 -5,-4 -8,-11 -10,-20 -1,-10 0,-17 3,-23 4,-5 10,-9 18,-10 8,-2 15,0 20,4z"></path> <path class="fil9" d="M5260 872l3 12 -43 11 -3 -10 15 -25c1,-2 2,-4 2,-6 1,-1 1,-3 1,-4 -1,-1 -1,-2 -2,-2 -1,-1 -3,-1 -4,0 -2,0 -5,1 -7,3 -2,2 -5,5 -7,8l-9 -11c7,-7 14,-12 22,-14 4,-1 7,-1 10,-1 4,1 6,2 9,3 2,2 4,5 4,7 1,3 1,7 0,10 -1,4 -3,7 -6,12l-7 12 22 -5z"></path> <path class="fil9" d="M5300 842c3,2 6,5 7,9 1,3 2,6 1,10 -1,3 -3,6 -6,9 -3,2 -6,4 -11,6 -4,1 -8,2 -13,2 -4,0 -8,0 -11,-1l2 -13c3,1 6,1 9,2 2,0 5,-1 8,-2 2,0 4,-2 5,-3 1,-1 1,-3 0,-5 0,-2 -1,-3 -3,-4 -2,0 -4,0 -6,1l-10 3 -3 -8 8 -15 -20 7 -4 -12 39 -14 3 10 -9 17 2 -1c5,0 9,0 12,2z"></path> </g> </g> </g> </svg>