<svg xmlns="http://www.w3.org/2000/svg" xmlns:xlink="http://www.w3.org/1999/xlink" id="Layer_1" x="0px" y="0px" width="1194.68px" height="334.5px" viewBox="0 0 1194.68 334.5" xml:space="preserve"> <g> <defs> <rect id="SVGID_1_" width="1194.686" height="334.5"></rect> </defs> <clipPath id="SVGID_2_"> <use xlink:href="#SVGID_1_"></use> </clipPath> <path clip-path="url(#SVGID_2_)" fill="#FFFFFF" d="M1014.729,271.169c-55.438,0-100.538-45.056-100.538-100.437 s45.101-100.437,100.538-100.437c55.437,0,100.538,45.056,100.538,100.437S1070.166,271.169,1014.729,271.169"></path> <path clip-path="url(#SVGID_2_)" fill="#0A5CA6" d="M1014.729,36.928c-73.779,0-133.805,60.025-133.805,133.805 c0,73.78,60.025,133.805,133.805,133.805c73.78,0,133.806-60.024,133.806-133.805C1148.534,96.953,1088.509,36.928,1014.729,36.928 M1014.729,270.917c-55.242,0-100.184-44.942-100.184-100.185c0-55.242,44.941-100.184,100.184-100.184 s100.185,44.942,100.185,100.184C1114.913,225.975,1069.971,270.917,1014.729,270.917"></path> <path clip-path="url(#SVGID_2_)" fill="#E82427" d="M1014.729,309.373c-76.447,0-138.642-62.194-138.642-138.641 s62.194-138.641,138.642-138.641c76.445,0,138.64,62.194,138.64,138.641S1091.175,309.373,1014.729,309.373 M1014.729,33.092 c-75.896,0-137.642,61.745-137.642,137.641s61.745,137.641,137.642,137.641c75.895,0,137.64-61.745,137.64-137.641 S1090.624,33.092,1014.729,33.092"></path> <path clip-path="url(#SVGID_2_)" fill="#E82427" d="M994.796,174.148c7.798,0,7.798-4.768,8.788-8.975h2.477l-4.209,30.01h-57.929 c0-36.18,45.674-52.728,45.674-73.061c0-13.463-5.693-22.438-14.233-22.438c-6.685,0-11.512,2.384-14.73,6.03 c-2.723,2.945-1.112,6.171,0.62,6.171c5.074,0,9.283,4.627,9.283,10.517c0,5.75-4.209,10.518-9.283,10.518 c-5.076,0-9.284-4.768-9.284-10.518c0-10.097,5.323-25.662,25.003-25.662c18.566,0,30.944,10.096,30.944,25.522 c0,29.589-36.638,27.485-55.947,51.886H994.796z"></path> <path clip-path="url(#SVGID_2_)" fill="#E82427" d="M1022.551,140.024c9.406-5.048,18.442-7.152,26.116-6.731 c16.339,0.841,26.983,12.901,26.983,30.29c0,20.053-12.996,33.235-33.172,33.235c-21.784,0-27.107-15.566-27.107-25.662 c0-5.75,4.208-10.518,9.283-10.518s9.283,4.768,9.283,10.518c0,5.889-4.208,10.517-9.283,10.517c-1.608,0-2.228,0.562-2.228,1.402 c0,5.049,8.541,10.658,16.339,10.658c11.387,0,18.813-12.2,18.441-30.571c-0.123-13.883-7.426-24.26-19.309-24.26 c-5.446,0-11.635,2.104-18.69,6.872l7.18-47.259h52.233c-8.046,0-4.456,19.773-9.778,21.175h-43.198L1022.551,140.024z"></path> <rect x="899.573" y="190.065" transform="matrix(-0.2714 -0.9625 0.9625 -0.2714 952.5693 1124.2966)" clip-path="url(#SVGID_2_)" fill="#FFFFFF" width="4.49" height="23.093"></rect> <polygon clip-path="url(#SVGID_2_)" fill="#FFFFFF" points="924.085,224.946 903.434,235.281 901.783,231.983 909.992,217.058 897.454,223.332 895.47,219.365 916.119,209.03 917.781,212.353 909.562,227.254 922.099,220.979 "></polygon> <polygon clip-path="url(#SVGID_2_)" fill="#FFFFFF" points="949.771,253.68 934.142,270.679 930.834,267.64 937.243,260.67 930.753,254.703 924.346,261.673 921.039,258.634 936.667,241.634 939.976,244.674 933.813,251.377 940.301,257.343 946.464,250.641 "></polygon> <polygon clip-path="url(#SVGID_2_)" fill="#FFFFFF" points="960.545,282.222 958.437,285.957 945.353,278.569 956.705,258.461 969.477,265.67 967.367,269.404 958.483,264.389 956.019,268.756 963.863,273.186 961.82,276.805 953.976,272.376 951.348,277.029 "></polygon> <path clip-path="url(#SVGID_2_)" fill="#FFFFFF" d="M983.71,289.8l-8.639-2.557l-3.052,4.257l-4.412-1.306l14.847-19.689 l4.254,1.26l1.765,24.605l-4.519-1.337L983.71,289.8z M983.507,285.508l-0.44-9.351l-5.459,7.604L983.507,285.508z"></path> <polygon clip-path="url(#SVGID_2_)" fill="#FFFFFF" points="1001.174,274.708 1005.649,275.092 1004.044,293.761 1013.739,294.595 1013.366,298.933 999.197,297.715 "></polygon> <polygon clip-path="url(#SVGID_2_)" fill="#FFFFFF" points="1024.605,279.441 1018.434,280.117 1017.958,275.788 1034.77,273.948 1035.243,278.277 1029.069,278.953 1031.108,297.58 1026.645,298.068 "></polygon> <polygon clip-path="url(#SVGID_2_)" fill="#FFFFFF" points="1057.737,266.779 1065.309,288.595 1061.066,290.067 1057.963,281.123 1049.634,284.014 1052.738,292.958 1048.494,294.432 1040.924,272.615 1045.166,271.143 1048.151,279.744 1056.48,276.854 1053.494,268.251 "></polygon> <path clip-path="url(#SVGID_2_)" fill="#FFFFFF" d="M1080.354,279.359c-1.896,0.004-3.722-0.509-5.473-1.541 c-1.75-1.031-3.243-2.509-4.48-4.434c-1.236-1.923-1.961-3.896-2.173-5.917c-0.211-2.021,0.079-3.895,0.872-5.619 c0.79-1.725,2.026-3.127,3.706-4.206c1.414-0.908,2.882-1.435,4.406-1.578c1.522-0.142,3.029,0.092,4.52,0.702l-0.711,4.223 c-2.08-0.807-3.935-0.686-5.567,0.363c-1.012,0.651-1.743,1.493-2.196,2.53c-0.454,1.037-0.6,2.169-0.438,3.397 c0.164,1.229,0.633,2.444,1.406,3.646c0.773,1.203,1.684,2.133,2.733,2.792s2.14,0.997,3.271,1.014 c1.132,0.019,2.203-0.298,3.214-0.947c1.633-1.05,2.506-2.696,2.623-4.941l4.14,1.104c-0.054,1.63-0.464,3.108-1.233,4.44 c-0.771,1.332-1.863,2.452-3.278,3.361C1084.033,278.818,1082.253,279.355,1080.354,279.359"></path> <path clip-path="url(#SVGID_2_)" fill="#FFFFFF" d="M1106.591,252.967l-6.288,6.454l2.346,4.684l-3.212,3.296l-10.504-22.309 l3.096-3.177l22.596,9.898l-3.29,3.375L1106.591,252.967z M1102.698,251.148l-8.48-3.966l4.186,8.374L1102.698,251.148z"></path> <path clip-path="url(#SVGID_2_)" fill="#FFFFFF" d="M1127.534,232.152l-7.441-0.103l-0.114,0.19l-2.012,3.352l5.516,3.312 l-2.312,3.85l-19.799-11.884l4.322-7.202c0.885-1.474,1.946-2.578,3.182-3.312c1.236-0.735,2.566-1.073,3.994-1.015 c1.426,0.06,2.875,0.529,4.347,1.412c1.471,0.883,2.561,1.942,3.269,3.175c0.709,1.234,1.018,2.567,0.928,4l8.604,0.09 L1127.534,232.152z M1111.775,224.019c-0.956,0.245-1.781,0.947-2.476,2.104l-1.883,3.137l6.901,4.144l1.883-3.139 c0.695-1.155,0.921-2.217,0.679-3.181c-0.243-0.965-0.91-1.775-2.003-2.432C1113.764,223.984,1112.731,223.773,1111.775,224.019"></path> <polygon clip-path="url(#SVGID_2_)" fill="#FFFFFF" points="1135.493,201.21 1139.564,202.552 1134.864,216.823 1112.931,209.598 1117.52,195.669 1121.593,197.011 1118.4,206.7 1123.163,208.27 1125.982,199.712 1129.931,201.012 1127.111,209.57 1132.187,211.242 "></polygon> <polygon clip-path="url(#SVGID_2_)" fill="#FFFFFF" points="989.85,49.21 992.187,53.946 997.412,54.705 993.632,58.391 994.524,63.596 989.85,61.139 985.176,63.596 986.068,58.391 982.286,54.705 987.513,53.946 "></polygon> <polygon clip-path="url(#SVGID_2_)" fill="#FFFFFF" points="1036.328,49.21 1038.665,53.946 1043.891,54.705 1040.109,58.391 1041.002,63.596 1036.328,61.139 1031.654,63.596 1032.546,58.391 1028.765,54.705 1033.991,53.946 "></polygon> <polygon clip-path="url(#SVGID_2_)" fill="#FFFFFF" points="1014.491,42.226 1017.79,48.909 1025.165,49.98 1019.828,55.184 1021.089,62.529 1014.491,59.061 1007.895,62.529 1009.154,55.184 1003.817,49.98 1011.193,48.909 "></polygon> <path clip-path="url(#SVGID_2_)" fill="#FFFFFF" d="M911.961,114.162c0.086,0.847,0.194,1.602,0.326,2.232 c-0.534-0.446-2.107-1.924-2.295-4.263c-0.246-2.834,1.782-5.749,1.782-5.749s2.034,1.807,2.177,4.575 c0.135,2.315-0.986,4.611-1.359,5.348c-0.041-0.653-0.086-1.438-0.172-2.285c-0.215-2.085-0.484-3.74-0.533-3.949 C911.879,110.293,911.739,112.071,911.961,114.162"></path> <path clip-path="url(#SVGID_2_)" fill="#FFFFFF" d="M914.803,116.041c-0.797,0.235-1.551,0.422-2.157,0.58 c0.618,0.296,2.629,1.065,4.767,0.485c2.563-0.698,4.474-3.028,4.474-3.028s-2.23-1.551-4.887-0.922 c-2.193,0.546-3.906,2.501-4.406,3.149c0.602-0.242,1.359-0.498,2.155-0.732c1.959-0.58,3.593-0.737,3.778-0.765 C918.344,114.888,916.756,115.457,914.803,116.041"></path> <path clip-path="url(#SVGID_2_)" fill="#FFFFFF" d="M908.249,121.605c0.159,0.836,0.338,1.582,0.513,2.191 c-0.57-0.396-2.252-1.723-2.654-4.043c-0.26-1.406,0.085-2.862,0.44-3.995c0.383-1.116,0.825-1.873,0.825-1.873 s2.176,1.607,2.58,4.356c0.326,2.286-0.573,4.682-0.893,5.442c-0.087-0.641-0.209-1.425-0.368-2.26 c-0.403-2.063-0.808-3.678-0.877-3.884C907.828,117.762,907.84,119.539,908.249,121.605"></path> <path clip-path="url(#SVGID_2_)" fill="#FFFFFF" d="M911.243,123.231c-0.773,0.302-1.502,0.557-2.104,0.76 c0.643,0.243,2.727,0.841,4.796,0.072c1.232-0.47,2.311-1.305,3.024-2.057c0.742-0.737,1.177-1.364,1.177-1.364 s-2.376-1.35-4.952-0.479c-2.152,0.732-3.67,2.839-4.123,3.521c0.59-0.288,1.313-0.613,2.087-0.916 c1.893-0.754,3.52-1.049,3.699-1.094C914.672,121.77,913.132,122.475,911.243,123.231"></path> <path clip-path="url(#SVGID_2_)" fill="#FFFFFF" d="M904.858,128.99c0.242,0.822,0.498,1.554,0.727,2.148 c-0.593-0.341-2.415-1.527-3.016-3.802c-0.337-1.357-0.197-2.876,0.097-4.017c0.29-1.144,0.654-1.943,0.654-1.943 s2.324,1.42,2.946,4.115c0.548,2.259-0.177,4.708-0.394,5.507c-0.148-0.634-0.359-1.411-0.585-2.228 c-0.541-1.999-1.138-3.6-1.213-3.792C904.102,125.197,904.309,126.986,904.858,128.99"></path> <path clip-path="url(#SVGID_2_)" fill="#FFFFFF" d="M907.985,130.344c-0.736,0.374-1.427,0.698-2.007,0.954 c0.671,0.189,2.771,0.585,4.767-0.358c1.233-0.556,2.155-1.515,2.839-2.308c0.679-0.796,1.047-1.463,1.047-1.463 s-2.468-1.13-4.978-0.046c-2.059,0.926-3.423,3.141-3.78,3.875c0.556-0.341,1.229-0.738,1.977-1.105 c1.864-0.897,3.402-1.357,3.592-1.413C911.271,128.589,909.838,129.443,907.985,130.344"></path> <path clip-path="url(#SVGID_2_)" fill="#FFFFFF" d="M902.313,136.825c0.308,0.795,0.622,1.498,0.897,2.066 c-0.627-0.287-2.522-1.291-3.336-3.508c-0.515-1.344-0.417-2.836-0.265-4.015c0.151-1.182,0.479-1.998,0.479-1.998 s0.612,0.297,1.323,0.927c0.707,0.627,1.525,1.589,1.984,2.913c0.713,2.19,0.267,4.711,0.092,5.516 c-0.202-0.615-0.465-1.364-0.772-2.16c-0.774-1.962-1.439-3.478-1.547-3.669C901.221,133.115,901.532,134.86,902.313,136.825"></path> <path clip-path="url(#SVGID_2_)" fill="#FFFFFF" d="M905.55,137.888c-0.706,0.436-1.373,0.819-1.932,1.127 c0.68,0.125,2.834,0.335,4.726-0.787c1.119-0.681,2.045-1.685,2.615-2.548c0.57-0.863,0.912-1.546,0.912-1.546 s-0.644-0.221-1.587-0.29c-0.951-0.069-2.194,0.023-3.367,0.687c-2.002,1.094-3.109,3.442-3.429,4.195 c0.526-0.39,1.179-0.839,1.883-1.275c1.719-1.08,3.282-1.65,3.449-1.728C908.666,135.849,907.261,136.806,905.55,137.888"></path> <path clip-path="url(#SVGID_2_)" fill="#FFFFFF" d="M899.937,144.792c0.376,0.762,0.751,1.431,1.077,1.969 c-0.652-0.226-2.632-1.046-3.635-3.176c-0.626-1.288-0.719-2.8-0.636-3.98c0.066-1.184,0.273-2.043,0.273-2.043 s2.542,0.982,3.662,3.528c0.884,2.107,0.729,4.672,0.595,5.482c-0.254-0.593-0.582-1.313-0.957-2.076 c-0.942-1.879-1.792-3.34-1.89-3.513C898.47,141.187,898.994,142.912,899.937,144.792"></path> <path clip-path="url(#SVGID_2_)" fill="#FFFFFF" d="M903.259,145.547c-0.667,0.498-1.299,0.941-1.831,1.299 c0.69,0.06,2.857,0.067,4.649-1.222c1.062-0.78,1.838-1.873,2.365-2.774c0.512-0.905,0.742-1.625,0.742-1.625 s-2.629-0.67-4.879,0.854c-1.92,1.265-2.748,3.722-3.032,4.493c0.493-0.437,1.104-0.945,1.77-1.445 c1.621-1.233,3.079-1.954,3.265-2.039C906.135,143.219,904.881,144.313,903.259,145.547"></path> <path clip-path="url(#SVGID_2_)" fill="#FFFFFF" d="M898.459,152.928c0.448,0.722,0.875,1.35,1.262,1.857 c-0.682-0.164-2.722-0.788-3.922-2.812c-0.735-1.222-1-2.725-1.017-3.906c-0.039-1.187,0.09-2.062,0.09-2.062 s2.622,0.737,3.969,3.164c1.095,2.018,1.174,4.582,1.117,5.401c-0.31-0.565-0.703-1.25-1.147-1.973 c-1.107-1.778-2.118-3.158-2.225-3.319C896.644,149.476,897.357,151.15,898.459,152.928"></path> <path clip-path="url(#SVGID_2_)" fill="#FFFFFF" d="M901.839,153.359c-0.615,0.561-1.211,1.062-1.695,1.471 c0.679-0.009,2.847-0.211,4.509-1.664c0.995-0.874,1.635-2.041,2.086-2.983c0.43-0.946,0.595-1.684,0.595-1.684 s-2.681-0.419-4.786,1.309c-1.778,1.444-2.38,3.967-2.589,4.762c0.448-0.482,1.01-1.046,1.626-1.606 c1.509-1.381,2.862-2.242,3.048-2.343C904.469,150.768,903.352,151.979,901.839,153.359"></path> <path clip-path="url(#SVGID_2_)" fill="#FFFFFF" d="M897.558,161.089c0.514,0.677,1.011,1.261,1.435,1.727 c-0.683-0.097-2.784-0.521-4.177-2.42c-0.858-1.144-1.259-2.614-1.389-3.79c-0.155-1.178-0.11-2.061-0.11-2.061 s2.681,0.482,4.255,2.767c1.271,1.9,1.618,4.447,1.64,5.267c-0.363-0.533-0.823-1.176-1.338-1.853 c-1.283-1.663-2.415-2.937-2.535-3.087C895.412,157.831,896.277,159.426,897.558,161.089"></path> <path clip-path="url(#SVGID_2_)" fill="#FFFFFF" d="M900.963,161.192c-0.56,0.617-1.095,1.173-1.547,1.628 c0.688-0.075,2.815-0.486,4.326-2.093c0.897-0.968,1.429-2.19,1.787-3.171c0.336-0.981,0.431-1.731,0.431-1.731 s-2.709-0.159-4.64,1.765c-1.641,1.607-1.976,4.178-2.108,4.988c0.397-0.522,0.9-1.138,1.459-1.756 c1.355-1.521,2.63-2.508,2.806-2.627C903.327,158.357,902.324,159.67,900.963,161.192"></path> <path clip-path="url(#SVGID_2_)" fill="#FFFFFF" d="M897.338,169.459c0.583,0.623,1.138,1.157,1.608,1.579 c-0.689-0.03-2.825-0.252-4.408-2.005c-0.985-1.054-1.468-2.48-1.741-3.635c-0.272-1.158-0.32-2.04-0.32-2.04 s2.717,0.219,4.518,2.341c1.444,1.77,2.023,4.27,2.146,5.084c-0.418-0.496-0.941-1.092-1.523-1.715 c-1.463-1.531-2.652-2.691-2.812-2.828C894.917,166.423,895.875,167.929,897.338,169.459"></path> <path clip-path="url(#SVGID_2_)" fill="#FFFFFF" d="M900.737,169.235c-0.491,0.668-0.965,1.273-1.369,1.767 c0.678-0.139,2.753-0.749,4.088-2.495c0.778-1.051,1.247-2.322,1.48-3.332c0.231-1.01,0.25-1.766,0.25-1.766 s-2.711,0.104-4.432,2.205c-1.485,1.76-1.581,4.351-1.614,5.169c0.343-0.56,0.777-1.22,1.268-1.888 c1.182-1.644,2.413-2.753,2.551-2.887C902.845,166.184,901.916,167.591,900.737,169.235"></path> <path clip-path="url(#SVGID_2_)" fill="#FFFFFF" d="M916.963,109.55c-0.568,0.713-1.094,1.372-1.529,1.918 c0.74-0.268,2.949-1.191,4.491-3.043c0.937-1.117,1.457-2.412,1.785-3.426c0.32-1.015,0.432-1.766,0.432-1.766 s-0.754,0.099-1.77,0.519c-1.018,0.414-2.279,1.163-3.264,2.339c-1.643,1.974-1.88,4.455-1.915,5.216 c0.388-0.582,0.857-1.302,1.43-2.021c1.374-1.794,2.727-3.052,2.888-3.206C919.387,106.269,918.327,107.766,916.963,109.55"></path> <path clip-path="url(#SVGID_2_)" fill="#FFFFFF" d="M1129.599,188.044l-0.95-0.143c0.845-5.643,1.271-11.419,1.271-17.169 c0-23.499-7.03-46.102-20.33-65.367l0.79-0.546c13.411,19.426,20.501,42.219,20.501,65.913 C1130.881,176.529,1130.449,182.354,1129.599,188.044"></path> <path clip-path="url(#SVGID_2_)" fill="#FFFFFF" d="M899.802,188.605l-0.074-0.495c-0.856-5.709-1.29-11.556-1.29-17.378 c0-24.146,7.332-47.302,21.203-66.964l0.288-0.409l1.014,0.716l-0.288,0.408c-13.723,19.451-20.977,42.359-20.977,66.249 c0,5.758,0.43,11.543,1.275,17.194l0.074,0.494L899.802,188.605z"></path> <path clip-path="url(#SVGID_2_)" fill="#FFFFFF" d="M1117.573,114.162c-0.086,0.847-0.194,1.602-0.326,2.232 c0.534-0.446,2.108-1.924,2.296-4.263c0.246-2.834-1.782-5.749-1.782-5.749s-2.033,1.807-2.177,4.575 c-0.136,2.315,0.985,4.611,1.359,5.348c0.041-0.653,0.085-1.438,0.171-2.285c0.215-2.085,0.485-3.74,0.534-3.949 C1117.655,110.293,1117.795,112.071,1117.573,114.162"></path> <path clip-path="url(#SVGID_2_)" fill="#FFFFFF" d="M1114.732,116.041c0.797,0.235,1.551,0.422,2.157,0.58 c-0.618,0.296-2.629,1.065-4.767,0.485c-2.563-0.698-4.474-3.028-4.474-3.028s2.23-1.551,4.886-0.922 c2.194,0.546,3.907,2.501,4.407,3.149c-0.602-0.242-1.359-0.498-2.155-0.732c-1.959-0.58-3.593-0.737-3.779-0.765 C1111.191,114.888,1112.779,115.457,1114.732,116.041"></path> <path clip-path="url(#SVGID_2_)" fill="#FFFFFF" d="M1121.286,121.605c-0.159,0.836-0.338,1.582-0.513,2.191 c0.57-0.396,2.252-1.723,2.654-4.043c0.26-1.406-0.086-2.862-0.441-3.995c-0.382-1.116-0.825-1.873-0.825-1.873 s-2.176,1.607-2.579,4.356c-0.326,2.286,0.573,4.682,0.893,5.442c0.087-0.641,0.209-1.425,0.367-2.26 c0.404-2.063,0.809-3.678,0.877-3.884C1121.707,117.762,1121.695,119.539,1121.286,121.605"></path> <path clip-path="url(#SVGID_2_)" fill="#FFFFFF" d="M1118.292,123.231c0.773,0.302,1.502,0.557,2.104,0.76 c-0.643,0.243-2.727,0.841-4.796,0.072c-1.232-0.47-2.311-1.305-3.025-2.057c-0.741-0.737-1.176-1.364-1.176-1.364 s2.376-1.35,4.952-0.479c2.152,0.732,3.67,2.839,4.123,3.521c-0.591-0.288-1.313-0.613-2.088-0.916 c-1.892-0.754-3.519-1.049-3.698-1.094C1114.863,121.77,1116.403,122.475,1118.292,123.231"></path> <path clip-path="url(#SVGID_2_)" fill="#FFFFFF" d="M1124.677,128.99c-0.242,0.822-0.497,1.554-0.728,2.148 c0.594-0.341,2.415-1.527,3.017-3.802c0.337-1.357,0.196-2.876-0.098-4.017c-0.29-1.144-0.652-1.943-0.652-1.943 s-2.325,1.42-2.947,4.115c-0.548,2.259,0.177,4.708,0.394,5.507c0.148-0.634,0.358-1.411,0.585-2.228 c0.541-1.999,1.138-3.6,1.214-3.792C1125.434,125.197,1125.228,126.986,1124.677,128.99"></path> <path clip-path="url(#SVGID_2_)" fill="#FFFFFF" d="M1121.55,130.344c0.735,0.374,1.427,0.698,2.007,0.954 c-0.671,0.189-2.771,0.585-4.767-0.358c-1.233-0.556-2.155-1.515-2.839-2.308c-0.68-0.796-1.047-1.463-1.047-1.463 s2.468-1.13,4.977-0.046c2.059,0.926,3.423,3.141,3.781,3.875c-0.557-0.341-1.229-0.738-1.978-1.105 c-1.863-0.897-3.401-1.357-3.591-1.413C1118.265,128.589,1119.697,129.443,1121.55,130.344"></path> <path clip-path="url(#SVGID_2_)" fill="#FFFFFF" d="M1127.222,136.825c-0.308,0.795-0.622,1.498-0.898,2.066 c0.627-0.287,2.523-1.291,3.336-3.508c0.517-1.344,0.417-2.836,0.267-4.015c-0.153-1.182-0.48-1.998-0.48-1.998 s-0.612,0.297-1.323,0.927c-0.706,0.627-1.524,1.589-1.983,2.913c-0.713,2.19-0.267,4.711-0.092,5.516 c0.201-0.615,0.465-1.364,0.771-2.16c0.776-1.962,1.44-3.478,1.548-3.669C1128.314,133.115,1128.002,134.86,1127.222,136.825"></path> <path clip-path="url(#SVGID_2_)" fill="#FFFFFF" d="M1123.985,137.888c0.706,0.436,1.373,0.819,1.932,1.127 c-0.68,0.125-2.834,0.335-4.726-0.787c-1.12-0.681-2.045-1.685-2.615-2.548c-0.57-0.863-0.912-1.546-0.912-1.546 s0.643-0.221,1.586-0.29c0.951-0.069,2.195,0.023,3.368,0.687c2.002,1.094,3.108,3.442,3.429,4.195 c-0.527-0.39-1.179-0.839-1.883-1.275c-1.719-1.08-3.282-1.65-3.449-1.728C1120.869,135.849,1122.274,136.806,1123.985,137.888"></path> <path clip-path="url(#SVGID_2_)" fill="#FFFFFF" d="M1129.599,144.792c-0.376,0.762-0.751,1.431-1.077,1.969 c0.652-0.226,2.632-1.046,3.635-3.176c0.625-1.288,0.718-2.8,0.636-3.98c-0.066-1.184-0.273-2.043-0.273-2.043 s-2.542,0.982-3.662,3.528c-0.884,2.107-0.729,4.672-0.595,5.482c0.254-0.593,0.582-1.313,0.957-2.076 c0.942-1.879,1.792-3.34,1.89-3.513C1131.065,141.187,1130.541,142.912,1129.599,144.792"></path> <path clip-path="url(#SVGID_2_)" fill="#FFFFFF" d="M1126.276,145.547c0.667,0.498,1.299,0.941,1.831,1.299 c-0.69,0.06-2.857,0.067-4.649-1.222c-1.062-0.78-1.838-1.873-2.365-2.774c-0.512-0.905-0.743-1.625-0.743-1.625 s2.629-0.67,4.879,0.854c1.921,1.265,2.748,3.722,3.032,4.493c-0.493-0.437-1.103-0.945-1.769-1.445 c-1.621-1.233-3.079-1.954-3.266-2.039C1123.4,143.219,1124.654,144.313,1126.276,145.547"></path> <path clip-path="url(#SVGID_2_)" fill="#FFFFFF" d="M1131.076,152.928c-0.448,0.722-0.875,1.35-1.263,1.857 c0.683-0.164,2.723-0.788,3.923-2.812c0.735-1.222,1-2.725,1.017-3.906c0.039-1.187-0.09-2.062-0.09-2.062s-2.623,0.737-3.97,3.164 c-1.094,2.018-1.173,4.582-1.116,5.401c0.31-0.565,0.703-1.25,1.147-1.973c1.107-1.778,2.118-3.158,2.225-3.319 C1132.892,149.476,1132.178,151.15,1131.076,152.928"></path> <path clip-path="url(#SVGID_2_)" fill="#FFFFFF" d="M1127.696,153.359c0.615,0.561,1.211,1.062,1.695,1.471 c-0.681-0.009-2.849-0.211-4.509-1.664c-0.995-0.874-1.635-2.041-2.086-2.983c-0.43-0.946-0.595-1.684-0.595-1.684 s2.681-0.419,4.786,1.309c1.777,1.444,2.38,3.967,2.589,4.762c-0.45-0.482-1.01-1.046-1.627-1.606 c-1.508-1.381-2.861-2.242-3.047-2.343C1125.066,150.768,1126.184,151.979,1127.696,153.359"></path> <path clip-path="url(#SVGID_2_)" fill="#FFFFFF" d="M1131.978,161.089c-0.514,0.677-1.011,1.261-1.435,1.727 c0.683-0.097,2.784-0.521,4.177-2.42c0.858-1.144,1.259-2.614,1.389-3.79c0.155-1.178,0.11-2.061,0.11-2.061 s-2.681,0.482-4.255,2.767c-1.271,1.9-1.618,4.447-1.64,5.267c0.363-0.533,0.823-1.176,1.338-1.853 c1.283-1.663,2.415-2.937,2.535-3.087C1134.122,157.831,1133.258,159.426,1131.978,161.089"></path> <path clip-path="url(#SVGID_2_)" fill="#FFFFFF" d="M1128.572,161.192c0.56,0.617,1.094,1.173,1.547,1.628 c-0.688-0.075-2.815-0.486-4.326-2.093c-0.897-0.968-1.429-2.19-1.787-3.171c-0.336-0.981-0.431-1.731-0.431-1.731 s2.709-0.159,4.639,1.765c1.642,1.607,1.977,4.178,2.109,4.988c-0.397-0.522-0.9-1.138-1.459-1.756 c-1.355-1.521-2.631-2.508-2.806-2.627C1126.207,158.357,1127.211,159.67,1128.572,161.192"></path> <path clip-path="url(#SVGID_2_)" fill="#FFFFFF" d="M1132.197,169.459c-0.583,0.623-1.139,1.157-1.608,1.579 c0.689-0.03,2.825-0.252,4.408-2.005c0.985-1.054,1.467-2.48,1.741-3.635c0.272-1.158,0.318-2.04,0.318-2.04 s-2.715,0.219-4.516,2.341c-1.444,1.77-2.025,4.27-2.146,5.084c0.418-0.496,0.942-1.092,1.524-1.715 c1.463-1.531,2.651-2.691,2.812-2.828C1134.618,166.423,1133.66,167.929,1132.197,169.459"></path> <path clip-path="url(#SVGID_2_)" fill="#FFFFFF" d="M1128.797,169.235c0.491,0.668,0.965,1.273,1.369,1.767 c-0.677-0.139-2.753-0.749-4.088-2.495c-0.778-1.051-1.246-2.322-1.48-3.332c-0.231-1.01-0.249-1.766-0.249-1.766 s2.712,0.104,4.433,2.205c1.484,1.76,1.581,4.351,1.613,5.169c-0.344-0.56-0.777-1.22-1.269-1.888 c-1.18-1.644-2.413-2.753-2.55-2.887C1126.691,166.184,1127.618,167.591,1128.797,169.235"></path> <path clip-path="url(#SVGID_2_)" fill="#FFFFFF" d="M1112.572,109.55c0.568,0.713,1.094,1.372,1.528,1.918 c-0.739-0.268-2.948-1.191-4.49-3.043c-0.937-1.117-1.457-2.412-1.785-3.426c-0.32-1.015-0.433-1.766-0.433-1.766 s0.754,0.099,1.771,0.519c1.018,0.414,2.279,1.163,3.264,2.339c1.643,1.974,1.879,4.455,1.915,5.216 c-0.388-0.582-0.857-1.302-1.43-2.021c-1.374-1.794-2.729-3.052-2.889-3.206C1110.148,106.269,1111.208,107.766,1112.572,109.55"></path> <path clip-path="url(#SVGID_2_)" fill="#FFFFFF" d="M926.711,97.238c-0.154-0.135-0.174-0.356-0.039-0.509 c0.124-0.154,0.346-0.173,0.499-0.048c0.153,0.134,0.173,0.355,0.048,0.509c-0.067,0.086-0.173,0.134-0.278,0.134 C926.863,97.324,926.776,97.296,926.711,97.238 M927.959,95.77c-0.087-0.068-0.125-0.163-0.125-0.259 c0-0.087,0.028-0.173,0.086-0.25c0.134-0.144,0.354-0.163,0.509-0.029c0.077,0.067,0.125,0.163,0.125,0.26 c0,0.086-0.029,0.172-0.087,0.249c-0.076,0.077-0.173,0.125-0.278,0.125C928.111,95.865,928.025,95.836,927.959,95.77 M929.226,94.329c-0.077-0.068-0.124-0.163-0.124-0.26c0-0.086,0.028-0.172,0.095-0.249c0.136-0.144,0.365-0.154,0.51-0.029 c0.076,0.077,0.114,0.173,0.114,0.269c0,0.086-0.027,0.173-0.086,0.24c-0.077,0.086-0.173,0.124-0.269,0.124 C929.38,94.424,929.293,94.396,929.226,94.329 M930.513,92.908c-0.077-0.068-0.115-0.164-0.115-0.269 c0-0.087,0.038-0.173,0.095-0.241c0.145-0.143,0.365-0.153,0.51-0.019c0.077,0.077,0.115,0.173,0.115,0.269 c0,0.087-0.028,0.173-0.096,0.24c-0.067,0.077-0.164,0.115-0.259,0.115C930.676,93.003,930.589,92.975,930.513,92.908 M931.828,91.515c-0.067-0.077-0.105-0.163-0.105-0.259c0-0.086,0.029-0.182,0.095-0.249c0.146-0.145,0.366-0.154,0.511-0.01 c0.075,0.067,0.114,0.153,0.114,0.25c0,0.086-0.028,0.182-0.105,0.249v0.01c-0.067,0.067-0.163,0.105-0.259,0.105 C931.99,91.611,931.904,91.583,931.828,91.515 M933.172,90.133c-0.077-0.067-0.105-0.164-0.105-0.25 c0-0.096,0.028-0.192,0.105-0.26c0.135-0.143,0.365-0.143,0.51,0c0.067,0.068,0.105,0.164,0.105,0.25 c0,0.096-0.038,0.193-0.105,0.26c-0.077,0.067-0.164,0.105-0.26,0.105C933.336,90.238,933.238,90.2,933.172,90.133 M934.525,88.779 c-0.066-0.067-0.096-0.164-0.096-0.26c0-0.086,0.039-0.182,0.105-0.249c0.145-0.135,0.375-0.135,0.51,0.009 c0.066,0.068,0.104,0.163,0.104,0.25c0,0.096-0.038,0.192-0.114,0.259c-0.067,0.068-0.153,0.097-0.25,0.097 C934.698,88.885,934.603,88.856,934.525,88.779 M935.919,87.444c-0.068-0.067-0.106-0.154-0.106-0.24 c0-0.096,0.038-0.192,0.115-0.269c0.144-0.134,0.375-0.125,0.509,0.019c0.067,0.067,0.096,0.154,0.096,0.24 c0,0.096-0.028,0.193-0.105,0.269c-0.076,0.068-0.163,0.096-0.249,0.096C936.082,87.559,935.985,87.521,935.919,87.444 M937.319,86.138c-0.066-0.067-0.095-0.153-0.095-0.24c0-0.096,0.038-0.202,0.114-0.269c0.153-0.134,0.375-0.124,0.51,0.029 c0.067,0.067,0.096,0.154,0.096,0.24c0,0.096-0.039,0.192-0.115,0.269c-0.067,0.058-0.153,0.086-0.24,0.086 C937.483,86.253,937.388,86.215,937.319,86.138 M938.751,84.853c-0.067-0.067-0.097-0.154-0.097-0.241 c0-0.096,0.049-0.192,0.125-0.269c0.145-0.124,0.374-0.114,0.51,0.039c0.058,0.067,0.086,0.154,0.086,0.24 c0,0.096-0.039,0.192-0.115,0.269c-0.077,0.058-0.163,0.086-0.24,0.086C938.914,84.976,938.817,84.938,938.751,84.853 M940.19,83.594c-0.057-0.067-0.077-0.144-0.086-0.231c0-0.106,0.048-0.202,0.134-0.278c0.146-0.125,0.375-0.106,0.511,0.038 c0.047,0.067,0.075,0.154,0.075,0.231c0.011,0.105-0.037,0.211-0.125,0.278c-0.066,0.058-0.144,0.086-0.229,0.086 C940.363,83.718,940.268,83.68,940.19,83.594 M941.66,82.355c-0.049-0.067-0.076-0.144-0.076-0.23c0-0.106,0.048-0.202,0.134-0.279 c0.144-0.125,0.374-0.096,0.499,0.058c0.058,0.067,0.087,0.144,0.087,0.221c0,0.105-0.048,0.211-0.135,0.278 c-0.066,0.057-0.145,0.087-0.23,0.087C941.833,82.49,941.736,82.441,941.66,82.355 M943.148,81.146 c-0.048-0.067-0.077-0.153-0.077-0.23c0.01-0.106,0.049-0.202,0.145-0.279c0.154-0.124,0.374-0.096,0.499,0.058 c0.058,0.067,0.077,0.154,0.077,0.231c0,0.105-0.048,0.211-0.135,0.278c-0.067,0.048-0.144,0.076-0.221,0.076 C943.331,81.279,943.226,81.232,943.148,81.146 M944.666,79.955c-0.049-0.058-0.077-0.135-0.077-0.211 c0-0.106,0.048-0.221,0.135-0.289h0.009c0.154-0.125,0.374-0.096,0.499,0.068c0.048,0.057,0.077,0.134,0.077,0.211 c0,0.105-0.048,0.221-0.143,0.288c-0.068,0.048-0.146,0.076-0.223,0.076C944.838,80.098,944.732,80.051,944.666,79.955 M946.191,78.793c-0.047-0.058-0.076-0.135-0.076-0.212c0-0.105,0.058-0.22,0.154-0.288c0.153-0.115,0.383-0.086,0.499,0.077 c0.047,0.058,0.067,0.135,0.067,0.211c0,0.116-0.048,0.222-0.145,0.289c-0.058,0.047-0.135,0.076-0.211,0.076 C946.365,78.946,946.26,78.889,946.191,78.793 M947.737,77.66c-0.048-0.068-0.066-0.144-0.066-0.211 c0-0.116,0.058-0.221,0.153-0.289c0.154-0.115,0.385-0.076,0.499,0.077c0.049,0.068,0.068,0.144,0.068,0.221 c0,0.106-0.058,0.221-0.154,0.288c-0.058,0.048-0.134,0.067-0.211,0.067C947.921,77.813,947.806,77.756,947.737,77.66 M949.304,76.546c-0.039-0.058-0.058-0.125-0.068-0.192c0-0.116,0.059-0.23,0.163-0.307c0.164-0.106,0.385-0.068,0.5,0.096 c0.038,0.057,0.059,0.134,0.059,0.201c0.009,0.115-0.049,0.231-0.154,0.298c-0.057,0.048-0.134,0.067-0.202,0.067 C949.485,76.709,949.371,76.652,949.304,76.546 M950.888,75.471c-0.038-0.068-0.058-0.135-0.058-0.202 c0-0.115,0.058-0.231,0.164-0.298c0.162-0.115,0.383-0.067,0.498,0.096c0.038,0.067,0.058,0.135,0.058,0.202 c0,0.115-0.058,0.23-0.163,0.298c-0.057,0.038-0.125,0.057-0.201,0.057C951.069,75.625,950.955,75.576,950.888,75.471 M952.49,74.414c-0.037-0.058-0.057-0.125-0.057-0.192c0-0.115,0.057-0.24,0.163-0.307c0.173-0.106,0.394-0.058,0.499,0.105 c0.039,0.068,0.058,0.135,0.058,0.202c0,0.115-0.058,0.231-0.163,0.298c-0.058,0.038-0.125,0.057-0.192,0.057 C952.674,74.577,952.559,74.521,952.49,74.414 M954.113,73.377c-0.037-0.057-0.057-0.115-0.057-0.182 c0-0.125,0.057-0.24,0.173-0.307c0.163-0.106,0.394-0.058,0.499,0.115c0.028,0.057,0.047,0.125,0.047,0.182 c0,0.125-0.057,0.24-0.172,0.317c-0.058,0.029-0.125,0.048-0.183,0.048C954.296,73.55,954.181,73.492,954.113,73.377 M955.747,72.378c-0.03-0.057-0.05-0.124-0.05-0.191c0-0.116,0.068-0.24,0.174-0.298c0.173-0.106,0.394-0.048,0.5,0.125 c0.027,0.057,0.048,0.115,0.048,0.182c0,0.125-0.067,0.24-0.173,0.308c-0.058,0.038-0.125,0.048-0.184,0.048 C955.938,72.552,955.813,72.494,955.747,72.378 M957.397,71.399c-0.028-0.048-0.039-0.105-0.048-0.163 c0-0.134,0.067-0.259,0.182-0.326c0.175-0.096,0.395-0.039,0.5,0.134c0.029,0.058,0.038,0.115,0.049,0.173 c0,0.125-0.067,0.25-0.184,0.317c-0.058,0.038-0.124,0.048-0.182,0.048C957.59,71.583,957.465,71.514,957.397,71.399 M959.068,70.458c-0.028-0.057-0.039-0.115-0.039-0.172c0-0.125,0.067-0.25,0.184-0.317c0.173-0.096,0.394-0.039,0.488,0.144 c0.03,0.048,0.05,0.105,0.05,0.163c0,0.134-0.068,0.259-0.193,0.327c-0.048,0.028-0.115,0.038-0.172,0.038 C959.261,70.641,959.136,70.573,959.068,70.458 M960.758,69.536c-0.028-0.057-0.047-0.114-0.038-0.172 c0-0.125,0.068-0.25,0.182-0.308v-0.009c0.184-0.086,0.395-0.019,0.491,0.154c0.028,0.057,0.047,0.115,0.047,0.172 c-0.009,0.125-0.077,0.25-0.201,0.317c-0.048,0.029-0.105,0.039-0.162,0.039C960.951,69.729,960.826,69.662,960.758,69.536 M962.458,68.645c-0.028-0.049-0.039-0.096-0.039-0.154c-0.009-0.135,0.067-0.259,0.192-0.326c0.183-0.087,0.394-0.02,0.489,0.153 c0.021,0.058,0.039,0.106,0.039,0.164c0,0.124-0.067,0.258-0.202,0.326c-0.048,0.028-0.104,0.038-0.163,0.038 C962.649,68.845,962.516,68.769,962.458,68.645 M964.177,67.789c-0.029-0.058-0.039-0.105-0.039-0.163 c0-0.135,0.068-0.259,0.202-0.317c0.173-0.096,0.394-0.019,0.479,0.163c0.02,0.048,0.038,0.106,0.038,0.154 c0,0.134-0.076,0.259-0.201,0.326c-0.058,0.019-0.105,0.039-0.162,0.039C964.358,67.991,964.233,67.914,964.177,67.789 M965.904,66.954c-0.027-0.048-0.037-0.106-0.037-0.154c0-0.134,0.075-0.269,0.211-0.327c0.173-0.086,0.394-0.009,0.479,0.173 c0.019,0.048,0.029,0.106,0.029,0.154c0,0.134-0.077,0.269-0.211,0.327c-0.048,0.019-0.097,0.038-0.145,0.038 C966.088,67.166,965.963,67.088,965.904,66.954 M967.643,66.147c-0.019-0.048-0.029-0.086-0.029-0.134 c0-0.144,0.077-0.279,0.211-0.337c0.184-0.086,0.395,0,0.481,0.183c0.019,0.038,0.029,0.086,0.029,0.134 c0,0.144-0.077,0.279-0.212,0.337c-0.049,0.019-0.105,0.028-0.153,0.028C967.836,66.358,967.701,66.282,967.643,66.147 M969.399,65.379c-0.019-0.048-0.027-0.096-0.027-0.144c0-0.144,0.076-0.269,0.22-0.336c0.183-0.077,0.394,0.009,0.471,0.192 c0.02,0.048,0.029,0.096,0.029,0.144c0,0.134-0.087,0.269-0.221,0.327v0.009c-0.049,0.019-0.097,0.029-0.145,0.029 C969.592,65.6,969.458,65.513,969.399,65.379 M971.167,64.63c-0.02-0.048-0.029-0.096-0.029-0.135 c0.01-0.144,0.087-0.278,0.231-0.335c0.182-0.077,0.393,0.019,0.47,0.201c0.019,0.048,0.019,0.096,0.019,0.144 c0,0.135-0.086,0.269-0.22,0.327c-0.048,0.019-0.087,0.019-0.135,0.019C971.358,64.851,971.225,64.774,971.167,64.63 M972.953,63.92c-0.02-0.049-0.029-0.087-0.029-0.126c0-0.143,0.087-0.287,0.23-0.345c0.183-0.067,0.394,0.019,0.471,0.211 c0.01,0.038,0.019,0.077,0.019,0.115c0,0.154-0.086,0.289-0.229,0.346c-0.038,0.019-0.088,0.029-0.125,0.029 C973.145,64.15,973.001,64.064,972.953,63.92 M974.738,63.229c-0.009-0.038-0.019-0.077-0.019-0.115 c0-0.153,0.086-0.288,0.24-0.346h-0.011c0.192-0.067,0.395,0.029,0.471,0.221c0.011,0.039,0.02,0.077,0.02,0.115 c0,0.154-0.086,0.288-0.24,0.346c-0.039,0.009-0.076,0.019-0.125,0.019C974.931,63.468,974.796,63.382,974.738,63.229 M976.544,62.575c-0.009-0.038-0.02-0.077-0.02-0.125c0-0.144,0.097-0.278,0.24-0.326c0.192-0.068,0.394,0.029,0.461,0.221 c0.02,0.038,0.02,0.077,0.02,0.115c0,0.153-0.097,0.288-0.24,0.336c-0.039,0.019-0.077,0.019-0.115,0.019 C976.735,62.815,976.602,62.729,976.544,62.575"></path> <path clip-path="url(#SVGID_2_)" fill="#FFFFFF" d="M926.94,97.474c-0.118,0-0.237-0.044-0.328-0.122l-0.001-0.001 c-0.106-0.093-0.17-0.219-0.178-0.356c-0.01-0.132,0.036-0.262,0.126-0.365c0.08-0.099,0.2-0.164,0.332-0.178 c0.136-0.014,0.268,0.026,0.374,0.113c0.217,0.189,0.246,0.504,0.069,0.72C927.243,97.403,927.096,97.474,926.94,97.474 M926.809,97.125c0.084,0.072,0.227,0.055,0.293-0.027c0.076-0.094,0.063-0.224-0.029-0.304c-0.041-0.033-0.094-0.049-0.15-0.044 c-0.052,0.006-0.1,0.032-0.134,0.074c-0.041,0.047-0.06,0.098-0.056,0.152C926.735,97.032,926.764,97.085,926.809,97.125 M928.188,96.015c-0.121,0-0.241-0.049-0.33-0.133c-0.111-0.091-0.175-0.226-0.175-0.372c0-0.121,0.041-0.238,0.117-0.34 c0.201-0.218,0.517-0.236,0.727-0.052c0.111,0.097,0.176,0.236,0.176,0.373c0,0.121-0.04,0.238-0.117,0.34 C928.464,95.955,928.328,96.015,928.188,96.015 M928.189,95.291c-0.058,0-0.115,0.025-0.159,0.072 c-0.027,0.037-0.047,0.093-0.047,0.148c0,0.04,0.012,0.097,0.067,0.141l0.014,0.012c0.047,0.047,0.102,0.052,0.124,0.052 c0.076,0,0.136-0.044,0.172-0.081c0.024-0.033,0.043-0.088,0.043-0.143c0-0.051-0.028-0.107-0.073-0.147 C928.289,95.308,928.239,95.291,928.189,95.291 M929.467,94.574c-0.133,0-0.255-0.048-0.344-0.136 c-0.108-0.098-0.172-0.232-0.172-0.368c0-0.129,0.046-0.249,0.132-0.349c0.192-0.205,0.515-0.223,0.722-0.043 c0.109,0.109,0.167,0.242,0.167,0.382c0,0.125-0.044,0.245-0.123,0.337C929.746,94.512,929.611,94.574,929.467,94.574 M929.472,93.854c-0.061,0-0.122,0.023-0.165,0.069c-0.036,0.041-0.056,0.091-0.056,0.148c0,0.05,0.028,0.106,0.074,0.146 l0.007,0.007c0.111,0.111,0.219,0.057,0.291-0.023c0.03-0.036,0.048-0.086,0.048-0.14c0-0.06-0.024-0.116-0.07-0.163 C929.565,93.868,929.52,93.854,929.472,93.854 M930.763,93.153c-0.13,0-0.249-0.046-0.349-0.133 c-0.107-0.093-0.167-0.229-0.167-0.381c0-0.119,0.047-0.238,0.131-0.338c0.209-0.209,0.524-0.219,0.727-0.032 c0.105,0.107,0.163,0.24,0.163,0.379c0,0.133-0.051,0.256-0.14,0.346C931.041,93.093,930.906,93.153,930.763,93.153 M930.764,92.434c-0.059,0-0.117,0.024-0.164,0.071c-0.03,0.035-0.053,0.088-0.053,0.134c0,0.045,0.012,0.109,0.064,0.156 c0.091,0.079,0.226,0.075,0.298-0.006c0.04-0.041,0.058-0.086,0.058-0.141c0-0.06-0.024-0.116-0.071-0.163 C930.859,92.451,930.813,92.434,930.764,92.434 M932.077,91.761c-0.127,0-0.248-0.046-0.348-0.133l-0.016-0.014 c-0.094-0.109-0.142-0.229-0.142-0.358c0-0.137,0.051-0.267,0.14-0.355c0.204-0.205,0.521-0.21,0.722-0.01 c0.1,0.087,0.158,0.216,0.158,0.356c0,0.116-0.037,0.225-0.105,0.309v0.002l-0.044,0.054 C932.349,91.708,932.214,91.761,932.077,91.761 M931.935,91.409c0.078,0.064,0.185,0.067,0.263,0.018l0.041-0.044 c0.049-0.043,0.054-0.11,0.054-0.136c0-0.055-0.021-0.1-0.063-0.138c-0.091-0.089-0.216-0.085-0.306,0.004 c-0.031,0.032-0.052,0.086-0.052,0.143C931.872,91.308,931.894,91.358,931.935,91.409 M933.422,90.388 c-0.128,0-0.259-0.054-0.353-0.146c-0.098-0.088-0.153-0.215-0.153-0.359c0-0.154,0.056-0.283,0.157-0.372 c0.08-0.088,0.205-0.143,0.341-0.145c0.152-0.004,0.274,0.052,0.373,0.151c0.094,0.095,0.15,0.228,0.15,0.356 c0,0.137-0.056,0.271-0.15,0.366C933.671,90.34,933.551,90.388,933.422,90.388 M933.423,89.667c-0.063,0-0.104,0.021-0.141,0.06 c-0.047,0.042-0.065,0.091-0.065,0.157c0,0.033,0.008,0.096,0.054,0.136l0.008,0.008c0.078,0.077,0.204,0.08,0.305-0.008 c0.031-0.031,0.055-0.088,0.055-0.146c0-0.048-0.025-0.106-0.063-0.144C933.534,89.688,933.479,89.667,933.423,89.667 M934.785,89.035c-0.139,0-0.268-0.053-0.365-0.15c-0.09-0.09-0.14-0.22-0.14-0.366c0-0.129,0.055-0.261,0.149-0.355 c0.212-0.197,0.534-0.19,0.725,0.013c0.09,0.091,0.146,0.224,0.146,0.352c0,0.143-0.062,0.279-0.166,0.372 C935.048,88.986,934.926,89.035,934.785,89.035 M934.787,88.321c-0.054,0-0.106,0.019-0.148,0.059 c-0.034,0.033-0.059,0.091-0.059,0.139c0,0.038,0.006,0.108,0.052,0.153v0.001c0.052,0.051,0.112,0.062,0.153,0.062 c0.063,0,0.108-0.017,0.145-0.053c0.048-0.042,0.07-0.096,0.07-0.153c0-0.049-0.023-0.106-0.062-0.144 C934.898,88.342,934.844,88.321,934.787,88.321 M936.178,87.709c-0.142,0-0.276-0.059-0.368-0.162 c-0.096-0.096-0.146-0.217-0.146-0.343c0-0.139,0.057-0.273,0.159-0.375c0.104-0.096,0.231-0.142,0.37-0.139 c0.136,0.006,0.262,0.063,0.354,0.162c0.087,0.086,0.138,0.209,0.138,0.342c0,0.148-0.053,0.278-0.151,0.376 C936.428,87.663,936.307,87.709,936.178,87.709 M936.171,86.99c-0.053,0-0.103,0.019-0.141,0.055 c-0.043,0.043-0.068,0.099-0.068,0.159c0,0.046,0.023,0.095,0.063,0.134l0.006,0.007c0.072,0.081,0.207,0.085,0.298,0.006 c0.035-0.035,0.055-0.088,0.055-0.157c0-0.037-0.009-0.091-0.052-0.133c-0.042-0.045-0.094-0.069-0.15-0.071 C936.178,86.99,936.174,86.99,936.171,86.99 M937.589,86.404c-0.15,0-0.284-0.058-0.379-0.163c-0.087-0.09-0.136-0.211-0.136-0.343 c0-0.147,0.063-0.29,0.166-0.381c0.216-0.19,0.532-0.172,0.721,0.042c0.084,0.084,0.134,0.207,0.134,0.339 c0,0.139-0.057,0.273-0.159,0.375C937.834,86.36,937.715,86.404,937.589,86.404 M937.58,85.687c-0.049,0-0.099,0.019-0.143,0.056 c-0.038,0.034-0.063,0.095-0.063,0.156c0,0.055,0.019,0.1,0.052,0.134l0.008,0.007c0.102,0.117,0.229,0.074,0.298,0.015 c0.038-0.039,0.063-0.097,0.063-0.156c0-0.037-0.009-0.09-0.052-0.134C937.696,85.712,937.639,85.687,937.58,85.687 M939.02,85.126 c-0.155,0-0.29-0.062-0.381-0.175c-0.086-0.09-0.135-0.21-0.135-0.339c0-0.133,0.061-0.266,0.169-0.375 c0.22-0.191,0.542-0.167,0.729,0.045c0.08,0.094,0.123,0.213,0.123,0.339c0,0.139-0.056,0.272-0.158,0.375 C939.249,85.085,939.132,85.126,939.02,85.126 M939.014,84.407c-0.05,0-0.098,0.016-0.137,0.049 c-0.043,0.044-0.072,0.104-0.072,0.156c0,0.037,0.009,0.09,0.052,0.134l0.013,0.014c0.06,0.077,0.187,0.095,0.3,0.01 c0.03-0.032,0.057-0.09,0.057-0.149c0-0.054-0.019-0.105-0.052-0.143C939.133,84.431,939.073,84.407,939.014,84.407 M940.47,83.868 c-0.154,0-0.288-0.06-0.391-0.175l-0.002-0.002c-0.089-0.104-0.112-0.221-0.121-0.312c-0.001-0.162,0.064-0.301,0.185-0.406 c0.205-0.178,0.525-0.156,0.718,0.048c0.079,0.108,0.117,0.224,0.117,0.333c0.013,0.142-0.058,0.299-0.185,0.397 C940.702,83.827,940.592,83.868,940.47,83.868 M940.305,83.495c0.077,0.087,0.203,0.103,0.298,0.023 c0.052-0.04,0.078-0.097,0.073-0.151c0-0.059-0.02-0.115-0.05-0.156c-0.067-0.072-0.206-0.084-0.289-0.013 c-0.054,0.049-0.083,0.104-0.083,0.165C940.262,83.42,940.275,83.462,940.305,83.495 M941.938,82.64 c-0.147,0-0.282-0.064-0.391-0.185l-0.01-0.013c-0.069-0.097-0.104-0.204-0.104-0.317c0-0.148,0.063-0.283,0.183-0.39 c0.1-0.086,0.229-0.127,0.359-0.115c0.139,0.012,0.269,0.081,0.356,0.189c0.078,0.091,0.12,0.201,0.12,0.316 c0,0.154-0.072,0.303-0.191,0.396C942.171,82.598,942.062,82.64,941.938,82.64 M941.777,82.261 c0.091,0.098,0.209,0.102,0.294,0.028c0.053-0.041,0.082-0.101,0.082-0.164c0-0.043-0.017-0.085-0.05-0.123 c-0.04-0.049-0.094-0.078-0.153-0.083c-0.053-0.005-0.099,0.01-0.135,0.041c-0.053,0.048-0.082,0.104-0.082,0.165 C941.733,82.173,941.748,82.218,941.777,82.261 M943.437,81.43c-0.15,0-0.295-0.068-0.4-0.185l-0.01-0.012 c-0.067-0.094-0.105-0.209-0.105-0.318c0.016-0.172,0.082-0.301,0.201-0.396c0.217-0.176,0.529-0.141,0.709,0.08 c0.091,0.106,0.11,0.236,0.11,0.326c0,0.154-0.071,0.302-0.192,0.396C943.648,81.395,943.541,81.43,943.437,81.43 M943.267,81.052 c0.079,0.084,0.194,0.107,0.304,0.029c0.043-0.034,0.072-0.093,0.072-0.156c0-0.032-0.006-0.092-0.041-0.133 c-0.076-0.094-0.204-0.111-0.291-0.039c-0.057,0.044-0.082,0.097-0.089,0.175C943.222,80.959,943.239,81.011,943.267,81.052 M944.944,80.249c-0.158,0-0.307-0.075-0.398-0.202c-0.067-0.085-0.107-0.194-0.107-0.302c0-0.159,0.074-0.315,0.192-0.407 l0.054-0.032c0.096-0.061,0.21-0.087,0.321-0.074c0.137,0.017,0.26,0.088,0.346,0.201c0.066,0.079,0.106,0.191,0.106,0.302 c0,0.163-0.079,0.32-0.207,0.41C945.156,80.212,945.049,80.249,944.944,80.249 M944.784,79.605 c-0.028,0.038-0.046,0.089-0.046,0.139c0,0.04,0.016,0.083,0.042,0.114l0.009,0.011c0.059,0.084,0.175,0.11,0.289,0.03 c0.049-0.034,0.081-0.099,0.081-0.165c0-0.041-0.016-0.084-0.042-0.115c-0.041-0.053-0.092-0.083-0.146-0.09 c-0.054-0.006-0.103,0.009-0.145,0.043L944.784,79.605z M946.48,79.097c-0.16,0-0.313-0.08-0.407-0.213 c-0.069-0.085-0.108-0.195-0.108-0.303c0-0.157,0.086-0.318,0.219-0.411c0.104-0.077,0.244-0.111,0.378-0.09 c0.134,0.021,0.251,0.094,0.33,0.204c0.059,0.071,0.094,0.177,0.094,0.297c0,0.169-0.075,0.319-0.208,0.412 C946.702,79.056,946.59,79.097,946.48,79.097 M946.481,78.375c-0.044,0-0.087,0.014-0.122,0.039 c-0.057,0.04-0.094,0.108-0.094,0.168c0,0.041,0.016,0.084,0.043,0.116l0.006,0.01c0.065,0.093,0.2,0.116,0.282,0.047 c0.074-0.053,0.09-0.123,0.09-0.173c0-0.048-0.013-0.089-0.034-0.115c-0.037-0.053-0.084-0.081-0.138-0.09 C946.503,78.375,946.492,78.375,946.481,78.375 M948.026,77.963c-0.157,0-0.318-0.085-0.411-0.217 c-0.061-0.086-0.094-0.191-0.094-0.297c0-0.165,0.079-0.315,0.218-0.412c0.214-0.16,0.538-0.111,0.705,0.11 c0.063,0.091,0.097,0.197,0.097,0.311c0,0.159-0.083,0.316-0.217,0.411C948.253,77.928,948.147,77.963,948.026,77.963 M948.031,77.244c-0.042,0-0.083,0.011-0.116,0.036c-0.061,0.043-0.094,0.104-0.094,0.169c0,0.025,0.005,0.076,0.039,0.124 c0.067,0.096,0.224,0.105,0.282,0.058c0.062-0.045,0.099-0.113,0.099-0.173c0-0.052-0.013-0.097-0.04-0.134 C948.163,77.272,948.097,77.244,948.031,77.244 M949.602,76.859c-0.17,0-0.332-0.088-0.423-0.231 c-0.047-0.069-0.076-0.152-0.092-0.253c-0.001-0.187,0.083-0.347,0.225-0.449c0.239-0.157,0.549-0.098,0.71,0.131 c0.055,0.082,0.085,0.185,0.085,0.287c0.014,0.16-0.071,0.328-0.224,0.425C949.792,76.846,949.666,76.859,949.602,76.859 M949.601,76.137c-0.041,0-0.082,0.012-0.12,0.035c-0.057,0.042-0.094,0.112-0.094,0.182c0.007,0.034,0.021,0.077,0.042,0.109 l0.002,0.003c0.059,0.092,0.212,0.114,0.275,0.061c0.073-0.048,0.106-0.109,0.102-0.17c-0.001-0.054-0.015-0.102-0.034-0.131 C949.733,76.168,949.667,76.137,949.601,76.137 M951.186,75.774c-0.178,0-0.335-0.083-0.424-0.223l-0.004-0.006 c-0.052-0.09-0.077-0.183-0.077-0.276c0-0.17,0.089-0.333,0.232-0.424c0.107-0.076,0.244-0.104,0.377-0.077 c0.131,0.026,0.246,0.102,0.325,0.213c0.059,0.101,0.085,0.194,0.085,0.288c0,0.172-0.087,0.331-0.231,0.424 C951.389,75.746,951.291,75.774,951.186,75.774 M951.017,75.394c0.048,0.073,0.134,0.081,0.169,0.081 c0.047,0,0.085-0.01,0.118-0.032c0.061-0.039,0.097-0.104,0.097-0.173c0-0.041-0.012-0.083-0.038-0.127 c-0.027-0.036-0.075-0.069-0.131-0.08c-0.056-0.011-0.107,0.001-0.151,0.032c-0.063,0.041-0.101,0.106-0.101,0.175 C950.979,75.308,950.992,75.35,951.017,75.394 M952.798,74.728c-0.178,0-0.34-0.086-0.433-0.231 c-0.053-0.082-0.082-0.176-0.082-0.273c0-0.176,0.089-0.343,0.232-0.434c0.246-0.15,0.555-0.084,0.707,0.15 c0.055,0.097,0.081,0.19,0.081,0.284c0,0.17-0.09,0.332-0.232,0.423C952.992,74.699,952.897,74.728,952.798,74.728 M952.796,74.008 c-0.041,0-0.083,0.011-0.122,0.035c-0.053,0.034-0.091,0.107-0.091,0.18c0,0.038,0.012,0.076,0.033,0.109l0.001,0.001 c0.059,0.091,0.197,0.124,0.29,0.062c0.06-0.038,0.096-0.104,0.096-0.172c0-0.042-0.012-0.084-0.038-0.128 C952.93,74.039,952.865,74.008,952.796,74.008 M954.421,73.7c-0.185,0-0.343-0.089-0.435-0.243c-0.053-0.083-0.08-0.168-0.08-0.262 c0-0.186,0.09-0.345,0.247-0.437c0.107-0.069,0.251-0.093,0.381-0.063c0.136,0.031,0.25,0.112,0.322,0.23 c0.047,0.091,0.069,0.182,0.069,0.26c0,0.18-0.088,0.341-0.238,0.442C954.588,73.678,954.5,73.7,954.421,73.7 M954.42,72.982 c-0.039,0-0.078,0.011-0.108,0.032c-0.092,0.053-0.105,0.136-0.105,0.181c0,0.036,0.009,0.064,0.032,0.099l0.006,0.008 c0.049,0.085,0.132,0.098,0.177,0.098c0.031,0,0.076-0.012,0.115-0.032c0.053-0.037,0.09-0.103,0.09-0.183 c0-0.031-0.013-0.076-0.031-0.115c-0.023-0.036-0.07-0.07-0.126-0.082C954.452,72.984,954.437,72.982,954.42,72.982 M956.063,72.702c-0.189,0-0.355-0.093-0.446-0.248l-0.003-0.007c-0.043-0.083-0.065-0.173-0.065-0.26 c0-0.175,0.101-0.348,0.251-0.429c0.234-0.144,0.551-0.066,0.699,0.178c0.05,0.098,0.07,0.177,0.07,0.26 c0,0.175-0.09,0.337-0.241,0.434C956.256,72.677,956.166,72.702,956.063,72.702 M955.878,72.306 c0.057,0.093,0.222,0.115,0.284,0.073c0.067-0.043,0.106-0.111,0.106-0.183c0-0.036-0.011-0.07-0.032-0.115 c-0.058-0.093-0.189-0.125-0.287-0.064c-0.06,0.033-0.101,0.104-0.101,0.17C955.849,72.225,955.858,72.268,955.878,72.306 M957.714,71.732c-0.182,0-0.353-0.098-0.445-0.257c-0.044-0.073-0.057-0.152-0.066-0.215c-0.002-0.213,0.096-0.388,0.255-0.48 c0.248-0.138,0.556-0.055,0.702,0.186c0.046,0.091,0.058,0.166,0.068,0.227c0.002,0.207-0.098,0.379-0.255,0.47 C957.907,71.708,957.817,71.732,957.714,71.732 M957.713,71.013c-0.037,0-0.073,0.009-0.108,0.028 c-0.063,0.037-0.104,0.112-0.104,0.195c0.004,0.016,0.012,0.062,0.026,0.086l0.001,0.001c0.06,0.103,0.222,0.129,0.286,0.086 c0.074-0.043,0.116-0.117,0.116-0.192c-0.008-0.031-0.015-0.07-0.032-0.106C957.859,71.049,957.788,71.013,957.713,71.013 M959.386,70.792c-0.184,0-0.354-0.099-0.447-0.257l-0.003-0.007c-0.037-0.073-0.056-0.152-0.056-0.241 c0-0.184,0.1-0.355,0.258-0.447c0.123-0.068,0.265-0.084,0.396-0.045c0.13,0.039,0.236,0.127,0.3,0.249 c0.042,0.068,0.066,0.151,0.066,0.233c0,0.195-0.102,0.367-0.271,0.459C959.553,70.781,959.453,70.792,959.386,70.792 M959.2,70.386c0.063,0.104,0.244,0.11,0.281,0.088c0.078-0.042,0.119-0.113,0.119-0.198c0-0.027-0.011-0.057-0.027-0.086 c-0.03-0.057-0.073-0.093-0.125-0.109c-0.056-0.016-0.113-0.009-0.163,0.019c-0.063,0.036-0.104,0.11-0.104,0.186 C959.181,70.326,959.187,70.358,959.2,70.386 M961.075,69.879c-0.186,0-0.358-0.104-0.449-0.271l-0.003-0.005 c-0.033-0.068-0.068-0.159-0.051-0.264c-0.002-0.133,0.067-0.273,0.18-0.363v-0.015l0.086-0.05c0.256-0.12,0.551-0.027,0.686,0.217 c0.046,0.092,0.066,0.171,0.066,0.245c-0.015,0.199-0.119,0.363-0.279,0.449C961.249,69.858,961.168,69.879,961.075,69.879 M960.892,69.467c0.057,0.103,0.215,0.128,0.27,0.094c0.077-0.041,0.123-0.114,0.13-0.199c-0.001-0.016-0.012-0.051-0.033-0.095 c-0.049-0.086-0.153-0.127-0.252-0.099l-0.036,0.022c-0.06,0.03-0.1,0.1-0.1,0.174C960.865,69.403,960.873,69.43,960.892,69.467 M962.774,68.995c-0.189,0-0.368-0.113-0.449-0.282c-0.038-0.067-0.056-0.138-0.056-0.223c-0.014-0.182,0.091-0.361,0.271-0.458 c0.263-0.125,0.557-0.032,0.692,0.212l0.017,0.043c0.02,0.055,0.04,0.117,0.04,0.194c0,0.196-0.108,0.372-0.284,0.46 C962.948,68.975,962.868,68.995,962.774,68.995 M962.777,68.276c-0.033,0-0.068,0.007-0.102,0.023 c-0.068,0.037-0.112,0.108-0.107,0.181c0.001,0.049,0.008,0.069,0.019,0.088l0.008,0.013c0.055,0.119,0.217,0.127,0.266,0.097 c0.098-0.049,0.129-0.136,0.129-0.197c0-0.025-0.009-0.052-0.024-0.097C962.929,68.316,962.855,68.276,962.777,68.276 M964.493,68.141c-0.194,0-0.371-0.113-0.452-0.287c-0.037-0.076-0.053-0.146-0.053-0.228c0-0.203,0.112-0.377,0.292-0.455 c0.104-0.058,0.24-0.072,0.372-0.03c0.133,0.043,0.243,0.14,0.304,0.267c0.037,0.094,0.052,0.158,0.052,0.218 c0,0.19-0.107,0.366-0.28,0.458l-0.045,0.018C964.629,68.12,964.568,68.141,964.493,68.141 M964.5,67.417 c-0.029,0-0.061,0.008-0.088,0.023c-0.114,0.05-0.124,0.146-0.124,0.186c0,0.037,0.006,0.062,0.023,0.097l0.001,0.003 c0.033,0.07,0.104,0.115,0.181,0.115c0.024,0,0.049-0.009,0.092-0.023c0.076-0.038,0.123-0.113,0.123-0.192 c0-0.011-0.004-0.038-0.027-0.099c-0.021-0.043-0.066-0.083-0.12-0.1C964.54,67.421,964.521,67.417,964.5,67.417 M966.231,67.315 c-0.203,0-0.378-0.112-0.461-0.294c-0.044-0.079-0.054-0.163-0.054-0.221c0-0.204,0.118-0.386,0.303-0.464 c0.11-0.056,0.249-0.064,0.376-0.02c0.131,0.045,0.239,0.142,0.298,0.266c0.029,0.072,0.043,0.148,0.043,0.218 c0,0.204-0.118,0.386-0.302,0.464C966.376,67.288,966.31,67.315,966.231,67.315 M966.229,66.588c-0.029,0-0.059,0.007-0.084,0.02 c-0.091,0.039-0.128,0.124-0.128,0.192c0,0.031,0.006,0.06,0.016,0.077l0.009,0.017c0.033,0.077,0.103,0.121,0.189,0.121 c0.019,0,0.056-0.015,0.088-0.028c0.08-0.034,0.118-0.119,0.118-0.187c0-0.032-0.008-0.07-0.02-0.098 c-0.021-0.044-0.064-0.083-0.121-0.102C966.275,66.592,966.252,66.588,966.229,66.588 M967.97,66.508 c-0.203,0-0.387-0.118-0.465-0.302l-0.002-0.003c-0.026-0.069-0.039-0.126-0.039-0.19c0-0.209,0.118-0.395,0.302-0.474 c0.248-0.117,0.552-0.004,0.676,0.256c0.028,0.056,0.043,0.126,0.043,0.198c0,0.21-0.119,0.396-0.302,0.475 C968.116,66.494,968.04,66.508,967.97,66.508 M967.781,66.089c0.053,0.121,0.2,0.135,0.286,0.101 c0.071-0.03,0.117-0.106,0.117-0.197c0-0.03-0.007-0.055-0.014-0.068c-0.055-0.114-0.178-0.162-0.281-0.113 c-0.079,0.034-0.125,0.11-0.125,0.201C967.765,66.035,967.768,66.053,967.781,66.089 M969.727,65.75 c-0.198,0-0.385-0.125-0.464-0.312l-0.001-0.003c-0.027-0.064-0.04-0.132-0.04-0.2c0-0.205,0.114-0.382,0.307-0.472 c0.265-0.111,0.563,0.012,0.672,0.27c0.028,0.067,0.041,0.134,0.041,0.202c0,0.163-0.085,0.319-0.221,0.414v0.015l-0.095,0.046 C969.859,65.737,969.792,65.75,969.727,65.75 M969.538,65.321c0.04,0.091,0.142,0.145,0.233,0.124l0.04-0.021 c0.076-0.033,0.13-0.112,0.13-0.189c0-0.029-0.006-0.058-0.019-0.087c-0.044-0.105-0.168-0.156-0.272-0.111 c-0.083,0.039-0.129,0.108-0.129,0.198C969.521,65.264,969.527,65.292,969.538,65.321 M971.502,65.001 c-0.215,0-0.396-0.121-0.475-0.315v-0.001c-0.026-0.063-0.039-0.131-0.039-0.19c0.015-0.226,0.136-0.4,0.325-0.475 c0.255-0.107,0.553,0.02,0.664,0.283c0.03,0.077,0.03,0.147,0.03,0.202c0,0.198-0.125,0.384-0.312,0.464 C971.618,65.001,971.558,65.001,971.502,65.001 M971.307,64.575c0.047,0.116,0.212,0.142,0.275,0.117 c0.072-0.031,0.126-0.109,0.126-0.187c0-0.037,0-0.067-0.008-0.088c-0.046-0.106-0.171-0.163-0.274-0.119 c-0.115,0.046-0.135,0.16-0.138,0.208C971.288,64.512,971.292,64.542,971.307,64.575 M973.289,64.3 c-0.215,0-0.411-0.135-0.477-0.329c-0.027-0.069-0.039-0.122-0.039-0.176c0-0.213,0.131-0.407,0.326-0.485 c0.268-0.099,0.56,0.031,0.665,0.295c0.018,0.065,0.028,0.115,0.028,0.17c0,0.22-0.124,0.406-0.323,0.486 C973.424,64.284,973.354,64.3,973.289,64.3 M973.283,63.576c-0.025,0-0.052,0.004-0.077,0.014c-0.077,0.03-0.133,0.115-0.133,0.205 c0,0.015,0.006,0.037,0.019,0.07l0.004,0.007c0.035,0.11,0.179,0.151,0.252,0.115c0.096-0.039,0.146-0.116,0.146-0.212 c0-0.02-0.007-0.048-0.015-0.077C973.449,63.625,973.37,63.576,973.283,63.576 M975.075,63.618c-0.213,0-0.399-0.132-0.477-0.337 l-0.007-0.018l0.146-0.035l-0.146,0.03c-0.011-0.043-0.022-0.091-0.022-0.145c0-0.07,0.013-0.135,0.036-0.196h-0.53l0.825-0.291 c0.109-0.039,0.221-0.039,0.323-0.009h0.555l-0.341,0.129c0.051,0.051,0.093,0.114,0.122,0.187c0.018,0.061,0.029,0.113,0.029,0.17 c0,0.222-0.129,0.408-0.337,0.486C975.189,63.606,975.139,63.618,975.075,63.618 M974.882,63.183 c0.046,0.11,0.142,0.154,0.276,0.122c0.079-0.03,0.132-0.105,0.132-0.202c0-0.02-0.008-0.049-0.015-0.076 c-0.037-0.092-0.143-0.147-0.242-0.127l-0.021,0.008c-0.092,0.034-0.144,0.109-0.144,0.205 C974.869,63.131,974.875,63.156,974.882,63.183 M976.891,62.965c-0.224,0-0.409-0.129-0.487-0.337l-0.006-0.018l0.146-0.035 l-0.146,0.031c-0.009-0.041-0.021-0.092-0.021-0.156c0-0.212,0.138-0.4,0.342-0.468c0.13-0.046,0.269-0.039,0.392,0.02 c0.121,0.059,0.213,0.163,0.259,0.294c0.027,0.052,0.027,0.117,0.027,0.164c0,0.218-0.139,0.41-0.342,0.478 C977.001,62.965,976.935,62.965,976.891,62.965 M976.688,62.53c0.035,0.086,0.107,0.135,0.203,0.135c0.019,0,0.04,0,0.047-0.003 c0.104-0.036,0.157-0.112,0.157-0.202c0-0.019,0-0.042-0.003-0.049c-0.027-0.071-0.064-0.115-0.113-0.138 c-0.051-0.024-0.109-0.027-0.164-0.008c-0.083,0.028-0.141,0.104-0.141,0.185C976.674,62.478,976.681,62.501,976.688,62.53"></path> <path clip-path="url(#SVGID_2_)" fill-rule="evenodd" clip-rule="evenodd" fill="#0A5CA6" d="M110.899,98.701 c16.43,0,27.701,0.44,33.752,1.231c1.527,0.212,2.913,0.593,4.217,0.947L121.641,118.8c-3.567-0.153-8.268-0.234-14.228-0.234 c-12.332,0-19.83,0.388-22.389,1.026c-3.06,0.718-5.22,2.388-6.525,4.941c-1.414,2.552-2.701,7.739-4.068,15.442 c-0.827,4.74-1.174,8.093-1.106,10.171v0.313L49.586,166.05c-0.21-0.814-0.353-1.75-0.508-2.717 c-0.483-4.929,0.298-13.512,2.491-25.764c2.017-11.652,4.234-19.942,6.473-24.871c3.283-7.312,9.464-11.528,18.617-12.766 C82.933,99.141,94.352,98.685,110.899,98.701"></path> <path clip-path="url(#SVGID_2_)" fill-rule="evenodd" clip-rule="evenodd" fill="#E82427" d="M157.371,107.592 c0.735,1.522,1.174,3.18,1.409,5.089c0.489,5.026-0.332,13.385-2.417,25.317c-2.096,11.886-4.285,20.406-6.53,25.335 c-3.283,7.282-9.482,11.596-18.656,12.753c-6.256,0.775-17.695,1.247-33.984,1.235c-16.578,0.012-27.855-0.46-33.907-1.235 c-2.745-0.376-5.162-1.083-7.135-2.051l26.049-17.12c3.64,0.388,9.824,0.536,18.491,0.536c9.385,0,15.614-0.148,18.765-0.536 c3.138-0.255,5.63-1.059,7.281-2.16c1.551-1.093,2.697-2.622,3.476-4.648c0.912-2.04,1.687-5.329,2.496-10.006 c1.021-5.513,1.517-9.519,1.584-12.063c0.087-2.036-0.136-3.718-0.563-4.971L157.371,107.592z"></path> <path clip-path="url(#SVGID_2_)" fill-rule="evenodd" clip-rule="evenodd" fill="#000101" d="M504.246,107.215 c-10.216,0-17.784,0.426-22.725,1.235c-2.81,0.444-5.015,1.226-6.405,2.319c-1.469,1.163-2.701,3.004-3.652,5.544 c-1.522,4.064-2.97,10.047-4.353,17.855c-1.374,8.141-2.195,14.039-2.401,17.652c-0.233,3.71,0.126,6.218,1.159,7.452 c0.642,1.022,1.892,1.797,3.555,2.257c1.693,0.434,4.394,0.782,8.086,1.108c6.199,0.42,13.458,0.666,21.738,0.666 c11.74,0,20.434-0.525,25.941-1.562c4.357-0.672,7.258-3.133,8.791-7.368c1.663-4.649,3.214-10.838,4.605-18.632 c1.668-9.609,2.444-16.463,2.444-20.283c0-4.028-2.319-6.409-7.049-7.156c-2.757-0.455-5.887-0.736-9.358-0.866 C521.044,107.292,514.262,107.215,504.246,107.215 M511.432,98.42c12.451,0,21.243,0.348,26.2,1.208 c5.004,0.786,8.422,2.313,10.4,4.684c1.243,1.437,2.041,3.186,2.393,5.23c0.455,2.058,0.518,4.827,0.309,8.52 c-0.309,4.508-0.992,10.406-2.246,17.46c-1.625,8.976-3.225,15.83-4.9,20.4c-1.681,4.65-3.704,8.006-6.081,10.115 c-2.569,2.346-6.433,3.942-11.449,4.74c-5.081,0.793-13.151,1.249-24.325,1.249c-5.515,0-11.613-0.046-18.33-0.252 c-6.601-0.204-10.988-0.41-13.028-0.575c-3.63-0.307-6.381-0.917-8.365-1.737c-1.943-0.81-3.556-2.104-4.865-3.846 c-1.813-2.286-2.696-5.556-2.696-9.607c0-4.229,0.883-11.168,2.558-21.056c2.119-11.648,4.348-19.972,6.833-24.822 c2.905-5.818,7.943-9.203,14.991-10.286C485.374,98.984,496.217,98.466,511.432,98.42 M362.666,98.609h9.686l-5.384,30.879h67.325 l5.437-30.879h9.789l-12.861,73.165h-9.806l5.908-33.632h-67.308l-5.967,33.632h-9.686L362.666,98.609z M269.743,98.609 l-1.499,8.605h36.731l-11.425,64.56h9.739l11.452-64.56h36.527l1.538-8.605H269.743z M180.821,135.016h35.87 c9.47,0.017,15.613-0.063,18.336-0.342c2.701-0.296,4.958-0.97,6.844-2.047c2.787-1.589,4.736-5.6,5.893-12.097 c0.952-5.549,0.466-9.078-1.601-10.786c-1.312-1.003-3.47-1.733-6.69-2.103c-3.123-0.279-9.072-0.426-17.893-0.426h-35.894 L180.821,135.016z M164.66,171.798l12.905-73.172h45.526c12.313,0.143,20.165,0.422,23.458,0.94 c5.87,0.731,9.666,3.419,11.118,8.075c1.014,3.128,1.014,7.493,0,13.027c-0.717,4.222-1.521,7.51-2.387,9.703 c-0.803,2.183-1.995,3.915-3.346,5.26c-2.278,2.091-5.453,3.549-9.68,4.433c2.968,0.559,5.32,1.727,6.821,3.629 c1.094,1.529,1.674,3.26,1.737,5.381c0,2.045-0.49,6.181-1.567,12.297l-1.851,10.427h-9.749l1.253-7.043 c1.087-5.989,1.663-10.063,1.811-12.416c0.091-4.581-2.034-7.345-6.495-8.149c-1.653-0.2-3.256-0.353-4.611-0.438 c-1.482,0-6.279-0.059-14.428-0.161H179.27l-4.934,28.207H164.66z"></path> <path clip-path="url(#SVGID_2_)" fill-rule="evenodd" clip-rule="evenodd" fill="#000101" d="M688.271,98.607h88.426l-3.256,18.662 h-32.46l-9.585,54.505h-23.488l9.652-54.505h-32.64L688.271,98.607z M655.284,98.607h23.45l-12.879,73.167h-23.397L655.284,98.607z M568.551,98.607l-12.868,73.167h22.282l4.416-25.306h52.337l2.977-16.833h-52.333l2.397-13.825h55.02l3.07-17.203H568.551z"></path> <path clip-path="url(#SVGID_2_)" fill-rule="evenodd" clip-rule="evenodd" fill="#221F1F" d="M786.484,93.985 c-1.579,1.729-2.884,4.45-2.608,7.807c0.239,3.098,1.608,5.333,3.454,7.016c1.766,1.608,4.56,2.872,7.798,2.607 c3.099-0.251,5.338-1.57,7.025-3.449c1.623-1.817,2.896-4.332,2.637-7.765c-0.122-1.582-0.481-2.851-1.126-4.102 c-1.699-3.157-5.095-5.961-10.139-5.606C790.273,90.742,788.159,92.206,786.484,93.985 M793.768,88.73 c0.386-0.012,0.764,0,1.139-0.012c3.567,0.218,6.188,1.708,8.113,3.65c1.913,1.922,3.371,4.576,3.546,8.185v0.825 c-0.228,3.705-1.633,6.304-3.686,8.334c-1.929,1.968-4.774,3.428-8.467,3.483c-3.709,0.071-6.636-1.515-8.564-3.433 c-2.01-2.029-3.521-4.542-3.739-8.246v-1.121c0.135-3.402,1.729-6.26,3.58-8.11C787.664,90.322,790.319,88.958,793.768,88.73"></path> <path clip-path="url(#SVGID_2_)" fill-rule="evenodd" clip-rule="evenodd" fill="#221F1F" d="M790.204,94.939v4.835 c2.441-0.197,5.522,0.498,7.05-0.561c1.354-0.941,1.144-3.202-0.188-3.973c-1.612-0.912-4.617-0.167-6.774-0.422 C790.233,94.846,790.204,94.86,790.204,94.939 M788.283,93.165c3.546,0.339,8.782-0.879,10.783,1.107 c1.629,1.551,1.57,4.897-0.459,6.223c-0.679,0.465-1.504,0.69-2.479,0.833c2.41,1.369,3.727,4.534,5.328,6.869 c-0.819-0.004-1.602-0.004-2.435-0.004c-0.666-0.837-1.261-1.972-1.956-3.022c-0.74-1.148-1.527-2.55-2.574-3.224 c-0.937-0.594-2.566-0.384-4.249-0.44c-0.097,2.173-0.009,4.481-0.038,6.686c-0.649,0-1.302,0.004-1.979,0V93.26 C788.225,93.224,788.225,93.165,788.283,93.165"></path> <polygon clip-path="url(#SVGID_2_)" fill="#E82427" points="445.84,245.768 438.778,245.781 448.521,189.599 458.998,189.578 485.609,238.333 529.193,189.438 539.984,189.416 530.24,245.599 523.177,245.612 531.757,196.146 487.236,245.685 481.781,245.694 454.419,196.301 "></polygon> <path clip-path="url(#SVGID_2_)" fill="#E82427" d="M535.696,245.588l43.645-56.252l9.652-0.019l24.235,56.116l-7.69,0.015 l-5.505-12.361l-46.457,0.093l-9.601,12.392L535.696,245.588z M558.135,227.249l39.396-0.079l-14.254-32.259L558.135,227.249z"></path> <path clip-path="url(#SVGID_2_)" fill="#E82427" d="M625.944,245.406l-7.26,0.016l9.744-56.184l41.71-0.084 c9.285-0.018,15.275,0.919,17.967,2.813c2.692,1.894,3.596,5.393,2.711,10.5l-1.173,6.754c-0.602,3.471-1.794,6.014-3.577,7.626 c-1.783,1.613-4.666,2.813-8.646,3.601c3.135,0.32,5.352,1.404,6.654,3.249c1.301,1.847,1.669,4.404,1.101,7.675l-2.415,13.923 l-7.259,0.014l2.173-12.527c0.636-3.672,0.24-6.173-1.189-7.504c-1.43-1.329-5.192-1.987-11.287-1.976l-35.432,0.071 L625.944,245.406z M671.433,195.263l-36.805,0.074l-3.737,21.545l36.806-0.074c5.231-0.011,8.813-0.64,10.741-1.888 c1.93-1.249,3.224-3.772,3.882-7.571l0.465-2.679c0.654-3.773,0.233-6.287-1.262-7.541 C680.028,195.875,676.664,195.253,671.433,195.263"></path> <polygon clip-path="url(#SVGID_2_)" fill="#E82427" points="724.079,245.211 716.82,245.226 725.477,195.305 696.559,195.364 697.646,189.1 762.741,188.97 761.654,195.234 732.737,195.291 "></polygon> <rect x="833.848" y="73" clip-path="url(#SVGID_2_)" fill="#000101" width="1" height="196.435"></rect> <path clip-path="url(#SVGID_2_)" fill="#FFFFFF" d="M1103.912,97.324L1103.912,97.324c-0.105,0-0.212-0.048-0.279-0.134 c-0.124-0.154-0.105-0.375,0.049-0.509c0.154-0.125,0.375-0.106,0.499,0.048c0.135,0.153,0.115,0.374-0.038,0.509 C1104.075,97.295,1103.988,97.324,1103.912,97.324 M1102.664,95.865L1102.664,95.865c-0.105,0-0.201-0.048-0.279-0.125 c-0.057-0.077-0.086-0.163-0.086-0.25c0-0.096,0.048-0.192,0.125-0.259c0.154-0.134,0.374-0.115,0.509,0.029 c0.057,0.077,0.087,0.163,0.087,0.25c0,0.096-0.039,0.191-0.125,0.259C1102.826,95.836,1102.74,95.865,1102.664,95.865 M1101.387,94.424L1101.387,94.424c-0.096,0-0.192-0.038-0.27-0.124c-0.057-0.068-0.087-0.154-0.087-0.241 c0-0.096,0.039-0.191,0.116-0.268c0.145-0.125,0.375-0.115,0.509,0.029c0.067,0.076,0.097,0.163,0.097,0.249 c0,0.096-0.049,0.192-0.125,0.26C1101.56,94.396,1101.473,94.424,1101.387,94.424 M1100.09,93.003L1100.09,93.003 c-0.096,0-0.191-0.038-0.26-0.115c-0.066-0.067-0.096-0.153-0.096-0.24c0-0.096,0.039-0.192,0.116-0.269 c0.144-0.134,0.365-0.125,0.508,0.019c0.06,0.068,0.097,0.154,0.097,0.24c0,0.106-0.037,0.202-0.115,0.27 C1100.264,92.976,1100.177,93.003,1100.09,93.003 M1098.775,91.611L1098.775,91.611c-0.097,0-0.192-0.038-0.26-0.105v-0.01 c-0.076-0.067-0.106-0.163-0.106-0.249c0-0.097,0.039-0.183,0.116-0.25c0.145-0.144,0.364-0.135,0.509,0.009 c0.067,0.067,0.096,0.164,0.096,0.25c0,0.096-0.038,0.182-0.105,0.259C1098.947,91.583,1098.861,91.611,1098.775,91.611 M1097.431,90.238L1097.431,90.238c-0.096,0-0.183-0.038-0.26-0.106c-0.066-0.067-0.105-0.163-0.105-0.259 c0-0.086,0.039-0.182,0.105-0.25c0.145-0.144,0.375-0.144,0.51,0c0.076,0.068,0.104,0.164,0.104,0.26 c0,0.086-0.028,0.182-0.104,0.249C1097.613,90.2,1097.518,90.238,1097.431,90.238 M1096.066,88.884L1096.066,88.884 c-0.096,0-0.182-0.029-0.249-0.096c-0.077-0.067-0.114-0.163-0.114-0.259c0-0.087,0.037-0.182,0.104-0.25 c0.135-0.144,0.365-0.144,0.509-0.009c0.067,0.067,0.106,0.163,0.106,0.249c0,0.096-0.029,0.192-0.097,0.259 C1096.25,88.855,1096.153,88.884,1096.066,88.884 M1094.675,87.56L1094.675,87.56c-0.086,0-0.172-0.029-0.25-0.096 c-0.076-0.076-0.105-0.173-0.105-0.269c0-0.086,0.029-0.173,0.097-0.24c0.134-0.144,0.364-0.154,0.509-0.019 c0.077,0.077,0.114,0.173,0.114,0.269c0,0.086-0.037,0.173-0.104,0.24C1094.866,87.521,1094.771,87.56,1094.675,87.56 M1093.264,86.253L1093.264,86.253c-0.087,0-0.173-0.028-0.24-0.086c-0.077-0.077-0.116-0.173-0.116-0.269 c0-0.086,0.03-0.173,0.098-0.24c0.134-0.153,0.354-0.163,0.509-0.029c0.076,0.067,0.115,0.173,0.115,0.269 c0,0.087-0.029,0.173-0.097,0.24C1093.465,86.215,1093.368,86.253,1093.264,86.253 M1091.833,84.977L1091.833,84.977 c-0.077,0-0.163-0.028-0.24-0.086c-0.077-0.077-0.115-0.173-0.115-0.269c0-0.087,0.028-0.173,0.086-0.24 c0.135-0.154,0.365-0.163,0.509-0.039c0.077,0.077,0.125,0.173,0.125,0.269c0,0.087-0.028,0.173-0.096,0.24 C1092.034,84.938,1091.938,84.977,1091.833,84.977 M1090.383,83.718L1090.383,83.718c-0.086,0-0.163-0.028-0.23-0.086 c-0.086-0.067-0.134-0.173-0.125-0.278c0-0.077,0.029-0.164,0.077-0.231c0.134-0.144,0.364-0.163,0.509-0.038 c0.086,0.076,0.135,0.172,0.135,0.278c-0.011,0.087-0.029,0.164-0.086,0.231C1090.585,83.68,1090.488,83.718,1090.383,83.718 M1088.914,82.489L1088.914,82.489c-0.086,0-0.163-0.029-0.23-0.086c-0.087-0.067-0.135-0.173-0.135-0.278 c0-0.077,0.029-0.154,0.087-0.221c0.124-0.154,0.354-0.183,0.499-0.058c0.086,0.077,0.134,0.173,0.134,0.279 c0,0.086-0.028,0.163-0.076,0.23C1089.115,82.441,1089.02,82.489,1088.914,82.489 M1087.417,81.279L1087.417,81.279 c-0.078,0-0.154-0.028-0.223-0.076c-0.086-0.068-0.134-0.173-0.134-0.279c0-0.076,0.02-0.163,0.077-0.23 c0.125-0.154,0.346-0.183,0.499-0.058c0.097,0.077,0.135,0.173,0.144,0.279c0,0.076-0.027,0.163-0.077,0.23 C1087.628,81.231,1087.521,81.279,1087.417,81.279 M1085.908,80.099L1085.908,80.099c-0.076,0-0.153-0.028-0.221-0.077 c-0.096-0.067-0.144-0.182-0.144-0.287c0-0.077,0.028-0.154,0.077-0.211c0.123-0.164,0.345-0.193,0.498-0.068h0.011 c0.086,0.068,0.134,0.182,0.134,0.288c0,0.077-0.029,0.154-0.077,0.211C1086.119,80.05,1086.015,80.099,1085.908,80.099 M1084.373,78.946L1084.373,78.946c-0.077,0-0.154-0.029-0.213-0.076c-0.096-0.068-0.144-0.174-0.144-0.289 c0-0.076,0.021-0.153,0.067-0.211c0.115-0.163,0.346-0.192,0.5-0.077c0.096,0.067,0.152,0.183,0.152,0.288 c0,0.077-0.027,0.154-0.076,0.212C1084.593,78.89,1084.486,78.946,1084.373,78.946 M1082.825,77.813L1082.825,77.813 c-0.075,0-0.152-0.019-0.211-0.067c-0.096-0.067-0.152-0.182-0.152-0.288c0-0.077,0.019-0.153,0.066-0.221 c0.115-0.153,0.347-0.192,0.499-0.077c0.096,0.068,0.154,0.173,0.154,0.288c0,0.067-0.02,0.144-0.067,0.211 C1083.047,77.756,1082.932,77.813,1082.825,77.813 M1081.252,76.709L1081.252,76.709c-0.067,0-0.145-0.019-0.202-0.067 c-0.106-0.067-0.163-0.183-0.153-0.298c0-0.067,0.02-0.144,0.057-0.201c0.115-0.164,0.338-0.202,0.5-0.096 c0.105,0.076,0.163,0.191,0.163,0.307c-0.01,0.067-0.028,0.134-0.067,0.192C1081.481,76.651,1081.366,76.709,1081.252,76.709 M1079.668,75.625L1079.668,75.625c-0.077,0-0.145-0.019-0.202-0.058c-0.106-0.067-0.163-0.182-0.163-0.297 c0-0.067,0.019-0.135,0.057-0.202c0.116-0.163,0.336-0.211,0.499-0.096c0.106,0.067,0.164,0.183,0.164,0.298 c0,0.067-0.019,0.134-0.058,0.201C1079.897,75.576,1079.782,75.625,1079.668,75.625 M1078.055,74.578L1078.055,74.578 c-0.068,0-0.135-0.019-0.193-0.057c-0.104-0.067-0.163-0.183-0.163-0.298c0-0.067,0.02-0.134,0.059-0.202 c0.104-0.163,0.326-0.211,0.499-0.105c0.104,0.067,0.164,0.192,0.164,0.307c0,0.067-0.021,0.134-0.06,0.192 C1078.295,74.521,1078.179,74.578,1078.055,74.578 M1076.432,73.55L1076.432,73.55c-0.059,0-0.125-0.019-0.182-0.048 c-0.116-0.077-0.175-0.192-0.175-0.317c0-0.057,0.021-0.125,0.048-0.182c0.106-0.173,0.338-0.221,0.5-0.115 c0.115,0.067,0.173,0.182,0.173,0.307c0,0.067-0.02,0.124-0.058,0.182C1076.672,73.492,1076.557,73.55,1076.432,73.55 M1074.789,72.551L1074.789,72.551c-0.057,0-0.125-0.009-0.183-0.047c-0.104-0.068-0.172-0.183-0.172-0.308 c0-0.067,0.019-0.125,0.048-0.182c0.105-0.173,0.326-0.231,0.499-0.125c0.105,0.058,0.173,0.182,0.173,0.298 c0,0.067-0.02,0.134-0.048,0.191C1075.039,72.495,1074.914,72.551,1074.789,72.551 M1073.138,71.583L1073.138,71.583 c-0.058,0-0.124-0.01-0.183-0.048c-0.115-0.068-0.182-0.192-0.182-0.317c0.009-0.058,0.02-0.115,0.047-0.173 c0.106-0.173,0.327-0.231,0.499-0.135c0.116,0.067,0.184,0.193,0.184,0.327c-0.01,0.058-0.02,0.115-0.048,0.163 C1073.388,71.515,1073.263,71.583,1073.138,71.583 M1071.467,70.642L1071.467,70.642c-0.058,0-0.125-0.01-0.172-0.039 c-0.125-0.067-0.192-0.192-0.192-0.326c0-0.058,0.019-0.115,0.048-0.164c0.096-0.182,0.316-0.24,0.489-0.143 c0.115,0.067,0.183,0.192,0.183,0.316c0,0.058-0.01,0.116-0.039,0.173C1071.717,70.573,1071.592,70.642,1071.467,70.642 M1069.776,69.729L1069.776,69.729c-0.057,0-0.114-0.009-0.163-0.038c-0.124-0.067-0.191-0.192-0.201-0.317 c0-0.058,0.02-0.115,0.049-0.172c0.096-0.173,0.307-0.24,0.489-0.154v0.009c0.115,0.058,0.183,0.183,0.183,0.308 c0.009,0.057-0.01,0.115-0.039,0.172C1070.026,69.662,1069.901,69.729,1069.776,69.729 M1068.078,68.845L1068.078,68.845 c-0.058,0-0.115-0.01-0.164-0.038c-0.135-0.068-0.201-0.202-0.201-0.327c0-0.057,0.02-0.106,0.039-0.163 c0.096-0.173,0.307-0.24,0.488-0.153c0.125,0.067,0.202,0.191,0.192,0.326c0,0.058-0.01,0.105-0.038,0.154 C1068.338,68.769,1068.203,68.845,1068.078,68.845 M1066.358,67.991L1066.358,67.991c-0.057,0-0.104-0.02-0.163-0.039 c-0.125-0.067-0.201-0.192-0.201-0.326c0-0.049,0.02-0.106,0.038-0.154c0.086-0.182,0.308-0.259,0.48-0.163 c0.135,0.058,0.201,0.182,0.201,0.317c0,0.057-0.009,0.105-0.038,0.163C1066.618,67.915,1066.493,67.991,1066.358,67.991 M1064.621,67.166L1064.621,67.166c-0.049,0-0.097-0.019-0.145-0.039c-0.134-0.057-0.211-0.192-0.211-0.326 c0-0.048,0.01-0.106,0.029-0.154c0.086-0.182,0.307-0.259,0.479-0.173c0.135,0.058,0.211,0.193,0.211,0.327 c0,0.048-0.009,0.106-0.038,0.153C1064.89,67.088,1064.765,67.166,1064.621,67.166 M1062.883,66.358L1062.883,66.358 c-0.047,0-0.105-0.009-0.153-0.029c-0.135-0.057-0.211-0.192-0.211-0.336c0-0.048,0.009-0.096,0.028-0.134 c0.087-0.183,0.298-0.269,0.48-0.183c0.135,0.058,0.211,0.192,0.211,0.337c0,0.048-0.01,0.086-0.028,0.134 C1063.151,66.282,1063.018,66.358,1062.883,66.358 M1061.127,65.601L1061.127,65.601c-0.049,0-0.098-0.01-0.146-0.029v-0.01 c-0.134-0.057-0.221-0.192-0.221-0.326c0-0.048,0.01-0.097,0.028-0.144c0.077-0.183,0.289-0.269,0.472-0.193 c0.143,0.068,0.221,0.193,0.221,0.337c0,0.048-0.01,0.096-0.028,0.144C1061.395,65.514,1061.261,65.601,1061.127,65.601 M1059.35,64.852L1059.35,64.852c-0.048,0-0.087,0-0.135-0.02c-0.135-0.057-0.221-0.191-0.221-0.326c0-0.048,0-0.096,0.02-0.144 c0.077-0.183,0.288-0.278,0.47-0.201c0.146,0.057,0.222,0.191,0.231,0.335c0,0.039-0.01,0.087-0.029,0.135 C1059.629,64.774,1059.493,64.852,1059.35,64.852 M1057.563,64.15L1057.563,64.15c-0.038,0-0.086-0.01-0.125-0.029 c-0.144-0.057-0.229-0.192-0.229-0.346c0-0.038,0.009-0.077,0.019-0.115c0.076-0.192,0.288-0.278,0.47-0.211 c0.145,0.058,0.231,0.201,0.231,0.345c0,0.039-0.01,0.077-0.029,0.125C1057.852,64.064,1057.708,64.15,1057.563,64.15 M1055.777,63.468L1055.777,63.468c-0.048,0-0.086-0.01-0.125-0.019c-0.152-0.058-0.24-0.192-0.24-0.346 c0-0.038,0.01-0.077,0.02-0.115c0.077-0.192,0.279-0.288,0.471-0.221h-0.01c0.154,0.058,0.24,0.192,0.24,0.346 c0,0.038-0.01,0.077-0.02,0.115C1056.056,63.382,1055.922,63.468,1055.777,63.468 M1053.963,62.815L1053.963,62.815 c-0.038,0-0.076,0-0.115-0.019c-0.145-0.048-0.24-0.183-0.24-0.336c0-0.038,0-0.077,0.021-0.115 c0.065-0.192,0.268-0.289,0.46-0.221c0.144,0.048,0.24,0.182,0.24,0.326c0,0.048-0.011,0.086-0.02,0.125 C1054.252,62.729,1054.116,62.815,1053.963,62.815"></path> <path clip-path="url(#SVGID_2_)" fill="#FFFFFF" d="M1103.912,97.475c-0.155,0-0.303-0.072-0.397-0.192 c-0.174-0.214-0.145-0.529,0.068-0.715c0.109-0.088,0.237-0.128,0.373-0.116c0.134,0.012,0.256,0.077,0.341,0.183 c0.086,0.098,0.131,0.228,0.123,0.361c-0.009,0.136-0.073,0.262-0.179,0.355C1104.15,97.43,1104.03,97.475,1103.912,97.475 M1103.909,96.749c-0.048,0-0.094,0.017-0.133,0.049c-0.088,0.076-0.102,0.206-0.026,0.298c0.067,0.086,0.208,0.102,0.295,0.029 c0.044-0.04,0.072-0.093,0.075-0.149c0.004-0.053-0.014-0.104-0.052-0.147c-0.038-0.047-0.086-0.074-0.141-0.079 C1103.921,96.75,1103.915,96.749,1103.909,96.749 M1102.664,96.015c-0.139,0-0.276-0.06-0.385-0.169 c-0.09-0.117-0.13-0.234-0.13-0.355c0-0.137,0.064-0.276,0.176-0.372c0.21-0.184,0.524-0.167,0.717,0.039 c0.087,0.114,0.127,0.232,0.127,0.352c0,0.149-0.065,0.287-0.183,0.378C1102.911,95.964,1102.788,96.015,1102.664,96.015 M1102.667,95.29c-0.051,0-0.102,0.017-0.145,0.055c-0.046,0.039-0.073,0.095-0.073,0.146c0,0.055,0.019,0.11,0.056,0.159 c0.023,0.021,0.083,0.065,0.159,0.065c0.021,0,0.077-0.005,0.124-0.052c0.07-0.055,0.081-0.113,0.081-0.153 c0-0.055-0.02-0.11-0.057-0.16C1102.775,95.311,1102.722,95.29,1102.667,95.29 M1101.386,94.575c-0.145,0-0.279-0.062-0.38-0.175 c-0.082-0.095-0.125-0.215-0.125-0.34c0-0.139,0.058-0.272,0.16-0.375c0.214-0.187,0.535-0.169,0.724,0.033 c0.091,0.102,0.137,0.223,0.137,0.352c0,0.138-0.064,0.274-0.175,0.372C1101.643,94.525,1101.52,94.575,1101.386,94.575 M1101.386,93.854c-0.051,0-0.102,0.016-0.141,0.051c-0.039,0.039-0.064,0.095-0.064,0.155c0,0.054,0.019,0.104,0.052,0.142 c0.067,0.077,0.176,0.132,0.289,0.021c0.052-0.046,0.08-0.103,0.08-0.153c0-0.057-0.02-0.106-0.059-0.151 C1101.503,93.876,1101.444,93.854,1101.386,93.854 M1100.09,93.154c-0.144,0-0.279-0.061-0.372-0.166 c-0.084-0.084-0.133-0.207-0.133-0.339c0-0.139,0.056-0.272,0.159-0.375c0.206-0.192,0.521-0.182,0.721,0.019 c0.094,0.107,0.141,0.227,0.141,0.346c0,0.152-0.06,0.288-0.166,0.382C1100.339,93.108,1100.219,93.154,1100.09,93.154 M1100.094,92.434c-0.051,0-0.101,0.018-0.142,0.055c-0.042,0.043-0.067,0.101-0.067,0.16c0,0.037,0.01,0.091,0.053,0.134 c0.084,0.094,0.213,0.091,0.304,0.012c0.053-0.046,0.063-0.11,0.063-0.156c0-0.046-0.021-0.099-0.06-0.142 C1100.204,92.455,1100.149,92.434,1100.094,92.434 M1098.775,91.762c-0.138,0-0.271-0.055-0.365-0.15l-0.044-0.056 c-0.068-0.084-0.106-0.193-0.106-0.309c0-0.14,0.06-0.269,0.166-0.363c0.193-0.192,0.51-0.188,0.714,0.017 c0.09,0.089,0.141,0.218,0.141,0.355c0,0.129-0.048,0.249-0.143,0.358C1099.023,91.716,1098.902,91.762,1098.775,91.762 M1098.666,91.433c0.08,0.045,0.182,0.037,0.26-0.031c0.032-0.038,0.055-0.091,0.055-0.146c0-0.057-0.02-0.111-0.053-0.143 c-0.089-0.089-0.214-0.093-0.297-0.01c-0.05,0.045-0.07,0.089-0.07,0.144c0,0.027,0.005,0.093,0.054,0.136L1098.666,91.433z M1097.43,90.388c-0.129,0-0.249-0.047-0.356-0.142c-0.104-0.102-0.157-0.235-0.157-0.372c0-0.129,0.055-0.262,0.149-0.356 c0.1-0.099,0.245-0.157,0.373-0.152c0.135,0.002,0.26,0.058,0.352,0.155c0.09,0.079,0.146,0.211,0.146,0.362 c0,0.144-0.057,0.276-0.156,0.363C1097.693,90.333,1097.561,90.388,1097.43,90.388 M1097.429,89.666 c-0.056,0-0.11,0.023-0.151,0.064c-0.037,0.037-0.063,0.095-0.063,0.144c0,0.057,0.023,0.114,0.063,0.153 c0.086,0.074,0.219,0.078,0.297,0c0.055-0.048,0.062-0.11,0.062-0.144c0-0.065-0.019-0.115-0.055-0.147 C1097.534,89.687,1097.485,89.668,1097.429,89.666 M1096.067,89.035c-0.142,0-0.265-0.048-0.355-0.14 c-0.099-0.087-0.16-0.222-0.16-0.365c0-0.129,0.057-0.262,0.149-0.356c0.187-0.2,0.511-0.207,0.719-0.013 c0.098,0.097,0.152,0.23,0.152,0.359c0,0.145-0.049,0.275-0.141,0.365C1096.336,88.982,1096.206,89.035,1096.067,89.035 M1096.066,88.32c-0.057,0-0.11,0.021-0.149,0.062c-0.04,0.041-0.065,0.098-0.065,0.148c0,0.057,0.024,0.11,0.065,0.146 c0.042,0.042,0.088,0.059,0.15,0.059c0.042,0,0.102-0.011,0.152-0.062c0.046-0.045,0.054-0.115,0.054-0.153 c0-0.049-0.025-0.107-0.063-0.144C1096.171,88.339,1096.118,88.32,1096.066,88.32 M1094.675,87.71 c-0.129,0-0.249-0.046-0.349-0.134c-0.105-0.104-0.156-0.234-0.156-0.381c0-0.134,0.049-0.257,0.141-0.347 c0.088-0.094,0.214-0.152,0.35-0.157c0.142-0.006,0.267,0.042,0.367,0.135c0.105,0.106,0.163,0.24,0.163,0.379 c0,0.126-0.054,0.248-0.149,0.345C1094.954,87.649,1094.818,87.71,1094.675,87.71 M1094.681,86.99c-0.003,0-0.006,0-0.009,0.001 c-0.057,0.002-0.108,0.025-0.146,0.066c-0.047,0.047-0.058,0.1-0.058,0.138c0,0.068,0.021,0.121,0.063,0.162 c0.076,0.066,0.219,0.07,0.291-0.012c0.045-0.046,0.067-0.095,0.067-0.14c0-0.059-0.025-0.117-0.071-0.164 C1094.784,87.009,1094.734,86.99,1094.681,86.99 M1093.263,86.404c-0.125,0-0.245-0.044-0.338-0.122 c-0.11-0.111-0.167-0.245-0.167-0.384c0-0.132,0.049-0.254,0.141-0.345c0.181-0.207,0.498-0.226,0.714-0.036 c0.104,0.091,0.166,0.234,0.166,0.381c0,0.133-0.049,0.256-0.141,0.346C1093.551,86.345,1093.416,86.404,1093.263,86.404 M1093.27,85.685c-0.056,0-0.11,0.025-0.152,0.072c-0.05,0.051-0.059,0.104-0.059,0.141c0,0.059,0.024,0.117,0.071,0.164 c0.054,0.045,0.188,0.094,0.29-0.022c0.041-0.042,0.059-0.087,0.059-0.142c0-0.06-0.025-0.121-0.064-0.156 C1093.371,85.704,1093.32,85.685,1093.27,85.685 M1091.833,85.127c-0.114,0-0.231-0.042-0.33-0.117 c-0.119-0.116-0.175-0.249-0.175-0.389c0-0.125,0.043-0.245,0.121-0.337c0.188-0.214,0.511-0.237,0.722-0.055 c0.117,0.117,0.177,0.25,0.177,0.383c0,0.133-0.05,0.255-0.14,0.346C1092.128,85.062,1091.99,85.127,1091.833,85.127 M1091.843,84.406c-0.06,0-0.123,0.025-0.167,0.074c-0.029,0.036-0.048,0.087-0.048,0.141c0,0.06,0.024,0.117,0.071,0.163 c0.075,0.053,0.224,0.053,0.285-0.024c0.055-0.057,0.063-0.111,0.063-0.148c0-0.052-0.03-0.111-0.082-0.163 C1091.934,84.42,1091.889,84.406,1091.843,84.406 M1090.383,83.869c-0.124,0-0.233-0.041-0.328-0.123 c-0.121-0.093-0.19-0.25-0.177-0.405c0-0.096,0.038-0.211,0.104-0.304c0.203-0.22,0.524-0.242,0.729-0.065 c0.12,0.106,0.187,0.245,0.187,0.392c-0.013,0.113-0.035,0.226-0.123,0.328C1090.671,83.808,1090.537,83.869,1090.383,83.869 M1090.385,83.152c-0.062,0-0.126,0.025-0.171,0.074c-0.018,0.026-0.037,0.083-0.037,0.128c-0.005,0.068,0.021,0.124,0.067,0.16 c0.107,0.091,0.227,0.069,0.305-0.02c0.027-0.031,0.041-0.072,0.051-0.147c-0.002-0.044-0.03-0.1-0.086-0.149 C1090.479,83.167,1090.432,83.152,1090.385,83.152 M1088.914,82.64c-0.123,0-0.233-0.041-0.328-0.122 c-0.116-0.09-0.187-0.239-0.187-0.393c0-0.115,0.042-0.225,0.123-0.318c0.085-0.105,0.214-0.174,0.353-0.187 c0.133-0.011,0.26,0.029,0.358,0.113c0.122,0.109,0.186,0.244,0.186,0.392c0,0.114-0.035,0.221-0.104,0.317 C1089.198,82.574,1089.059,82.64,1088.914,82.64 M1088.92,81.918c-0.006,0-0.012,0.001-0.019,0.001 c-0.059,0.005-0.112,0.034-0.149,0.08c-0.036,0.042-0.054,0.084-0.054,0.126c0,0.062,0.03,0.123,0.078,0.16 c0.099,0.085,0.212,0.073,0.305-0.03c0.022-0.032,0.038-0.079,0.038-0.13c0-0.061-0.029-0.117-0.084-0.166 C1089.005,81.933,1088.964,81.918,1088.92,81.918 M1087.416,81.43c-0.105,0-0.212-0.036-0.308-0.104 c-0.125-0.098-0.197-0.246-0.197-0.401c0-0.09,0.019-0.22,0.113-0.329c0.177-0.219,0.488-0.252,0.708-0.076 c0.115,0.093,0.184,0.222,0.197,0.381c0.001,0.123-0.037,0.239-0.104,0.332C1087.712,81.363,1087.566,81.43,1087.416,81.43 M1087.417,80.709c-0.06,0-0.121,0.027-0.163,0.08c-0.038,0.044-0.043,0.104-0.043,0.136c0,0.063,0.028,0.123,0.076,0.16 c0.098,0.069,0.226,0.05,0.304-0.039c0.021-0.029,0.04-0.085,0.04-0.131c-0.007-0.065-0.033-0.118-0.088-0.161 C1087.506,80.723,1087.462,80.709,1087.417,80.709 M1085.908,80.249c-0.105,0-0.212-0.036-0.309-0.105 c-0.127-0.089-0.205-0.246-0.205-0.41c0-0.111,0.039-0.222,0.11-0.307c0.082-0.108,0.204-0.179,0.34-0.195 c0.117-0.014,0.228,0.012,0.323,0.074h0.003l0.05,0.031c0.119,0.093,0.192,0.249,0.192,0.407c0,0.111-0.04,0.223-0.112,0.307 C1086.219,80.171,1086.069,80.249,1085.908,80.249 M1085.904,79.528c-0.008,0-0.016,0.001-0.023,0.002 c-0.055,0.006-0.104,0.036-0.141,0.084c-0.031,0.037-0.047,0.079-0.047,0.12c0,0.066,0.031,0.131,0.08,0.165 c0.115,0.082,0.231,0.055,0.291-0.03c0.033-0.042,0.049-0.084,0.049-0.125c0-0.055-0.022-0.112-0.055-0.15l-0.033-0.022 C1085.99,79.543,1085.947,79.528,1085.904,79.528 M1084.372,79.097c-0.11,0-0.222-0.041-0.307-0.111 c-0.123-0.085-0.198-0.235-0.198-0.404c0-0.12,0.034-0.226,0.1-0.306c0.073-0.102,0.19-0.175,0.325-0.196 c0.132-0.02,0.274,0.013,0.381,0.094c0.128,0.089,0.214,0.25,0.214,0.408c0,0.11-0.041,0.222-0.11,0.307 C1084.688,79.016,1084.534,79.097,1084.372,79.097 M1084.371,78.374c-0.011,0-0.021,0.001-0.033,0.003 c-0.054,0.008-0.101,0.037-0.132,0.08c-0.028,0.035-0.039,0.076-0.039,0.125c0,0.05,0.014,0.119,0.08,0.165 c0.109,0.089,0.226,0.053,0.291-0.04c0.033-0.041,0.049-0.085,0.049-0.125c0-0.061-0.037-0.128-0.09-0.165 C1084.459,78.388,1084.415,78.374,1084.371,78.374 M1082.826,77.964c-0.121,0-0.227-0.035-0.307-0.102 c-0.125-0.087-0.209-0.244-0.209-0.404c0-0.113,0.033-0.22,0.096-0.307c0.169-0.225,0.494-0.274,0.711-0.11 c0.135,0.094,0.214,0.244,0.214,0.408c0,0.106-0.034,0.212-0.095,0.298C1083.145,77.878,1082.983,77.964,1082.826,77.964 M1082.821,77.245c-0.066,0-0.132,0.029-0.172,0.083c-0.024,0.033-0.038,0.079-0.038,0.13c0,0.061,0.037,0.129,0.09,0.166 c0.079,0.063,0.224,0.046,0.291-0.05c0.034-0.049,0.039-0.099,0.039-0.125c0-0.065-0.032-0.125-0.089-0.166 C1082.906,77.257,1082.864,77.245,1082.821,77.245 M1081.252,76.86c-0.066,0-0.191-0.014-0.298-0.102 c-0.137-0.086-0.222-0.253-0.207-0.426c-0.001-0.089,0.029-0.193,0.082-0.272c0.163-0.231,0.473-0.291,0.706-0.139 c0.146,0.108,0.23,0.268,0.23,0.433c-0.016,0.122-0.046,0.205-0.092,0.275C1081.584,76.771,1081.421,76.86,1081.252,76.86 M1081.255,76.136c-0.066,0-0.136,0.033-0.179,0.094c-0.018,0.026-0.03,0.073-0.03,0.115c-0.006,0.074,0.027,0.134,0.084,0.171 c0.105,0.083,0.232,0.043,0.292-0.05c0.023-0.034,0.038-0.079,0.046-0.133c-0.002-0.049-0.04-0.118-0.103-0.165 C1081.332,76.147,1081.294,76.136,1081.255,76.136 M1079.667,75.775c-0.106,0-0.203-0.028-0.285-0.083 c-0.143-0.092-0.229-0.25-0.229-0.423c0-0.094,0.025-0.187,0.078-0.276c0.086-0.123,0.2-0.199,0.332-0.225 c0.137-0.027,0.271,0.002,0.383,0.081c0.138,0.087,0.227,0.25,0.227,0.42c0,0.094-0.025,0.187-0.078,0.277 C1080.003,75.691,1079.844,75.775,1079.667,75.775 M1079.66,75.058c-0.013,0-0.026,0.002-0.039,0.004 c-0.055,0.011-0.104,0.044-0.138,0.092c-0.02,0.032-0.031,0.074-0.031,0.115c0,0.069,0.036,0.135,0.094,0.172 c0.036,0.023,0.074,0.034,0.121,0.034c0.035,0,0.123-0.008,0.171-0.084c0.021-0.038,0.034-0.081,0.034-0.122 c0-0.068-0.036-0.134-0.094-0.171C1079.74,75.071,1079.7,75.058,1079.66,75.058 M1078.054,74.728c-0.099,0-0.193-0.029-0.275-0.083 c-0.141-0.09-0.229-0.252-0.229-0.422c0-0.094,0.026-0.187,0.077-0.277c0.156-0.24,0.463-0.308,0.708-0.159 c0.146,0.094,0.235,0.26,0.235,0.436c0,0.098-0.029,0.193-0.084,0.275C1078.395,74.641,1078.233,74.728,1078.054,74.728 M1078.059,74.008c-0.07,0-0.137,0.033-0.177,0.094c-0.021,0.038-0.032,0.08-0.032,0.121c0,0.068,0.035,0.134,0.093,0.171 c0.103,0.067,0.234,0.03,0.292-0.06c0.023-0.035,0.035-0.072,0.035-0.111c0-0.072-0.038-0.145-0.096-0.182 C1078.138,74.019,1078.097,74.008,1078.059,74.008 M1076.431,73.701c-0.077,0-0.167-0.023-0.249-0.064 c-0.169-0.111-0.256-0.272-0.256-0.451c0-0.105,0.039-0.201,0.063-0.249c0.078-0.129,0.192-0.211,0.328-0.242 c0.134-0.03,0.274-0.006,0.388,0.067c0.151,0.088,0.241,0.247,0.241,0.433c0,0.096-0.027,0.183-0.083,0.266 C1076.777,73.61,1076.618,73.701,1076.431,73.701 M1076.431,72.982c-0.016,0-0.03,0.002-0.047,0.006 c-0.056,0.013-0.103,0.046-0.132,0.094c-0.014,0.028-0.025,0.073-0.025,0.104c0,0.079,0.036,0.145,0.106,0.192 c0.055,0.024,0.192,0.069,0.276-0.076c0.027-0.042,0.037-0.071,0.037-0.107c0-0.045-0.014-0.128-0.1-0.177 C1076.511,72.994,1076.471,72.982,1076.431,72.982 M1074.79,72.702c-0.104,0-0.194-0.025-0.267-0.073 c-0.148-0.095-0.239-0.258-0.239-0.433c0-0.083,0.02-0.162,0.063-0.249c0.078-0.129,0.19-0.212,0.322-0.245 c0.131-0.033,0.272-0.013,0.389,0.06c0.145,0.078,0.245,0.251,0.245,0.425c0,0.109-0.034,0.201-0.063,0.259 C1075.146,72.609,1074.979,72.702,1074.79,72.702 M1074.793,71.987c-0.017,0-0.033,0.002-0.05,0.006 c-0.055,0.014-0.103,0.049-0.133,0.099c-0.017,0.034-0.026,0.069-0.026,0.104c0,0.073,0.039,0.14,0.104,0.182 c0.07,0.047,0.232,0.021,0.288-0.074c0.017-0.034,0.028-0.078,0.028-0.117c0-0.065-0.042-0.136-0.096-0.166 C1074.871,71.998,1074.832,71.987,1074.793,71.987 M1073.138,71.732c-0.103,0-0.191-0.024-0.266-0.073 c-0.151-0.087-0.249-0.259-0.249-0.442c0.012-0.084,0.024-0.16,0.064-0.24c0.152-0.252,0.46-0.334,0.705-0.198 c0.161,0.093,0.26,0.268,0.26,0.457c-0.013,0.088-0.024,0.167-0.069,0.241C1073.491,71.634,1073.32,71.732,1073.138,71.732 M1073.141,71.013c-0.073,0-0.148,0.039-0.191,0.11c-0.012,0.025-0.02,0.063-0.028,0.118c0.002,0.052,0.044,0.125,0.109,0.163 c0.087,0.056,0.234,0.024,0.295-0.08c0.016-0.026,0.022-0.071,0.03-0.112c-0.002-0.06-0.043-0.133-0.11-0.172 C1073.212,71.022,1073.177,71.013,1073.141,71.013 M1071.467,70.791c-0.056,0-0.163-0.007-0.25-0.06 c-0.164-0.088-0.265-0.259-0.265-0.455c0-0.082,0.024-0.165,0.07-0.241c0.06-0.113,0.167-0.202,0.296-0.241 c0.132-0.039,0.274-0.023,0.395,0.044c0.161,0.094,0.259,0.265,0.259,0.448c0,0.088-0.017,0.167-0.054,0.24 C1071.821,70.693,1071.65,70.791,1071.467,70.791 M1071.464,70.073c-0.02,0-0.04,0.003-0.06,0.009 c-0.053,0.015-0.096,0.051-0.121,0.101c-0.021,0.036-0.031,0.066-0.031,0.093c0,0.085,0.042,0.156,0.114,0.195 c0.051,0.031,0.226,0.018,0.288-0.088c0.011-0.022,0.018-0.056,0.018-0.097c0-0.076-0.042-0.149-0.106-0.187 C1071.534,70.082,1071.499,70.073,1071.464,70.073 M1069.777,69.879c-0.094,0-0.174-0.02-0.24-0.06 c-0.155-0.083-0.26-0.246-0.274-0.434c-0.001-0.086,0.021-0.164,0.063-0.251c0.139-0.25,0.434-0.342,0.688-0.222l0.086,0.04v0.024 c0.113,0.092,0.183,0.235,0.183,0.388c0.016,0.084-0.023,0.178-0.054,0.24C1070.136,69.775,1069.964,69.879,1069.777,69.879 M1069.785,69.16c-0.079,0-0.153,0.041-0.194,0.114c-0.018,0.037-0.028,0.072-0.028,0.1c0.006,0.073,0.052,0.146,0.123,0.184 c0.073,0.045,0.22,0.012,0.276-0.092c0.018-0.034,0.025-0.062,0.022-0.078c-0.001-0.098-0.042-0.167-0.102-0.197l-0.052-0.027 C1069.816,69.161,1069.8,69.16,1069.785,69.16 M1068.078,68.996c-0.094,0-0.175-0.021-0.241-0.061 c-0.165-0.082-0.273-0.258-0.273-0.454c0-0.075,0.021-0.137,0.038-0.191l0.019-0.046c0.136-0.244,0.431-0.336,0.685-0.215 c0.188,0.1,0.291,0.28,0.277,0.472c0.001,0.078-0.018,0.151-0.058,0.219C1068.451,68.88,1068.27,68.996,1068.078,68.996 M1068.077,68.275c-0.078,0-0.154,0.041-0.195,0.115c-0.011,0.04-0.019,0.066-0.019,0.091c0,0.061,0.031,0.148,0.119,0.192 c0.074,0.044,0.222,0.027,0.275-0.092c0.019-0.031,0.025-0.051,0.025-0.091c0.005-0.083-0.038-0.153-0.113-0.194 C1068.14,68.282,1068.108,68.275,1068.077,68.275 M1066.359,68.141c-0.074,0-0.135-0.02-0.188-0.039l-0.047-0.017 c-0.172-0.093-0.28-0.269-0.28-0.459c0-0.059,0.016-0.124,0.049-0.209c0.064-0.136,0.175-0.233,0.308-0.275 c0.132-0.042,0.268-0.029,0.386,0.036c0.166,0.071,0.278,0.245,0.278,0.448c0,0.084-0.018,0.154-0.054,0.23 C1066.731,68.028,1066.553,68.141,1066.359,68.141 M1066.35,67.418c-0.02,0-0.039,0.003-0.058,0.009 c-0.054,0.018-0.1,0.058-0.124,0.11c-0.02,0.051-0.023,0.079-0.023,0.089c0,0.08,0.047,0.154,0.123,0.195 c0.043,0.012,0.067,0.02,0.092,0.02c0.078,0,0.147-0.045,0.181-0.114c0.019-0.038,0.024-0.063,0.024-0.101 c0-0.049-0.016-0.138-0.11-0.179C1066.417,67.427,1066.382,67.418,1066.35,67.418 M1064.621,67.315c-0.078,0-0.146-0.027-0.2-0.049 c-0.187-0.08-0.306-0.262-0.306-0.465c0-0.07,0.015-0.146,0.04-0.21c0.063-0.132,0.171-0.229,0.302-0.274 c0.128-0.045,0.265-0.037,0.384,0.023c0.177,0.074,0.294,0.257,0.294,0.461c0,0.06-0.01,0.149-0.059,0.23 C1065.005,67.2,1064.827,67.315,1064.621,67.315 M1064.621,66.589c-0.021,0-0.045,0.004-0.066,0.011 c-0.056,0.019-0.1,0.059-0.125,0.111c-0.008,0.02-0.015,0.058-0.015,0.09c0,0.068,0.038,0.152,0.121,0.188 c0.149,0.06,0.233-0.001,0.274-0.094c0.019-0.036,0.025-0.064,0.025-0.094c0-0.069-0.038-0.154-0.121-0.189 C1064.684,66.596,1064.652,66.589,1064.621,66.589 M1062.883,66.508c-0.069,0-0.146-0.014-0.209-0.039 c-0.187-0.08-0.306-0.266-0.306-0.475c0-0.073,0.015-0.143,0.045-0.201c0.121-0.257,0.428-0.37,0.678-0.252 c0.179,0.077,0.297,0.263,0.297,0.472c0,0.079-0.018,0.138-0.038,0.189C1063.27,66.39,1063.087,66.508,1062.883,66.508 M1062.878,65.794c-0.081,0-0.157,0.048-0.194,0.129c-0.009,0.016-0.016,0.04-0.016,0.071c0,0.09,0.046,0.166,0.121,0.198 c0.074,0.03,0.23,0.019,0.283-0.104c0.012-0.031,0.016-0.05,0.016-0.075c0-0.09-0.046-0.166-0.12-0.198 C1062.939,65.801,1062.908,65.794,1062.878,65.794 M1061.126,65.75c-0.065,0-0.133-0.013-0.2-0.039l-0.094-0.038v-0.024 c-0.136-0.094-0.221-0.25-0.221-0.414c0-0.067,0.013-0.134,0.039-0.199c0.11-0.262,0.408-0.383,0.668-0.275 c0.197,0.093,0.313,0.269,0.313,0.474c0,0.068-0.013,0.136-0.04,0.201C1061.51,65.625,1061.324,65.75,1061.126,65.75 M1061.097,65.448c0.089,0.013,0.181-0.042,0.219-0.128c0.01-0.027,0.016-0.055,0.016-0.085c0-0.09-0.046-0.159-0.135-0.2 c-0.099-0.042-0.224,0.008-0.269,0.115c-0.011,0.027-0.017,0.057-0.017,0.085c0,0.077,0.054,0.157,0.13,0.189L1061.097,65.448z M1059.35,65.001c-0.054,0-0.115,0-0.19-0.03c-0.19-0.081-0.315-0.268-0.315-0.465c0-0.056,0-0.125,0.03-0.2 c0.054-0.127,0.151-0.226,0.275-0.28c0.127-0.056,0.267-0.057,0.393-0.004c0.187,0.073,0.308,0.247,0.322,0.464 c0,0.068-0.013,0.136-0.039,0.2C1059.747,64.88,1059.565,65.001,1059.35,65.001 M1059.352,64.284c-0.028,0-0.056,0.005-0.082,0.017 c-0.054,0.023-0.096,0.066-0.118,0.119c-0.007,0.018-0.007,0.048-0.007,0.086c0,0.078,0.054,0.155,0.13,0.188 c0.017,0.007,0.032,0.007,0.075,0.007c0.092,0,0.165-0.047,0.196-0.126c0.015-0.034,0.02-0.063,0.02-0.079 c-0.003-0.037-0.023-0.152-0.138-0.196C1059.403,64.289,1059.377,64.284,1059.352,64.284 M1057.563,64.3 c-0.065,0-0.136-0.016-0.191-0.044c-0.188-0.075-0.313-0.261-0.313-0.48c0-0.055,0.012-0.106,0.023-0.153 c0.111-0.282,0.403-0.412,0.668-0.314c0.198,0.079,0.328,0.274,0.328,0.486c0,0.056-0.012,0.111-0.039,0.18 C1057.977,64.163,1057.78,64.3,1057.563,64.3 M1057.57,63.576c-0.086,0-0.168,0.053-0.203,0.14c-0.002,0.011-0.008,0.04-0.008,0.06 c0,0.095,0.05,0.172,0.135,0.206c0.025,0.013,0.051,0.018,0.069,0.018c0.072,0,0.165-0.04,0.193-0.127 c0.017-0.04,0.021-0.062,0.021-0.078c0-0.089-0.057-0.174-0.136-0.206C1057.618,63.58,1057.594,63.576,1057.57,63.576 M1055.777,63.619c-0.064,0-0.115-0.013-0.157-0.023c-0.228-0.084-0.357-0.27-0.357-0.492c0-0.055,0.012-0.103,0.023-0.152 c0.032-0.08,0.077-0.148,0.131-0.203l-0.352-0.131h0.568c0.101-0.031,0.21-0.03,0.318,0.008l0.835,0.292h-0.54 c0.022,0.06,0.036,0.126,0.036,0.195c0,0.055-0.012,0.103-0.022,0.145C1056.177,63.486,1055.99,63.619,1055.777,63.619 M1055.778,62.896c-0.089,0-0.169,0.055-0.207,0.148c-0.002,0.012-0.008,0.04-0.008,0.06c0,0.096,0.052,0.171,0.143,0.205 c0.019,0.003,0.043,0.01,0.071,0.01c0.089,0,0.163-0.054,0.197-0.144c0.002-0.016,0.009-0.043,0.009-0.062 c0-0.096-0.053-0.171-0.144-0.205l-0.021-0.008C1055.805,62.898,1055.792,62.896,1055.778,62.896 M1053.963,62.966 c-0.047,0-0.111,0-0.182-0.036c-0.187-0.059-0.323-0.251-0.323-0.469c0-0.048,0-0.113,0.035-0.184 c0.038-0.112,0.13-0.216,0.251-0.274c0.123-0.059,0.261-0.066,0.394-0.02c0.199,0.066,0.341,0.259,0.341,0.468 c0,0.063-0.014,0.114-0.022,0.155C1054.371,62.836,1054.186,62.966,1053.963,62.966 M1053.963,62.253 c-0.031,0-0.061,0.007-0.088,0.02c-0.05,0.024-0.087,0.067-0.105,0.121c-0.013,0.026-0.013,0.047-0.013,0.067 c0,0.088,0.057,0.166,0.138,0.193c0.027,0.011,0.048,0.011,0.068,0.011c0.096,0,0.171-0.052,0.205-0.142 c0.003-0.019,0.01-0.044,0.01-0.072c0-0.082-0.057-0.157-0.137-0.184C1054.015,62.258,1053.988,62.253,1053.963,62.253"></path> <polygon clip-path="url(#SVGID_2_)" fill="#0A5CA6" points="972.172,222.611 972.172,231.421 967.337,231.421 967.337,222.541 959.247,206.557 964.381,206.557 969.963,217.604 975.545,206.557 980.291,206.557 "></polygon> <polygon clip-path="url(#SVGID_2_)" fill="#0A5CA6" points="1000.022,226.803 1000.022,231.421 983.844,231.421 983.844,206.557 999.634,206.557 999.634,211.174 988.649,211.174 988.649,216.573 998.352,216.573 998.352,221.049 988.649,221.049 988.649,226.803 "></polygon> <path clip-path="url(#SVGID_2_)" fill="#0A5CA6" d="M1019.364,226.093h-9.701l-1.851,5.328h-4.954l9.313-24.864h4.775l9.343,24.864 h-5.074L1019.364,226.093z M1017.842,221.724l-3.313-9.52l-3.313,9.52H1017.842z"></path> <path clip-path="url(#SVGID_2_)" fill="#0A5CA6" d="M1043.513,231.421l-4.03-6.927h-0.238h-4.209v6.927h-4.836v-24.865h9.045 c1.85,0,3.457,0.368,4.82,1.103c1.363,0.733,2.413,1.775,3.148,3.125c0.736,1.35,1.105,2.948,1.105,4.796 c0,1.847-0.373,3.439-1.12,4.776c-0.746,1.339-1.806,2.362-3.179,3.073l4.687,7.992H1043.513z M1042.288,212.364 c-0.756-0.746-1.86-1.119-3.313-1.119h-3.94v8.667h3.94c1.452,0,2.557-0.378,3.313-1.136c0.756-0.759,1.134-1.824,1.134-3.197 C1043.422,214.182,1043.044,213.11,1042.288,212.364"></path> <path clip-path="url(#SVGID_2_)" fill="#0A5CA6" d="M1055.944,231.048c-1.542-0.533-2.78-1.225-3.716-2.078l1.641-4.334 c0.896,0.782,1.96,1.41,3.194,1.883c1.234,0.475,2.467,0.712,3.701,0.712c1.373,0,2.388-0.243,3.045-0.729 c0.657-0.485,0.985-1.13,0.985-1.936c0-0.592-0.194-1.083-0.582-1.475c-0.389-0.39-0.887-0.704-1.492-0.94 c-0.608-0.237-1.428-0.497-2.463-0.781c-1.592-0.45-2.896-0.9-3.91-1.351c-1.016-0.449-1.886-1.172-2.612-2.167 c-0.727-0.994-1.089-2.32-1.089-3.978c0-1.445,0.328-2.753,0.985-3.925c0.655-1.173,1.646-2.103,2.969-2.789s2.94-1.03,4.851-1.03 c1.333,0,2.638,0.19,3.91,0.568c1.273,0.379,2.389,0.924,3.343,1.634l-1.491,4.369c-1.932-1.302-3.861-1.953-5.791-1.953 c-1.354,0-2.354,0.261-2.999,0.781c-0.647,0.521-0.972,1.208-0.972,2.06c0,0.854,0.373,1.487,1.119,1.901 c0.747,0.414,1.887,0.823,3.418,1.225c1.592,0.45,2.896,0.901,3.911,1.351s1.885,1.16,2.611,2.131 c0.726,0.972,1.09,2.286,1.09,3.942c0,1.421-0.334,2.718-1,3.891c-0.667,1.172-1.667,2.102-3,2.788s-2.955,1.029-4.865,1.029 C1059.084,231.847,1057.486,231.581,1055.944,231.048"></path> <polygon clip-path="url(#SVGID_2_)" fill="#0A5CA6" points="973.837,242.958 967.366,253.77 964.864,252.271 970.133,243.469 967.971,242.175 969.172,240.167 "></polygon> <path clip-path="url(#SVGID_2_)" fill="#0A5CA6" d="M982.406,248.73c0.453,1.393,0.256,3.004-0.59,4.834 c-0.6,1.296-1.357,2.295-2.271,2.996c-0.911,0.702-1.921,1.088-3.024,1.159c-1.104,0.07-2.233-0.161-3.387-0.695 c-0.61-0.282-1.16-0.62-1.654-1.013c-0.492-0.394-0.876-0.806-1.152-1.238l1.879-1.49c0.379,0.638,1.004,1.159,1.875,1.563 c0.971,0.447,1.87,0.518,2.701,0.208s1.518-0.993,2.061-2.052c-1.005,0.368-2.11,0.273-3.319-0.287 c-0.73-0.337-1.326-0.792-1.788-1.362c-0.464-0.571-0.744-1.207-0.843-1.907c-0.101-0.701,0.015-1.404,0.343-2.112 c0.352-0.763,0.852-1.344,1.501-1.745c0.648-0.4,1.373-0.604,2.176-0.609c0.804-0.005,1.606,0.179,2.413,0.551 C980.928,246.271,981.954,247.337,982.406,248.73 M978.663,251.184c0.513-0.152,0.888-0.479,1.119-0.98s0.243-0.991,0.035-1.471 c-0.208-0.48-0.622-0.863-1.242-1.15c-0.567-0.262-1.098-0.322-1.593-0.182c-0.495,0.142-0.863,0.474-1.105,0.996 c-0.241,0.522-0.258,1.021-0.047,1.496c0.21,0.474,0.608,0.847,1.197,1.119C977.604,251.278,978.15,251.335,978.663,251.184"></path> <path clip-path="url(#SVGID_2_)" fill="#0A5CA6" d="M992.806,252.248c0.629,1.322,0.645,2.945,0.042,4.87 c-0.426,1.363-1.047,2.451-1.861,3.265c-0.813,0.814-1.763,1.328-2.849,1.542c-1.085,0.214-2.235,0.13-3.449-0.249 c-0.641-0.2-1.231-0.464-1.771-0.79c-0.54-0.325-0.975-0.685-1.305-1.077l1.671-1.722c0.459,0.583,1.146,1.019,2.063,1.306 c1.019,0.318,1.92,0.271,2.704-0.145s1.376-1.183,1.777-2.302c-0.948,0.496-2.058,0.545-3.328,0.146 c-0.769-0.239-1.418-0.612-1.951-1.119c-0.533-0.506-0.895-1.1-1.083-1.781c-0.19-0.683-0.168-1.395,0.065-2.14 c0.25-0.802,0.672-1.442,1.262-1.925c0.591-0.48,1.284-0.776,2.078-0.887c0.795-0.109,1.616-0.032,2.464,0.232 C991.019,250.001,992.176,250.926,992.806,252.248 M989.413,255.166c0.488-0.218,0.815-0.59,0.98-1.117 c0.165-0.526,0.113-1.014-0.155-1.463s-0.729-0.774-1.382-0.979c-0.595-0.188-1.13-0.178-1.602,0.026 c-0.474,0.204-0.795,0.581-0.967,1.131c-0.173,0.55-0.123,1.047,0.146,1.489c0.271,0.442,0.715,0.76,1.333,0.954 C988.375,255.398,988.923,255.384,989.413,255.166"></path> <path clip-path="url(#SVGID_2_)" fill="#0A5CA6" d="M1004.046,260.373c0.239,0.553,0.302,1.155,0.188,1.805 c-0.134,0.77-0.47,1.401-1.008,1.898c-0.537,0.497-1.229,0.833-2.075,1.008c-0.846,0.175-1.79,0.172-2.83-0.009 c-1.041-0.181-1.927-0.497-2.657-0.947c-0.732-0.451-1.265-1-1.596-1.648c-0.332-0.648-0.43-1.357-0.296-2.125 c0.113-0.65,0.375-1.196,0.787-1.636s0.946-0.761,1.604-0.963c-0.412-0.365-0.704-0.784-0.877-1.259 c-0.174-0.474-0.212-0.99-0.114-1.545c0.125-0.721,0.435-1.313,0.93-1.775s1.128-0.773,1.899-0.938s1.625-0.165,2.559-0.002 c0.945,0.165,1.757,0.456,2.434,0.872c0.677,0.417,1.17,0.925,1.479,1.526c0.309,0.604,0.401,1.265,0.276,1.985 c-0.099,0.556-0.309,1.028-0.632,1.416s-0.746,0.683-1.269,0.884C1003.408,259.336,1003.808,259.82,1004.046,260.373 M1000.483,262.776c0.478-0.252,0.764-0.65,0.857-1.194c0.095-0.544-0.04-1.012-0.404-1.404c-0.363-0.392-0.905-0.651-1.627-0.776 c-0.709-0.124-1.299-0.063-1.769,0.185c-0.469,0.247-0.751,0.643-0.846,1.187c-0.098,0.556,0.033,1.028,0.392,1.421 c0.358,0.391,0.892,0.647,1.601,0.771C999.409,263.091,1000.008,263.028,1000.483,262.776 M998.726,254.521 c-0.396,0.217-0.638,0.567-0.722,1.053c-0.083,0.473,0.023,0.875,0.32,1.206c0.295,0.332,0.737,0.549,1.328,0.651 c0.592,0.104,1.089,0.051,1.49-0.159c0.402-0.21,0.645-0.552,0.728-1.024c0.084-0.485-0.027-0.896-0.333-1.237 c-0.308-0.339-0.755-0.561-1.347-0.664C999.611,254.246,999.123,254.304,998.726,254.521"></path> <rect x="1011.726" y="258.782" transform="matrix(-1 -0.0059 0.0059 -1 2026.9834 525.8369)" clip-path="url(#SVGID_2_)" fill="#0A5CA6" width="5.094" height="2.25"></rect> <path clip-path="url(#SVGID_2_)" fill="#0A5CA6" d="M1033.784,262.065l0.366,2.349l-9.408,1.468l-0.291-1.867l4.093-5.285 c0.435-0.564,0.714-1.037,0.837-1.415c0.123-0.377,0.157-0.737,0.104-1.082c-0.078-0.498-0.306-0.854-0.687-1.067 c-0.38-0.214-0.896-0.271-1.548-0.168c-0.545,0.085-1.021,0.266-1.427,0.542c-0.407,0.275-0.726,0.644-0.957,1.104l-2.31-1.022 c0.373-0.8,0.956-1.471,1.745-2.014c0.79-0.542,1.735-0.898,2.838-1.07c0.925-0.146,1.758-0.12,2.499,0.073 c0.739,0.194,1.347,0.537,1.817,1.028c0.472,0.491,0.766,1.11,0.883,1.857c0.104,0.676,0.062,1.333-0.131,1.97 c-0.191,0.637-0.638,1.398-1.337,2.285l-2.441,3.15L1033.784,262.065z"></path> <path clip-path="url(#SVGID_2_)" fill="#0A5CA6" d="M1038.604,262.714c-0.927-0.267-1.751-0.804-2.468-1.612 c-0.72-0.809-1.269-1.864-1.649-3.166c-0.381-1.301-0.487-2.486-0.318-3.554c0.168-1.069,0.572-1.966,1.21-2.69 c0.639-0.724,1.458-1.232,2.46-1.526c1.002-0.293,1.968-0.307,2.896-0.041c0.928,0.267,1.751,0.805,2.469,1.612 c0.718,0.81,1.269,1.864,1.649,3.166c0.381,1.301,0.486,2.486,0.317,3.554c-0.169,1.069-0.571,1.966-1.21,2.69 c-0.638,0.724-1.458,1.233-2.46,1.526S1039.532,262.979,1038.604,262.714 M1042.265,258.848c0.234-0.756,0.159-1.797-0.229-3.121 c-0.387-1.324-0.884-2.242-1.49-2.753c-0.605-0.51-1.277-0.657-2.014-0.441c-0.726,0.212-1.206,0.697-1.441,1.453 c-0.234,0.756-0.158,1.797,0.229,3.121c0.388,1.325,0.884,2.242,1.49,2.752c0.605,0.511,1.271,0.66,1.997,0.447 C1041.543,260.091,1042.029,259.604,1042.265,258.848"></path> <path clip-path="url(#SVGID_2_)" fill="#0A5CA6" d="M1056.411,254.169l0.953,2.176l-8.721,3.822l-0.759-1.731l2.609-6.155 c0.275-0.656,0.424-1.185,0.446-1.581c0.022-0.396-0.035-0.754-0.175-1.072c-0.202-0.462-0.515-0.748-0.936-0.858 c-0.422-0.11-0.935-0.032-1.54,0.233c-0.505,0.221-0.92,0.517-1.241,0.888c-0.322,0.37-0.537,0.808-0.643,1.313l-2.495-0.399 c0.157-0.868,0.548-1.665,1.173-2.392c0.625-0.726,1.449-1.313,2.472-1.761c0.856-0.376,1.669-0.563,2.435-0.564 c0.766-0.002,1.439,0.175,2.021,0.528c0.58,0.355,1.022,0.878,1.325,1.571c0.274,0.626,0.4,1.272,0.378,1.938 c-0.023,0.665-0.261,1.516-0.711,2.551l-1.555,3.669L1056.411,254.169z"></path> <path clip-path="url(#SVGID_2_)" fill="#0A5CA6" d="M1063.328,245.718c0.833,0.254,1.49,0.789,1.973,1.606 c0.37,0.63,0.549,1.309,0.532,2.036s-0.269,1.451-0.757,2.171s-1.223,1.37-2.205,1.948c-0.764,0.452-1.576,0.794-2.433,1.029 c-0.858,0.235-1.655,0.318-2.392,0.251l-0.157-2.498c0.596,0.066,1.216,0.024,1.858-0.126c0.644-0.148,1.249-0.392,1.818-0.728 c0.63-0.372,1.054-0.786,1.273-1.242c0.218-0.456,0.195-0.907-0.066-1.352c-0.525-0.889-1.464-0.934-2.818-0.135l-1.146,0.677 l-0.979-1.658l0.741-3.845l-4.619,2.728l-1.188-2.017l7.596-4.481l0.96,1.627l-0.803,4.236 C1061.559,245.54,1062.495,245.464,1063.328,245.718"></path> </g> </svg>