<svg xmlns="http://www.w3.org/2000/svg" xmlns:xlink="http://www.w3.org/1999/xlink" xml:space="preserve" width="2.00696in" height="1.961in" style="shape-rendering:geometricPrecision; text-rendering:geometricPrecision; image-rendering:optimizeQuality; fill-rule:evenodd; clip-rule:evenodd" viewBox="0 0 5022 4907"> <defs> <style type="text/css"> .fil0 {fill:#2656A1} </style> </defs> <g id="Layer_x0020_1"> <metadata id="CorelCorpID_0Corel-Layer"></metadata> <g id="_2049211452384"> <path class="fil0" d="M4714 2125c-20,-559 -246,-1081 -644,-1479 -417,-417 -970,-646 -1559,-646 -1189,0 -2161,946 -2203,2125 -181,81 -308,263 -308,474l0 581c0,286 232,518 518,518 185,0 335,-150 335,-335l0 -947c0,-174 -133,-315 -302,-332 62,-1027 917,-1844 1960,-1844 525,0 1018,205 1389,576 341,341 541,785 571,1268 -169,17 -302,158 -302,332l0 947c0,175 135,317 306,332l0 239c0,270 -219,489 -489,489l-362 0c-17,-50 -45,-97 -84,-136 -69,-69 -160,-107 -257,-107l-373 0c-54,0 -105,11 -153,33 -128,59 -211,189 -211,330 0,98 38,189 107,257 68,69 160,107 257,107l373 0c154,0 291,-100 342,-243l361 0c403,0 730,-328 730,-730l0 -282c180,-81 306,-262 306,-472l0 -581c0,-211 -127,-393 -308,-474zm-4101 291l0 947c0,52 -43,95 -95,95 -153,0 -278,-125 -278,-278l0 -581c0,-154 125,-278 278,-278 52,0 95,43 95,95zm2790 2153c-12,57 -62,98 -120,98l-373 0c-33,0 -64,-13 -88,-37 -23,-23 -36,-54 -36,-86 0,-48 28,-92 72,-112 16,-8 33,-12 51,-12l374 0c32,0 63,13 87,37 23,23 36,54 36,87 0,8 -1,17 -3,25zm1379 -1389c0,153 -125,278 -278,278 -52,0 -95,-43 -95,-95l0 -947c0,-52 43,-95 95,-95 153,0 278,125 278,278l0 581z"></path> <path class="fil0" d="M3289 3222c280,0 509,-229 509,-509l0 -1037c0,-136 -53,-264 -150,-360 -96,-96 -224,-149 -359,-149l-1556 0c-281,0 -509,228 -509,509l0 1037c0,280 228,509 509,509l10 0 0 268c0,103 61,194 155,232 31,12 63,19 94,19 65,0 129,-26 176,-75l447 -444 674 0zm-808 -206l-484 481c-2,3 -4,4 -8,2 -6,-2 -6,-5 -6,-9l0 -389c0,-66 -54,-120 -120,-120l-130 0c-148,0 -268,-120 -268,-268l0 -1037c0,-149 120,-269 268,-269l1556 0c71,0 139,28 190,79 51,51 79,118 79,190l0 1037c0,148 -121,268 -269,268l-724 0c-31,0 -62,13 -84,35z"></path> <path class="fil0" d="M1927 2036c-97,0 -177,80 -177,177 0,98 80,177 177,177 98,0 178,-79 178,-177 0,-97 -80,-177 -178,-177z"></path> <path class="fil0" d="M2511 2036c-98,0 -177,80 -177,177 0,98 79,177 177,177 98,0 177,-79 177,-177 0,-97 -79,-177 -177,-177z"></path> <path class="fil0" d="M3094 2036c-97,0 -177,80 -177,177 0,98 80,177 177,177 98,0 178,-79 178,-177 0,-97 -80,-177 -178,-177z"></path> </g> </g> </svg>