<svg xmlns="http://www.w3.org/2000/svg" xmlns:xlink="http://www.w3.org/1999/xlink" xml:space="preserve" width="2.47417in" height="1.92435in" style="shape-rendering:geometricPrecision; text-rendering:geometricPrecision; image-rendering:optimizeQuality; fill-rule:evenodd; clip-rule:evenodd" viewBox="0 0 2323 1807"> <defs> <style type="text/css"> .fil0 {fill:#E32324} </style> </defs> <g id="Layer_x0020_1"> <metadata id="CorelCorpID_0Corel-Layer"></metadata> <g id="_2049209878160"> <path class="fil0" d="M1527 1463l-1312 0c-119,0 -215,-97 -215,-215l0 -1033c0,-119 96,-215 215,-215l1635 0c119,0 215,96 215,215l0 734c0,24 -19,43 -43,43 -24,0 -43,-19 -43,-43l0 -734c0,-71 -58,-129 -129,-129l-1635 0c-71,0 -129,58 -129,129l0 1033c0,71 58,129 129,129l1312 0c24,0 43,19 43,43 0,23 -19,43 -43,43z"></path> <path class="fil0" d="M2022 731l-1979 0c-24,0 -43,-19 -43,-43l0 -258c0,-24 19,-43 43,-43l1979 0c24,0 43,19 43,43l0 258c0,24 -19,43 -43,43zm-1936 -86l1893 0 0 -172 -1893 0 0 172z"></path> <path class="fil0" d="M1506 990l-172 0c-24,0 -43,-20 -43,-44 0,-23 19,-43 43,-43l172 0c24,0 43,20 43,43 0,24 -19,44 -43,44z"></path> <path class="fil0" d="M1162 990l-172 0c-24,0 -44,-20 -44,-44 0,-23 20,-43 44,-43l172 0c23,0 43,20 43,43 0,24 -20,44 -43,44z"></path> <path class="fil0" d="M817 1248l-516 0c-24,0 -43,-20 -43,-43l0 -259c0,-23 19,-43 43,-43l516 0c24,0 43,20 43,43l0 259c0,23 -19,43 -43,43zm-473 -86l430 0 0 -172 -430 0 0 172z"></path> <path class="fil0" d="M1893 1807l0 0c-4,0 -7,0 -10,-1 -244,-60 -417,-278 -420,-529l0 -291c0,-23 18,-42 42,-43 127,-5 252,-32 371,-79 11,-5 23,-5 34,0 117,51 243,78 370,79 24,0 43,20 43,43l0 291c-3,251 -176,469 -420,529 -3,1 -6,1 -9,1l0 0 -1 0zm-344 -780l0 250c2,208 143,389 344,442 201,-53 342,-234 344,-442l0 -249c-118,-6 -234,-33 -344,-78 -110,43 -226,68 -344,77z"></path> <path class="fil0" d="M1850 1463c-9,0 -17,-3 -24,-7l-129 -87c-20,-13 -25,-39 -12,-59 13,-20 40,-25 60,-12l100 66 211 -211c17,-17 44,-16 60,0 17,17 17,44 1,61l-237 236c-8,8 -19,13 -30,13z"></path> </g> </g> </svg>