<svg xmlns="http://www.w3.org/2000/svg" xmlns:xlink="http://www.w3.org/1999/xlink" xml:space="preserve" width="2.75777in" height="1.94922in" style="shape-rendering:geometricPrecision; text-rendering:geometricPrecision; image-rendering:optimizeQuality; fill-rule:evenodd; clip-rule:evenodd" viewBox="0 0 1002 708"> <defs> <style type="text/css"> .fil0 {fill:#2656A1} </style> </defs> <g id="Layer_x0020_1"> <metadata id="CorelCorpID_0Corel-Layer"></metadata> <g id="_2049209890832"> <path class="fil0" d="M1001 330c-2,-10 -7,-20 -13,-28 -109,-131 -84,-100 -124,-150 -12,-14 -30,-22 -49,-22l-30 0c-8,0 -15,6 -15,14 0,8 7,15 15,15l30 0c10,0 20,4 26,12l12 14 -71 0c-21,0 -38,18 -38,40l0 83c0,22 17,39 38,39l190 0 0 218c0,11 -9,21 -20,21l-11 0c-5,-34 -26,-62 -55,-77 -64,-35 -143,5 -154,77 -19,0 -22,0 -44,0l0 -419c0,-4 3,-8 8,-8l30 0c9,0 15,-7 15,-15 0,-8 -6,-14 -15,-14l-30 0c-3,0 -6,0 -8,1l0 -97c0,-19 -16,-34 -34,-34l-479 0c-8,0 -14,7 -14,15 0,8 6,14 14,14l479 0c2,0 5,3 5,5l0 370 -630 0 0 -370c0,-2 3,-5 5,-5l83 0c8,0 14,-6 14,-14 0,-8 -6,-15 -14,-15l-83 0c-19,0 -34,15 -34,34l0 508c0,40 33,73 73,73l74 0c6,54 52,93 105,93 54,0 99,-40 105,-93l115 0c8,0 14,-7 14,-15 0,-8 -6,-14 -14,-14l-115 0c-19,-119 -191,-120 -210,0l-74 0c-24,0 -44,-20 -44,-44l0 -1 37 0c11,0 21,-5 28,-12 26,-25 8,-69 -28,-69l-37 0 0 -26 629 0 0 152 -128 0c-8,0 -14,6 -14,14 0,8 6,15 14,15l201 0c4,34 25,64 56,81 16,8 33,12 49,12 55,0 99,-40 106,-93l10 0c27,0 50,-23 50,-50 0,-243 0,-227 -1,-235zm-219 -12c-5,0 -9,-5 -9,-10l0 -83c0,-6 4,-11 9,-11l95 0 86 104 -181 0zm-455 268c2,9 2,16 2,16 0,33 -22,64 -55,74 -49,14 -99,-22 -99,-74 0,-93 134,-103 152,-16zm-261 -97c10,0 15,12 8,19 -5,4 -5,3 -45,3l0 -22 37 0zm847 113c0,32 -20,63 -54,74 -66,19 -122,-50 -90,-110 37,-70 144,-44 144,36l0 0z"></path> <path class="fil0" d="M252 661c40,0 67,-38 56,-75 -16,-57 -96,-57 -112,0 -12,37 17,75 56,75zm-24 -75c11,-18 37,-18 48,0 14,19 -1,46 -24,46 -24,0 -38,-27 -24,-46z"></path> <path class="fil0" d="M780 586c-11,37 17,75 57,75 32,0 58,-27 58,-59 0,-68 -96,-81 -115,-16zm83 29c-5,10 -15,17 -26,17 -24,0 -38,-27 -25,-46 6,-8 14,-13 25,-13 21,0 36,23 26,42z"></path> <path class="fil0" d="M809 401c8,0 14,-6 14,-15 0,-8 -6,-14 -14,-14l-49 0c-8,0 -15,6 -15,14 0,9 7,15 15,15l49 0z"></path> </g> </g> </svg>