<?xml version="1.0" encoding="UTF-8"?> <svg xmlns="http://www.w3.org/2000/svg" xmlns:xlink="http://www.w3.org/1999/xlink" xml:space="preserve" width="1.26337in" height="1.26337in" version="1.1" style="shape-rendering:geometricPrecision; text-rendering:geometricPrecision; image-rendering:optimizeQuality; fill-rule:evenodd; clip-rule:evenodd" viewBox="0 0 364 364"> <defs> <style type="text/css"> .str0 {stroke:#FEFEFE;stroke-width:0.86321} .fil0 {fill:#FEFEFE} .fil1 {fill:#2656A1} .fil2 {fill:#E32324} </style> </defs> <g id="Layer_x0020_1"> <metadata id="CorelCorpID_0Corel-Layer"></metadata> <circle class="fil0 str0" cx="182" cy="182" r="181"></circle> <g id="_2049215965712"> <path class="fil1" d="M122 96l151 0 25 0 -60 40 -85 0c-12,0 -28,10 -29,24l-4 48c0,1 0,1 0,2l-63 40 5 -31 11 -80c3,-24 25,-43 49,-43z"></path> <path class="fil2" d="M306 109l-10 115c-2,24 -25,44 -49,44l-154 0 -30 0 64 -40 0 0 91 0c13,0 26,-11 27,-24l4 -48 0 -6 57 -41z"></path> </g> </g> </svg> 