<svg xmlns="http://www.w3.org/2000/svg" xmlns:xlink="http://www.w3.org/1999/xlink" xml:space="preserve" width="2.36682in" height="2.28706in" style="shape-rendering:geometricPrecision; text-rendering:geometricPrecision; image-rendering:optimizeQuality; fill-rule:evenodd; clip-rule:evenodd" viewBox="0 0 889 859"> <defs> <style type="text/css"> .str0 {stroke:#373435;stroke-width:10.4274} .fil0 {fill:#FEFEFE} .fil1 {fill:#2656A1} .fil2 {fill:black} .fil3 {fill:#FEFEFE;fill-rule:nonzero} </style> </defs> <g id="Layer_x0020_1"> <metadata id="CorelCorpID_0Corel-Layer"></metadata> <g id="_2049211450208"> <circle class="fil0 str0" cx="459" cy="429" r="424"></circle> <circle class="fil1" cx="105" cy="686" r="105"></circle> <g> <path class="fil1" d="M570 537l40 -40 11 -12c5,-5 8,-11 8,-18 0,-7 -3,-14 -8,-19 -10,-10 -26,-10 -37,0l-11 12c0,0 0,0 0,0 0,0 0,0 0,0l-40 40 -58 -58c-1,-2 -4,-2 -5,0l-34 33c-1,2 -1,4 0,6l43 43 14 13 1 2 -38 38c0,0 0,0 0,0 -1,0 -1,1 -1,1 0,0 0,0 0,0l-20 51c0,2 0,3 1,4 1,1 2,2 3,2 1,0 1,-1 2,-1l50 -19c1,0 1,-1 2,-1 0,0 0,0 0,0l38 -39 58 58c1,1 2,1 3,1 1,0 2,0 3,-1l33 -33c1,-1 1,-2 1,-3 0,-1 0,-2 -1,-3l-58 -57zm20 -83c7,-7 19,-7 26,0 3,3 5,8 5,13 0,5 -2,9 -5,12l-9 9 -26 -25 9 -9zm-14 15l25 25 -37 37 -25 -26 37 -36zm-130 154l14 -36 23 22 -37 14zm44 -18l-26 -25 36 -36 25 26 -35 35zm102 20l-11 -11 7 -7c1,-1 1,-4 0,-5 -2,-2 -5,-2 -6,0l-7 6 -7 -7 2 -2c1,-2 1,-4 0,-6 -2,-2 -5,-2 -6,0l-2 2 -8 -8 7 -6c2,-2 2,-4 0,-6 -2,-1 -4,-1 -6,0l-6 7 -8 -8 2 -2c2,-1 2,-4 0,-5 -1,-2 -4,-2 -6,0l-2 1 -1 -1c0,0 0,0 0,0 0,0 0,0 0,0l-6 -6 7 -7c1,-1 1,-4 0,-5 -2,-2 -5,-2 -6,0l-7 6 -7 -7 1 -2c2,-2 2,-4 0,-6 -1,-2 -4,-2 -5,0l-2 2 -6 -6c0,0 0,0 0,0 0,0 0,0 0,0l-2 -2 7 -6c1,-2 1,-4 0,-6 -2,-2 -4,-2 -6,0l-6 7 -8 -8 2 -2c2,-1 2,-4 0,-5 -2,-2 -4,-2 -6,0l-2 1 -7 -7 6 -7c2,-1 2,-4 0,-5 -1,-2 -4,-2 -5,0l-7 6 -7 -7 1 -2c2,-2 2,-4 0,-6 -1,-2 -4,-2 -5,0l-2 2 -11 -11 27 -27 58 57c0,0 0,0 0,0 0,0 0,0 0,1l31 31c0,0 0,0 1,0 0,0 0,0 0,0l57 57 -27 28z"></path> <path class="fil2" d="M552 333c0,0 -98,-98 -98,-98 -7,-7 -16,-11 -27,-11l-132 0c-3,0 -5,3 -5,6l0 169c0,3 2,5 5,5 3,0 5,-2 5,-5l0 -164 127 0c15,0 27,12 27,27l0 65c0,4 3,6 6,6l65 0c15,0 27,12 27,27l0 78 11 0 0 -78c0,-10 -4,-20 -11,-27zm-121 252l-131 0 0 -164c0,-3 -2,-6 -5,-6 -3,0 -5,3 -5,6l0 169c0,3 2,6 5,6l136 0 0 -11zm34 -263l0 -60c0,0 0,0 0,0l60 60c0,0 0,0 0,0l-60 0z"></path> </g> <path class="fil3" d="M57 686c0,-13 2,-23 7,-30 5,-7 12,-11 23,-11 11,0 19,4 23,11 5,7 7,17 7,30 0,13 -2,23 -7,30 -4,8 -12,11 -23,11 -11,0 -18,-3 -23,-11 -5,-7 -7,-17 -7,-30zm45 0c0,-5 -1,-10 -1,-14 -1,-3 -2,-7 -4,-9 -3,-2 -6,-3 -10,-3 -4,0 -7,1 -9,3 -2,2 -4,6 -4,9 -1,4 -2,9 -2,14 0,6 1,10 1,14 1,4 3,7 5,10 2,2 5,3 9,3 4,0 7,-1 10,-3 2,-3 3,-6 4,-10 0,-4 1,-8 1,-14z"></path> <polygon id="1" class="fil3" points="127,661 127,647 154,647 154,728 138,728 138,661 "></polygon> </g> </g> </svg>