<svg xmlns="http://www.w3.org/2000/svg" xmlns:xlink="http://www.w3.org/1999/xlink" xml:space="preserve" width="2.36682in" height="2.28706in" style="shape-rendering:geometricPrecision; text-rendering:geometricPrecision; image-rendering:optimizeQuality; fill-rule:evenodd; clip-rule:evenodd" viewBox="0 0 902 871"> <defs> <style type="text/css"> .str0 {stroke:#373435;stroke-width:10.5803} .fil0 {fill:#FEFEFE} .fil4 {fill:#373435} .fil1 {fill:#29589E} .fil3 {fill:black} .fil2 {fill:#FEFEFE;fill-rule:nonzero} </style> </defs> <g id="Layer_x0020_1"> <metadata id="CorelCorpID_0Corel-Layer"></metadata> <g id="_2049211244432"> <circle class="fil0 str0" cx="466" cy="436" r="430"></circle> <circle class="fil1" cx="107" cy="696" r="107"></circle> <path class="fil2" d="M43 696c0,-13 3,-23 7,-30 5,-8 13,-11 24,-11 11,0 18,3 23,11 5,7 7,17 7,30 0,13 -2,24 -7,31 -5,8 -12,11 -23,11 -11,0 -19,-3 -24,-11 -4,-7 -7,-18 -7,-31zm46 0c0,-5 -1,-10 -2,-14 0,-3 -2,-7 -4,-9 -2,-2 -5,-4 -9,-4 -5,0 -8,2 -10,4 -2,2 -3,6 -4,9 -1,4 -1,9 -1,14 0,6 0,11 1,15 0,4 2,7 4,9 2,3 5,4 10,4 4,0 7,-1 9,-4 2,-2 4,-5 5,-9 0,-4 1,-9 1,-15z"></path> <path id="1" class="fil2" d="M116 678c1,-8 3,-13 8,-17 5,-5 12,-7 20,-7 5,0 10,1 14,3 4,2 7,5 9,8 2,3 3,7 3,11 0,5 -2,9 -4,12 -2,3 -5,6 -9,7l0 0c5,2 8,4 10,7 3,4 4,8 4,14 0,4 -1,8 -3,12 -2,3 -5,6 -9,8 -4,2 -9,3 -15,3 -8,0 -15,-2 -20,-6 -6,-5 -9,-11 -9,-19l15 0c1,3 2,6 4,9 3,2 6,3 10,3 4,0 7,-1 9,-3 2,-2 3,-5 3,-9 0,-4 -1,-7 -4,-9 -3,-2 -8,-3 -14,-3l-3 0 0 -13 3 0c11,0 16,-4 16,-11 0,-3 -1,-6 -2,-7 -2,-2 -5,-3 -9,-3 -3,0 -6,1 -8,3 -2,2 -3,4 -3,7l-16 0z"></path> <path class="fil3" d="M593 358c0,0 -99,-100 -99,-100 -7,-7 -17,-11 -27,-11l-134 0c-3,0 -6,3 -6,6l0 172c0,3 3,5 6,5 3,0 5,-2 5,-5l0 -167 129 0c15,0 27,12 27,28l0 66c0,3 3,6 6,6l66 0c15,0 28,12 28,27l0 228 -256 0 0 -166c0,-3 -2,-6 -5,-6 -3,0 -6,3 -6,6l0 172c0,3 3,5 6,5l266 0c3,0 6,-2 6,-5l0 -234c0,-11 -5,-20 -12,-27zm-88 -12l0 -60c0,0 0,-1 0,-1l62 61c-1,0 -1,0 -1,0l-61 0z"></path> <path class="fil4" d="M493 464c-2,-3 -4,-6 -5,-10 0,0 0,0 0,-1 -1,1 -1,1 -2,1 -2,0 -4,-1 -6,-2 -2,-2 -4,-4 -4,-7 -2,1 -3,1 -5,1 -2,0 -4,-1 -6,-2 -2,-2 -3,-4 -4,-7 -2,1 -3,2 -5,2 -2,0 -4,-1 -6,-2 0,-1 -1,-2 -2,-2 0,1 -1,2 -2,3 -2,2 -6,4 -9,4 -2,0 -5,-1 -7,-3 -4,-3 -6,-7 -7,-13 -1,-7 1,-13 5,-17 3,-3 5,-4 8,-4l1 0c2,0 5,1 8,3 1,2 3,4 4,6 0,0 0,0 0,0 4,-4 9,-4 13,0 2,1 3,3 4,6 3,-2 8,-2 11,1 2,2 3,4 4,6 3,-2 8,-1 11,2 2,2 4,5 4,9 3,0 7,0 9,3 3,2 5,6 5,11 0,4 -1,8 -4,11 -2,2 -4,3 -7,3 -2,0 -4,-1 -6,-2zm-48 -41c0,-4 -2,-8 -4,-10 -2,-1 -3,-2 -4,-2 -2,0 -3,1 -5,2 -2,3 -4,7 -3,12 0,0 0,0 0,0 1,4 2,7 5,9 2,2 5,2 8,-1 2,-2 3,-6 3,-10zm16 2c-1,-3 -2,-5 -3,-7 -1,0 -2,-1 -2,-1 -1,0 -2,1 -3,1 -2,2 -2,5 -2,8 0,0 0,0 0,0 1,3 1,5 3,6 2,1 3,1 4,0 2,-2 3,-4 3,-7zm15 7c-1,-3 -2,-5 -3,-7 -1,0 -2,-1 -2,-1 -1,0 -2,1 -3,2 -2,1 -2,4 -2,7 0,0 0,0 0,1 1,2 1,4 3,5 2,1 3,1 4,0 2,-2 3,-4 3,-7zm14 8c0,-3 -1,-6 -2,-7 -1,-1 -2,-1 -3,-1 0,0 -1,0 -2,1 -1,1 -1,2 -2,3 0,1 0,1 0,1 0,1 0,3 0,4 0,0 0,0 0,0 0,3 1,4 3,6 1,1 3,1 4,-1 2,-1 3,-4 2,-6zm14 12c0,-3 -1,-5 -3,-7 -1,0 -2,-1 -2,-1 -1,0 -2,1 -3,1 -1,2 -2,5 -2,8 0,0 0,0 0,0 1,3 2,5 3,6 2,1 3,1 5,0 1,-2 2,-4 2,-7zm-49 -3c13,3 24,10 34,20 10,10 15,22 13,35 0,8 -2,15 -5,22l-3 12c-3,11 -4,22 -4,33 0,0 0,0 0,0 0,2 0,4 0,5 0,4 0,9 0,13 -1,7 -3,13 -8,18 -5,4 -11,7 -18,7 -1,0 -1,0 -2,0l0 0c-12,0 -24,-9 -27,-22 -1,-2 -1,-5 -1,-7 0,-2 1,-4 3,-4 2,0 3,2 3,3 0,3 0,5 1,7 2,10 12,18 23,17 11,-1 19,-9 20,-20 0,-4 0,-7 0,-11 0,-2 0,-4 0,-6 0,-12 1,-23 4,-34 0,0 0,0 0,0l4 -13c0,0 0,0 0,0 2,-6 3,-13 4,-20 2,-12 -2,-22 -11,-31 -9,-9 -20,-15 -31,-18 -12,-3 -21,3 -25,14 -2,8 -1,15 4,22 1,1 2,3 3,5 3,4 7,9 10,14 8,14 11,28 7,42 -1,5 -4,10 -7,15 0,0 -1,1 -1,2 -1,1 -2,2 -2,4 -1,1 -3,2 -4,1 -2,0 -3,-2 -2,-4 1,-1 2,-3 3,-5 0,0 0,-1 1,-2 2,-4 5,-8 6,-13 3,-12 1,-25 -6,-37 -3,-4 -7,-9 -10,-14 -1,-2 -2,-3 -3,-5 -6,-8 -7,-17 -4,-26 4,-15 17,-23 31,-19z"></path> <rect class="fil1" x="414" y="393" width="104.942" height="10.9507"></rect> </g> </g> </svg>