<svg xmlns="http://www.w3.org/2000/svg" xmlns:xlink="http://www.w3.org/1999/xlink" xml:space="preserve" width="2.36682in" height="2.28706in" style="shape-rendering:geometricPrecision; text-rendering:geometricPrecision; image-rendering:optimizeQuality; fill-rule:evenodd; clip-rule:evenodd" viewBox="0 0 12645 12219"> <defs> <style type="text/css"> .str0 {stroke:#373435;stroke-width:148.394} .fil0 {fill:#FEFEFE} .fil1 {fill:#E32324} .fil3 {fill:black} .fil2 {fill:#FEFEFE;fill-rule:nonzero} </style> </defs> <g id="Layer_x0020_1"> <metadata id="CorelCorpID_0Corel-Layer"></metadata> <g id="_2049209895248"> <circle class="fil0 str0" cx="6536" cy="6109" r="6035"></circle> <circle class="fil1" cx="1501" cy="9768" r="1501"></circle> <path class="fil2" d="M606 9767c0,-182 33,-325 99,-428 65,-104 175,-155 328,-155 153,0 262,51 328,155 66,103 99,246 99,428 0,184 -33,328 -99,432 -66,105 -175,157 -328,157 -153,0 -263,-52 -328,-157 -66,-104 -99,-248 -99,-432zm636 0c0,-78 -5,-143 -15,-197 -10,-53 -31,-96 -61,-130 -30,-34 -74,-51 -133,-51 -59,0 -104,17 -134,51 -30,34 -50,77 -60,130 -10,54 -15,119 -15,197 0,80 5,148 14,202 10,54 30,98 60,131 31,34 76,50 135,50 59,0 104,-16 134,-50 31,-33 51,-77 60,-131 10,-54 15,-122 15,-202z"></path> <path id="1" class="fil2" d="M1697 10109c101,-84 182,-155 242,-211 60,-57 110,-115 150,-177 40,-61 60,-121 60,-180 0,-54 -12,-96 -37,-126 -26,-31 -65,-46 -118,-46 -52,0 -93,17 -121,53 -29,35 -44,83 -45,144l-215 0c4,-126 42,-222 113,-287 72,-66 162,-99 272,-99 120,0 212,32 276,96 65,64 97,148 97,252 0,83 -22,161 -66,236 -45,75 -95,140 -152,196 -57,55 -132,122 -223,200l466 0 0 183 -781 0 0 -164 82 -70z"></path> <path class="fil3" d="M8324 5019c0,-1 -1395,-1395 -1395,-1395 -98,-98 -234,-159 -383,-159l-1880 0c-43,0 -78,35 -78,78l0 2412c0,42 35,77 78,77 43,0 77,-35 77,-77l0 -2335 1803 0c213,0 387,174 387,387l0 930c0,43 35,78 78,78l929 0c214,0 388,173 388,387l0 3197 -3585 0 0 -2335c0,-42 -34,-77 -77,-77 -43,0 -78,35 -78,77l0 2412c0,43 35,78 78,78l3739 0c43,0 78,-35 78,-78l0 -3274c0,-150 -61,-285 -159,-383zm-1236 -159l0 -853c0,-1 0,-3 0,-5l858 858c-2,0 -4,0 -6,0l-852 0z"></path> <path class="fil1" d="M6920 6504c-40,-32 -65,-78 -72,-136 0,-3 -1,-7 -1,-10 -10,3 -21,4 -31,4 -28,0 -57,-9 -82,-29 -30,-23 -52,-55 -63,-94 -20,12 -42,17 -64,17 -28,0 -56,-9 -81,-29 -30,-23 -51,-54 -63,-92 -21,13 -43,19 -66,19 -28,0 -56,-10 -81,-29 -11,-9 -21,-18 -30,-29 -9,16 -19,30 -31,42 -34,37 -78,55 -122,55 -36,0 -72,-12 -103,-37 -55,-42 -86,-101 -96,-180 -14,-97 11,-183 69,-242 35,-35 77,-53 119,-53l2 0c40,0 80,16 114,47 24,22 43,48 57,79 0,0 1,0 1,-1 53,-53 129,-55 184,-4 24,22 42,51 53,85 50,-31 111,-25 157,17 25,23 43,53 54,87 49,-29 109,-23 155,19 36,33 59,83 64,138 41,-11 86,0 122,33 39,36 63,91 65,153 3,61 -17,118 -52,156 -27,29 -61,43 -96,43 -28,0 -57,-10 -82,-29zm-681 -569c-3,-58 -24,-112 -59,-143 -18,-17 -37,-25 -57,-25 -20,0 -41,9 -59,28 -39,39 -55,99 -45,169 0,0 1,1 1,1 6,56 26,95 62,123 37,28 79,25 111,-9 31,-33 48,-87 46,-144zm221 23c-2,-38 -16,-73 -38,-93 -10,-9 -21,-14 -32,-14 -11,0 -23,5 -33,16 -25,25 -35,64 -28,110 0,0 0,0 0,1 4,36 17,61 40,79 21,16 43,15 61,-5 20,-21 31,-56 30,-94zm210 103c-2,-38 -16,-73 -38,-93 -10,-10 -21,-15 -32,-15 -12,0 -23,6 -33,16 -25,25 -35,64 -29,110 0,1 0,1 0,1 5,37 18,62 40,80 21,16 44,14 62,-6 20,-21 31,-56 30,-93zm208 106c-1,-38 -15,-73 -37,-93 -11,-10 -22,-15 -33,-15 -11,0 -22,6 -33,16 -12,12 -20,27 -25,44 -1,4 -2,8 -2,11 -4,17 -4,35 -1,55 0,1 0,1 0,1 5,37 17,62 40,79 21,17 43,15 62,-5 20,-21 31,-56 29,-93zm186 170c-1,-38 -15,-73 -37,-93 -11,-9 -22,-14 -32,-14 -12,0 -23,5 -34,16 -24,25 -34,64 -28,110 0,0 0,0 0,1 5,36 18,61 40,79 21,16 44,15 62,-5 20,-21 31,-56 29,-94zm-676 -40c177,44 336,138 473,279 143,148 206,316 185,499 -12,109 -36,211 -70,304l-53 171c-36,145 -52,299 -48,458 0,0 0,0 0,1 0,25 0,50 1,75 1,56 2,115 -3,173 -8,98 -47,185 -114,250 -66,65 -153,102 -251,108 -8,1 -15,1 -22,1l-1 0c-179,0 -345,-132 -385,-310 -8,-37 -12,-73 -12,-108 -1,-24 19,-43 42,-43 24,-1 43,19 44,43 0,29 3,59 10,89 32,143 175,252 318,243 158,-10 273,-123 286,-280 4,-54 3,-107 2,-164 -1,-25 -1,-51 -1,-77 -4,-166 13,-328 51,-481 0,-1 0,-1 1,-2l53 -173c0,-1 1,-2 1,-3 32,-86 54,-182 66,-285 18,-158 -35,-298 -162,-429 -125,-129 -270,-215 -432,-255 -164,-41 -296,37 -345,202 -31,109 -16,206 47,299 16,24 32,47 48,71 45,66 92,134 135,202 119,189 154,386 105,586 -19,75 -61,142 -101,207 -6,9 -11,17 -16,26 -12,19 -23,39 -31,59 -10,22 -35,32 -57,22 -22,-10 -32,-35 -22,-57 10,-23 22,-46 37,-69 5,-9 10,-17 16,-26 37,-59 75,-121 90,-183 44,-176 12,-351 -94,-519 -42,-67 -88,-135 -133,-200 -16,-23 -32,-47 -48,-71 -77,-113 -97,-238 -58,-371 60,-208 240,-313 448,-262z"></path> </g> </g> </svg>