<svg xmlns="http://www.w3.org/2000/svg" xmlns:xlink="http://www.w3.org/1999/xlink" xml:space="preserve" width="2.36682in" height="2.28706in" style="shape-rendering:geometricPrecision; text-rendering:geometricPrecision; image-rendering:optimizeQuality; fill-rule:evenodd; clip-rule:evenodd" viewBox="0 0 15919 15382"> <defs> <style type="text/css"> .str0 {stroke:#373435;stroke-width:186.815} .fil0 {fill:#FEFEFE} .fil1 {fill:#E32324} .fil3 {fill:black} .fil2 {fill:#FEFEFE;fill-rule:nonzero} </style> </defs> <g id="Layer_x0020_1"> <metadata id="CorelCorpID_0Corel-Layer"></metadata> <g id="_2049209894896"> <circle class="fil0 str0" cx="8228" cy="7691" r="7598"></circle> <circle class="fil1" cx="1890" cy="12297" r="1890"></circle> <path class="fil2" d="M763 12296c0,-229 41,-409 124,-539 83,-131 221,-196 413,-196 193,0 330,65 413,196 83,130 125,310 125,539 0,231 -42,412 -125,544 -83,131 -220,197 -413,197 -192,0 -330,-66 -413,-197 -83,-132 -124,-313 -124,-544zm800 0c0,-98 -6,-181 -19,-248 -13,-67 -38,-122 -76,-164 -37,-42 -94,-64 -168,-64 -74,0 -130,22 -168,64 -38,42 -63,97 -76,164 -12,67 -19,150 -19,248 0,101 6,186 18,254 12,68 37,124 76,165 38,42 95,63 169,63 74,0 131,-21 169,-63 39,-41 64,-97 76,-165 12,-68 18,-153 18,-254z"></path> <path id="1" class="fil2" d="M2037 12758l0 -219 651 -932 325 0 0 908 175 0 0 243 -175 0 0 283 -279 0 0 -283 -697 0zm715 -852l-408 609 408 0 0 -609z"></path> <path class="fil3" d="M10479 6318c0,0 -1756,-1756 -1756,-1756 -123,-123 -294,-200 -482,-200l-2367 0c-54,0 -98,44 -98,98l0 3036c0,54 44,98 98,98 54,0 98,-44 98,-98l0 -2939 2269 0c269,0 487,219 487,488l0 1170c0,54 44,98 98,98l1170 0c269,0 488,219 488,487l0 4025 -4512 0 0 -2939c0,-54 -44,-97 -98,-97 -54,0 -98,43 -98,97l0 3037c0,54 44,97 98,97l4707 0c54,0 98,-43 98,-97l0 -4123c0,-188 -77,-358 -200,-482zm-1556 -200l0 -1073c0,-2 0,-5 0,-7l1080 1080c-2,0 -4,0 -7,0l-1073 0z"></path> <rect class="fil1" x="7119" y="6933" width="2217" height="193"></rect> <g> <path class="fil3" d="M8297 7123l-1030 0c-40,0 -72,32 -72,71l0 3655c0,39 32,72 72,72l1030 0c39,0 71,-33 71,-72l0 -3655c0,-39 -32,-71 -71,-71zm-72 484l-177 0c-40,0 -72,32 -72,72 0,39 32,72 72,72l177 0 0 239 -177 0c-40,0 -72,32 -72,72 0,40 32,72 72,72l177 0 0 242 -339 0c-40,0 -72,32 -72,71 0,40 32,72 72,72l339 0 0 240 -177 0c-40,0 -72,32 -72,72 0,39 32,71 72,71l177 0 0 241 -177 0c-40,0 -72,32 -72,72 0,39 32,71 72,71l177 0 0 238 -339 0c-40,0 -72,32 -72,72 0,39 32,71 72,71l339 0 0 240 -177 0c-40,0 -72,32 -72,72 0,40 32,72 72,72l177 0 0 239 -177 0c-40,0 -72,33 -72,72 0,40 32,72 72,72l177 0 0 341 -886 0 0 -3509 886 0 0 341z"></path> <path class="fil3" d="M9189 7827c39,0 71,-32 71,-72 0,-17 -6,-34 -17,-47l-222 -386c-19,-34 -63,-46 -98,-26 -11,6 -20,15 -26,26l-229 397c-19,34 -8,78 27,98 11,6 23,10 36,10l157 0 0 2389 -157 0c-40,0 -72,32 -72,72 0,13 3,25 9,36l229 397c20,34 64,46 98,26 11,-6 20,-15 26,-26l229 -397c20,-34 8,-78 -26,-98 -11,-6 -23,-10 -36,-10l-157 0 0 -2389 158 0zm-125 2533l-104 182 -105 -182 209 0zm-209 -2677l105 -181 104 181 -209 0z"></path> </g> </g> </g> </svg>