<svg xmlns="http://www.w3.org/2000/svg" xmlns:xlink="http://www.w3.org/1999/xlink" xml:space="preserve" width="4.97536in" height="4.33117in" style="shape-rendering:geometricPrecision; text-rendering:geometricPrecision; image-rendering:optimizeQuality; fill-rule:evenodd; clip-rule:evenodd" viewBox="0 0 4935 4296"> <defs> <style type="text/css"> .fil0 {fill:#4A4A4A} .fil1 {fill:#D6D6D6;fill-rule:nonzero} </style> </defs> <g id="Layer_x0020_1"> <metadata id="CorelCorpID_0Corel-Layer"></metadata> <g id="_2398648036768"> <path class="fil0" d="M1311 383c15,-29 25,-58 28,-88 11,-104 -50,-212 -114,-295 -90,61 -163,162 -177,270 -11,89 18,182 69,257 -78,67 -152,140 -219,219 5,-46 2,-93 -12,-135 -35,-107 -125,-182 -233,-214 -58,91 -74,208 -43,312 26,84 84,159 158,207 -31,45 -60,92 -88,140 -21,37 -40,74 -59,111 -5,-34 -15,-68 -31,-98 -50,-96 -180,-151 -279,-150 -54,93 -45,223 13,315 48,76 125,126 207,145 -32,90 -58,181 -77,273 -12,-31 -29,-61 -55,-87 -80,-84 -195,-111 -286,-122 -25,95 -20,222 80,321 57,55 147,94 231,99 -7,86 -9,172 -4,257 1,25 3,49 6,74 -24,-30 -60,-60 -118,-96 -85,-53 -209,-51 -308,-38 37,104 63,195 148,261 73,57 203,54 302,29 25,116 63,233 114,349 -58,-37 -124,-63 -191,-71 -97,-12 -197,22 -283,69 44,44 107,94 158,129 52,34 112,59 174,61 73,2 140,-36 187,-93 54,107 119,215 196,322 -12,-4 -24,-7 -36,-9 -68,-11 -139,12 -195,53 -55,42 -109,101 -138,164 60,31 120,63 185,80 66,17 138,18 199,-11 39,-18 99,-59 129,-100 77,84 161,159 253,226 -50,-3 -101,3 -149,14 -106,26 -188,108 -234,208 87,72 209,97 315,65 94,-28 174,-99 216,-189 54,32 109,61 168,89 245,115 503,179 734,234 -183,59 -345,136 -464,263 -21,23 -20,57 2,78 11,10 24,15 38,15 15,0 29,-6 40,-17 141,-149 352,-223 600,-287 248,64 459,138 599,287 11,11 26,17 40,17 14,0 27,-5 38,-15 22,-21 23,-55 2,-78 -119,-127 -281,-204 -463,-263 230,-55 489,-119 734,-234 58,-28 114,-57 167,-89 42,90 122,161 216,189 107,32 228,7 315,-65 -46,-100 -128,-182 -234,-208 -48,-11 -99,-17 -148,-14 92,-67 176,-142 253,-226 29,41 90,82 129,100 61,29 132,28 198,11 65,-17 126,-49 185,-80 -29,-63 -82,-122 -138,-164 -55,-41 -127,-64 -195,-53 -11,2 -23,5 -35,9 76,-107 142,-215 196,-322 46,57 113,95 187,93 62,-2 121,-27 173,-61 52,-35 114,-85 158,-129 -86,-47 -186,-81 -283,-69 -67,8 -133,34 -191,71 52,-116 90,-233 114,-349 99,25 229,28 303,-29 85,-66 111,-157 147,-261 -99,-13 -222,-15 -307,38 -59,36 -94,66 -118,96 2,-25 4,-49 5,-74 5,-85 4,-171 -4,-257 84,-5 174,-44 231,-99 101,-99 105,-226 80,-321 -90,11 -205,38 -286,122 -26,26 -43,56 -55,87 -19,-92 -44,-183 -76,-273 81,-19 158,-69 206,-145 58,-92 68,-222 13,-315 -99,-1 -228,54 -279,150 -16,30 -26,64 -31,98 -18,-37 -38,-74 -59,-111 -28,-48 -57,-95 -88,-140 75,-48 132,-123 158,-207 31,-104 16,-221 -42,-312 -108,32 -198,107 -234,214 -14,42 -17,89 -12,135 -67,-79 -140,-152 -218,-219 51,-75 79,-168 68,-257 -14,-108 -87,-209 -177,-270 -64,83 -124,191 -113,295 3,30 13,59 27,88 -50,-33 -102,-63 -155,-90 -11,-6 -23,-7 -34,-5 -59,-65 -135,-113 -219,-138 -57,-17 -117,-23 -175,-9 -57,13 -111,48 -140,99 43,95 166,184 270,198 77,10 162,-17 227,-65 5,7 12,14 21,18 78,40 154,87 225,139 -36,-6 -72,-7 -108,-2 -106,15 -203,82 -255,176 136,88 276,127 424,63 38,-17 89,-49 112,-93 75,71 144,148 208,232 -5,-2 -11,-3 -16,-5 -136,-43 -308,36 -434,103 62,95 171,158 285,163 99,4 200,-36 270,-106 10,17 20,33 29,50 55,95 101,193 137,293 -52,-43 -115,-73 -181,-82 -105,-16 -216,20 -297,88 65,85 151,160 258,172 90,9 183,-12 259,-61 33,113 55,228 66,344 -37,-49 -86,-89 -142,-112 -105,-42 -230,-28 -322,37 66,81 130,190 227,231 75,31 166,35 244,9 0,28 -1,56 -3,84 -4,87 -18,174 -39,262 -25,-56 -72,-127 -139,-168 -90,-55 -183,-57 -317,-41 30,95 93,209 177,262 67,42 170,55 258,25 -32,106 -76,213 -132,320 -9,-35 -27,-69 -50,-95 -43,-49 -108,-73 -167,-102 -59,-29 -115,-45 -168,-85 -29,138 -3,231 84,312 72,67 161,87 240,79 -35,58 -72,115 -114,172 -22,32 -46,62 -69,91 -6,-65 -40,-126 -89,-168 -72,-63 -172,-92 -272,-112 -20,100 17,217 73,295 28,40 67,75 116,92 20,7 42,11 65,11 -104,104 -215,188 -330,256 4,-16 6,-34 6,-51 0,-144 -112,-274 -256,-329 -29,94 -58,192 -38,279 19,77 79,139 161,170 -254,126 -522,190 -772,249 -56,14 -111,27 -165,41 -55,-14 -110,-27 -166,-41 -250,-59 -517,-123 -772,-249 83,-31 143,-93 161,-170 21,-87 -8,-185 -37,-279 -145,55 -257,185 -257,329 0,17 2,35 6,51 -115,-68 -226,-152 -329,-256 22,0 44,-4 64,-11 49,-17 88,-52 117,-92 56,-78 93,-195 72,-295 -99,20 -199,49 -272,112 -49,42 -83,103 -88,168 -24,-29 -47,-59 -70,-91 -41,-57 -79,-114 -113,-172 79,8 167,-12 239,-79 87,-81 113,-174 84,-312 -52,40 -109,56 -168,85 -59,29 -123,53 -167,102 -22,26 -40,60 -50,95 -56,-107 -100,-214 -132,-320 88,30 192,17 258,-25 85,-53 148,-167 177,-262 -134,-16 -227,-14 -317,41 -67,41 -114,112 -139,168 -21,-88 -34,-175 -39,-262 -2,-28 -2,-56 -3,-84 79,26 170,22 244,-9 97,-41 161,-150 228,-231 -92,-65 -218,-79 -322,-37 -57,23 -106,63 -143,112 11,-116 33,-231 66,-344 76,49 169,70 259,61 108,-12 193,-87 259,-172 -82,-68 -193,-104 -298,-88 -66,9 -129,39 -181,82 37,-100 82,-198 137,-293 9,-17 19,-33 29,-50 71,70 171,110 270,106 114,-5 224,-68 286,-163 -127,-67 -298,-146 -435,-103 -5,2 -10,3 -15,5 63,-84 133,-161 208,-232 23,44 73,76 111,93 148,64 289,25 424,-63 -52,-94 -149,-161 -255,-176 -36,-5 -72,-4 -108,2 72,-52 147,-99 225,-139 8,-4 14,-9 18,-15 66,49 153,78 231,67 103,-13 226,-102 269,-197 -29,-51 -83,-86 -140,-100 -57,-13 -118,-7 -175,9 -81,24 -156,71 -214,134 -13,-4 -27,-2 -39,4 -53,27 -105,57 -155,90z"></path> <polygon class="fil1" points="1564,1184 1564,882 2091,882 2091,2271 1752,2271 1752,1184 "></polygon> <path id="1" class="fil1" d="M3292 1165l-594 0 0 263c25,-28 61,-51 106,-69 46,-17 96,-26 149,-26 95,0 174,21 237,64 63,44 108,99 138,168 29,68 43,143 43,223 0,148 -41,266 -125,352 -84,87 -202,131 -354,131 -102,0 -190,-18 -265,-52 -74,-35 -132,-84 -173,-146 -40,-62 -62,-134 -66,-215l317 0c8,39 26,72 56,98 29,26 69,39 120,39 59,0 104,-19 133,-57 29,-38 43,-89 43,-152 0,-63 -15,-110 -45,-143 -31,-33 -75,-50 -133,-50 -44,0 -79,11 -107,32 -28,21 -46,48 -55,83l-314 0 0 -828 889 0 0 285z"></path> <path class="fil1" d="M1745 2429c50,0 95,10 133,31 38,20 67,48 88,84 21,37 31,79 31,126 0,48 -10,89 -31,126 -21,37 -50,65 -89,85 -38,20 -82,31 -132,31l-181 0 0 -483 181 0zm-8 381c44,0 79,-12 104,-37 24,-24 37,-58 37,-103 0,-44 -13,-79 -37,-103 -25,-25 -60,-37 -104,-37l-56 0 0 280 56 0z"></path> <path id="1" class="fil1" d="M2364 2826l-180 0 -29 86 -123 0 174 -483 136 0 175 483 -125 0 -28 -86zm-31 -90l-59 -177 -60 177 119 0z"></path> <polygon id="2" class="fil1" points="2983,2429 2816,2752 2816,2912 2699,2912 2699,2752 2532,2429 2665,2429 2759,2631 2851,2429 "></polygon> <path id="3" class="fil1" d="M3205 2916c-35,0 -67,-5 -95,-17 -28,-11 -50,-28 -67,-51 -16,-22 -25,-49 -26,-81l125 0c2,18 8,32 18,41 11,10 25,14 42,14 17,0 31,-4 41,-12 10,-8 15,-19 15,-33 0,-12 -4,-22 -12,-30 -8,-7 -18,-14 -30,-19 -11,-5 -28,-11 -49,-17 -32,-10 -57,-19 -77,-29 -19,-10 -36,-24 -50,-42 -15,-19 -22,-44 -22,-74 0,-45 16,-80 49,-105 33,-26 75,-39 127,-39 53,0 96,13 129,39 32,25 49,60 52,106l-127 0c-1,-16 -7,-28 -18,-37 -10,-9 -24,-13 -40,-13 -14,0 -26,3 -34,11 -9,7 -13,18 -13,32 0,16 7,28 22,37 14,9 37,18 68,28 31,11 57,21 76,30 20,10 36,24 51,42 14,19 21,42 21,71 0,27 -7,52 -21,75 -14,22 -34,40 -61,53 -26,14 -58,20 -94,20z"></path> </g> </g> </svg>