<svg xmlns="http://www.w3.org/2000/svg" xmlns:xlink="http://www.w3.org/1999/xlink" xml:space="preserve" width="1.26337in" height="1.26337in" style="shape-rendering:geometricPrecision; text-rendering:geometricPrecision; image-rendering:optimizeQuality; fill-rule:evenodd; clip-rule:evenodd" viewBox="0 0 206 206"> <defs> <style type="text/css"> .str0 {stroke:#373435;stroke-width:0.488574} .fil0 {fill:#FEFEFE} .fil1 {fill:#2C2A2C} </style> </defs> <g id="Layer_x0020_1"> <metadata id="CorelCorpID_0Corel-Layer"></metadata> <g id="_2397179567216"> <circle class="fil0 str0" cx="103" cy="103" r="103"></circle> <g> <path class="fil1" d="M147 76l-27 27 27 27c1,-1 1,-2 1,-3l0 -48c0,-1 0,-2 -1,-3z"></path> <path class="fil1" d="M108 107l35 -35c-1,-1 -2,-1 -3,-1l-74 0c-2,0 -3,0 -4,1l35 35c3,3 8,3 11,0z"></path> <path class="fil1" d="M59 76c-1,1 -1,2 -1,3l0 48c0,1 0,2 1,3l27 -27 -27 -27z"></path> <path class="fil1" d="M112 110c-5,6 -13,6 -18,0l-4 -3 -28 27c1,0 2,1 4,1l74 0c1,0 2,-1 3,-1l-27 -27 -4 3z"></path> </g> </g> </g> </svg>