<svg xmlns="http://www.w3.org/2000/svg" xmlns:xlink="http://www.w3.org/1999/xlink" xml:space="preserve" width="1.26337in" height="1.26337in" style="shape-rendering:geometricPrecision; text-rendering:geometricPrecision; image-rendering:optimizeQuality; fill-rule:evenodd; clip-rule:evenodd" viewBox="0 0 347 347"> <defs> <style type="text/css"> .str0 {stroke:#373435;stroke-width:0.824125} .fil0 {fill:#FEFEFE} .fil1 {fill:black} </style> </defs> <g id="Layer_x0020_1"> <metadata id="CorelCorpID_0Corel-Layer"></metadata> <g id="_2398647512928"> <circle class="fil0 str0" cx="174" cy="174" r="173"></circle> <path class="fil1" d="M157 183c-1,0 -12,0 -17,0 -3,0 -4,-2 -4,-4 0,-7 0,-14 0,-21 0,-3 1,-4 4,-4l17 0c0,0 0,-11 0,-15 0,-7 1,-14 5,-20 3,-6 8,-10 15,-13 4,-1 9,-2 14,-2l17 0c2,0 3,1 3,3l0 20c0,3 -1,4 -3,4 -5,0 -10,0 -15,0 -4,0 -7,2 -7,7 0,5 0,10 0,16l21 0c2,0 3,1 3,4l0 21c0,2 0,3 -3,3 -7,0 -20,0 -21,0l0 57c0,3 -1,4 -4,4 -7,0 -14,0 -21,0 -3,0 -4,-1 -4,-4 0,-18 0,-56 0,-56z"></path> </g> </g> </svg>