<svg xmlns="http://www.w3.org/2000/svg" xmlns:xlink="http://www.w3.org/1999/xlink" xml:space="preserve" width="1.26337in" height="1.26337in" style="shape-rendering:geometricPrecision; text-rendering:geometricPrecision; image-rendering:optimizeQuality; fill-rule:evenodd; clip-rule:evenodd" viewBox="0 0 459 459"> <defs> <style type="text/css"> .str0 {stroke:#373435;stroke-width:1.08924} .fil0 {fill:#FEFEFE} .fil1 {fill:#2C2A2C} </style> </defs> <g id="Layer_x0020_1"> <metadata id="CorelCorpID_0Corel-Layer"></metadata> <g id="_2397179552880"> <circle class="fil0 str0" cx="229" cy="229" r="229"></circle> <g> <path class="fil1" d="M305 275c0,17 -13,30 -30,30l-91 0c-17,0 -30,-13 -30,-30l0 -91c0,-17 13,-30 30,-30l91 0c17,0 30,13 30,30l0 91zm-30 -137l-91 0c-25,0 -46,21 -46,46l0 91c0,25 21,45 46,45l91 0c25,0 45,-20 45,-45l0 -91c0,-25 -20,-46 -45,-46z"></path> <path class="fil1" d="M279 169c6,0 11,5 11,11 0,6 -5,11 -11,11 -7,0 -12,-5 -12,-11 0,-6 5,-11 12,-11z"></path> <path class="fil1" d="M229 260c-16,0 -30,-14 -30,-31 0,-16 14,-30 30,-30 17,0 31,14 31,30 0,17 -14,31 -31,31zm0 -76c-25,0 -45,20 -45,45 0,25 20,46 45,46 25,0 46,-21 46,-46 0,-25 -21,-45 -46,-45z"></path> </g> </g> </g> </svg>