<svg xmlns="http://www.w3.org/2000/svg" xmlns:xlink="http://www.w3.org/1999/xlink" xml:space="preserve" width="10.5017in" height="2.94036in" style="shape-rendering:geometricPrecision; text-rendering:geometricPrecision; image-rendering:optimizeQuality; fill-rule:evenodd; clip-rule:evenodd" viewBox="0 0 10502 2940"> <defs> <style type="text/css"> .fil0 {fill:none} .fil4 {fill:#FEFEFE} .fil2 {fill:#0A5CA6} .fil3 {fill:#E82427} .fil1 {fill:white} </style> </defs> <g id="Layer_x0020_1"> <metadata id="CorelCorpID_0Corel-Layer"></metadata> <g id="_2499585851184"> <g> <rect class="fil0" width="10502" height="2940"></rect> </g> <path class="fil1" d="M8920 2384c-487,0 -884,-396 -884,-883 0,-487 397,-883 884,-883 487,0 884,396 884,883 0,487 -397,883 -884,883z"></path> <g> <rect class="fil0" width="10502" height="2940"></rect> </g> <g> <path class="fil2" d="M8920 325c-649,0 -1176,527 -1176,1176 0,648 527,1176 1176,1176 648,0 1176,-528 1176,-1176 0,-649 -528,-1176 -1176,-1176l0 0zm0 2056c-486,0 -881,-395 -881,-880 0,-486 395,-881 881,-881 485,0 881,395 881,881 -1,485 -396,880 -881,880z"></path> </g> <g id="_2499581775920"> <rect class="fil0" width="10502" height="2940"></rect> </g> <g> <path class="fil3" d="M8920 2720c-672,0 -1219,-547 -1219,-1219 0,-672 547,-1219 1219,-1219 672,0 1219,547 1219,1219 0,672 -547,1219 -1219,1219l0 0zm0 -2429c-667,0 -1210,543 -1210,1210 0,667 543,1210 1210,1210 667,0 1210,-543 1210,-1210 0,-667 -543,-1210 -1210,-1210z"></path> </g> <g> <rect class="fil0" width="10502" height="2940"></rect> </g> <path class="fil3" d="M8745 1531c68,0 68,-42 77,-79l22 0 -37 264 -510 0c0,-318 402,-464 402,-643 0,-118 -50,-197 -125,-197 -59,0 -101,21 -130,53 -24,26 -9,55 6,55 44,0 81,40 81,92 0,51 -37,92 -81,92 -45,0 -82,-41 -82,-92 0,-89 47,-226 220,-226 163,0 272,89 272,225 0,260 -322,241 -492,456l377 0z"></path> <g> <rect class="fil0" width="10502" height="2940"></rect> </g> <path class="fil3" d="M8989 1231c82,-45 162,-63 229,-59 144,7 237,113 237,266 0,176 -114,292 -291,292 -192,0 -239,-137 -239,-225 0,-51 37,-93 82,-93 45,0 82,42 82,93 0,51 -37,92 -82,92 -14,0 -20,5 -20,12 0,45 76,94 144,94 100,0 165,-107 162,-269 -1,-122 -65,-213 -170,-213 -47,0 -102,18 -164,60l63 -415 459 0c-70,0 -39,174 -85,186l-380 0 -27 179z"></path> <g> <rect class="fil0" width="10502" height="2940"></rect> </g> <rect class="fil1" transform="matrix(-0.229026 -0.812225 0.812225 -0.229026 7835.4 1818.5)" width="46.7719" height="240.553"></rect> <g> <rect class="fil0" width="10502" height="2940"></rect> </g> <polygon class="fil1" points="8123,1977 7942,2068 7927,2039 7999,1908 7889,1963 7872,1928 8053,1837 8068,1867 7995,1998 8106,1942 "></polygon> <g> <rect class="fil0" width="10502" height="2940"></rect> </g> <polygon class="fil1" points="8349,2230 8211,2379 8182,2353 8239,2291 8182,2239 8125,2300 8096,2273 8234,2124 8263,2151 8209,2210 8266,2262 8320,2203 "></polygon> <g> <rect class="fil0" width="10502" height="2940"></rect> </g> <polygon class="fil1" points="8444,2481 8425,2514 8310,2449 8410,2272 8522,2335 8504,2368 8425,2324 8404,2362 8473,2401 8455,2433 8386,2394 8363,2435 "></polygon> <g> <rect class="fil0" width="10502" height="2940"></rect> </g> <path class="fil1" d="M8647 2547l-76 -22 -27 37 -38 -11 130 -173 38 11 15 216 -40 -12 -2 -46zm-2 -37l-3 -82 -48 66 51 16z"></path> <g> <rect class="fil0" width="10502" height="2940"></rect> </g> <polygon class="fil1" points="8801,2415 8840,2418 8826,2582 8911,2590 8908,2628 8783,2617 "></polygon> <g> <rect class="fil0" width="10502" height="2940"></rect> </g> <polygon class="fil1" points="9007,2456 8952,2462 8948,2424 9096,2408 9100,2446 9046,2452 9064,2616 9025,2620 "></polygon> <g> <rect class="fil0" width="10502" height="2940"></rect> </g> <polygon class="fil1" points="9298,2345 9364,2537 9327,2550 9300,2471 9227,2497 9254,2575 9217,2588 9150,2396 9187,2383 9214,2459 9287,2434 9261,2358 "></polygon> <g> <rect class="fil0" width="10502" height="2940"></rect> </g> <path class="fil1" d="M9497 2456c-17,0 -33,-5 -48,-14 -16,-9 -29,-22 -40,-39 -11,-17 -17,-34 -19,-52 -2,-18 1,-34 8,-49 7,-15 18,-28 32,-37 13,-8 26,-13 39,-14 13,-1 27,1 40,6l-6 37c-19,-7 -35,-6 -49,3 -9,6 -16,14 -20,23 -4,9 -5,19 -4,29 2,11 6,22 13,33 7,10 15,18 24,24 9,6 19,9 29,9 10,0 19,-3 28,-8 14,-10 22,-24 23,-44l36 10c0,14 -4,27 -11,39 -6,12 -16,22 -28,30 -15,9 -31,14 -47,14z"></path> <g> <rect class="fil0" width="10502" height="2940"></rect> </g> <path class="fil1" d="M9727 2224l-55 56 21 42 -29 29 -92 -197 27 -27 199 87 -29 29 -42 -19zm-34 -16l-74 -35 36 73 38 -38z"></path> <g> <rect class="fil0" width="10502" height="2940"></rect> </g> <path class="fil1" d="M9911 2041l-65 -1 -1 1 -18 30 49 29 -20 34 -175 -105 38 -63c8,-13 18,-23 28,-29 11,-6 23,-9 36,-9 12,1 25,5 38,12 13,8 22,18 28,28 7,11 9,23 9,36l75 0 -22 37zm-138 -72c-8,2 -16,9 -22,19l-16 27 60 37 17 -28c6,-10 8,-19 6,-28 -2,-8 -8,-15 -18,-21 -10,-6 -19,-8 -27,-6z"></path> <g> <rect class="fil0" width="10502" height="2940"></rect> </g> <polygon class="fil1" points="9981,1769 10017,1781 9976,1906 9783,1842 9823,1720 9859,1732 9831,1817 9873,1831 9898,1756 9933,1767 9908,1842 9952,1857 "></polygon> <g> <rect class="fil0" width="10502" height="2940"></rect> </g> <polygon class="fil1" points="8701,433 8722,474 8768,481 8734,513 8742,559 8701,537 8660,559 8668,513 8635,481 8681,474 "></polygon> <g> <rect class="fil0" width="10502" height="2940"></rect> </g> <polygon class="fil1" points="9110,433 9130,474 9176,481 9143,513 9151,559 9110,537 9069,559 9076,513 9043,481 9089,474 "></polygon> <g> <rect class="fil0" width="10502" height="2940"></rect> </g> <polygon class="fil1" points="8918,371 8947,430 9012,439 8965,485 8976,550 8918,519 8860,550 8871,485 8824,439 8889,430 "></polygon> <g> <rect class="fil0" width="10502" height="2940"></rect> </g> <path class="fil1" d="M8016 1004c1,7 2,14 3,19 -4,-4 -18,-17 -20,-37 -2,-25 16,-51 16,-51 0,0 18,16 19,40 1,21 -9,41 -12,47 0,-5 -1,-12 -1,-20 -2,-18 -5,-33 -5,-34 0,2 -1,17 0,36z"></path> <g> <rect class="fil0" width="10502" height="2940"></rect> </g> <path class="fil1" d="M8041 1020c-7,2 -13,4 -19,5 6,3 24,10 42,4 23,-6 40,-26 40,-26 0,0 -20,-14 -43,-8 -20,4 -35,22 -39,27 5,-2 12,-4 19,-6 17,-5 32,-7 33,-7 -1,1 -15,6 -33,11z"></path> <g> <rect class="fil0" width="10502" height="2940"></rect> </g> <path class="fil1" d="M7984 1069c1,7 3,14 4,19 -5,-3 -19,-15 -23,-35 -2,-13 1,-25 4,-35 3,-10 7,-17 7,-17 0,0 19,14 23,38 3,20 -5,42 -8,48 -1,-5 -2,-12 -3,-20 -4,-18 -7,-32 -8,-34 0,2 0,18 4,36z"></path> <g> <rect class="fil0" width="10502" height="2940"></rect> </g> <path class="fil1" d="M8010 1083c-7,3 -13,5 -18,7 5,2 24,7 42,1 11,-5 20,-12 26,-19 7,-6 11,-12 11,-12 0,0 -21,-11 -44,-4 -19,7 -32,25 -36,31 5,-2 12,-5 18,-8 17,-6 31,-9 33,-9 -2,0 -15,7 -32,13z"></path> <g> <rect class="fil0" width="10502" height="2940"></rect> </g> <path class="fil1" d="M7954 1134c2,7 4,14 6,19 -5,-3 -21,-14 -26,-34 -3,-12 -2,-25 1,-35 2,-10 6,-17 6,-17 0,0 20,12 25,36 5,20 -1,41 -3,49 -1,-6 -3,-13 -5,-20 -5,-18 -10,-32 -11,-33 0,2 2,17 7,35z"></path> <g> <rect class="fil0" width="10502" height="2940"></rect> </g> <path class="fil1" d="M7982 1146c-7,3 -13,6 -18,8 6,2 24,5 42,-3 11,-5 19,-13 25,-20 6,-7 9,-13 9,-13 0,0 -22,-10 -44,-1 -18,9 -30,28 -33,35 5,-3 11,-7 17,-10 17,-8 30,-12 32,-13 -2,1 -14,9 -30,17z"></path> <g> <rect class="fil0" width="10502" height="2940"></rect> </g> <path class="fil1" d="M7932 1203c2,7 5,13 8,18 -6,-3 -23,-11 -30,-31 -4,-12 -3,-25 -2,-35 1,-11 4,-18 4,-18 0,0 5,3 12,8 6,6 13,14 17,26 6,19 3,41 1,48 -2,-5 -4,-12 -7,-19 -7,-17 -12,-30 -13,-32 0,2 3,17 10,35z"></path> <g> <rect class="fil0" width="10502" height="2940"></rect> </g> <path class="fil1" d="M7960 1212c-6,4 -12,7 -17,10 6,1 25,3 42,-7 10,-6 18,-15 23,-22 5,-8 8,-14 8,-14 0,0 -6,-2 -14,-2 -9,-1 -20,0 -30,6 -17,9 -27,30 -30,36 5,-3 10,-7 17,-11 15,-9 28,-14 30,-15 -1,1 -14,10 -29,19z"></path> <g> <rect class="fil0" width="10502" height="2940"></rect> </g> <path class="fil1" d="M7911 1273c3,6 6,12 9,17 -5,-2 -23,-9 -32,-28 -5,-11 -6,-24 -5,-35 0,-10 2,-18 2,-18 0,0 22,9 32,31 8,19 7,41 6,48 -3,-5 -6,-11 -9,-18 -8,-16 -16,-29 -17,-31 1,2 5,17 14,34z"></path> <g> <rect class="fil0" width="10502" height="2940"></rect> </g> <path class="fil1" d="M7940 1279c-6,5 -11,9 -16,12 6,0 25,0 41,-11 9,-7 16,-16 21,-24 4,-8 6,-15 6,-15 0,0 -23,-5 -43,8 -17,11 -24,33 -26,39 4,-3 9,-8 15,-12 14,-11 27,-17 29,-18 -2,1 -13,11 -27,21z"></path> <g> <rect class="fil0" width="10502" height="2940"></rect> </g> <path class="fil1" d="M7898 1344c4,7 7,12 11,17 -6,-2 -24,-7 -35,-25 -6,-11 -8,-24 -9,-34 0,-11 1,-19 1,-19 0,0 23,7 35,28 10,18 10,41 10,48 -3,-5 -6,-11 -10,-18 -10,-15 -19,-27 -20,-29 1,2 7,17 17,32z"></path> <g> <rect class="fil0" width="10502" height="2940"></rect> </g> <path class="fil1" d="M7927 1348c-5,5 -10,9 -14,13 6,0 25,-2 39,-15 9,-7 15,-18 19,-26 3,-8 5,-15 5,-15 0,0 -24,-3 -42,12 -16,13 -21,35 -23,42 4,-5 9,-9 14,-14 14,-13 25,-20 27,-21 -1,1 -11,12 -25,24z"></path> <g> <rect class="fil0" width="10502" height="2940"></rect> </g> <path class="fil1" d="M7890 1416c4,6 9,11 12,15 -6,-1 -24,-4 -36,-21 -8,-10 -11,-23 -12,-33 -2,-11 -1,-18 -1,-18 0,0 23,4 37,24 11,17 14,39 14,46 -3,-5 -7,-10 -11,-16 -12,-15 -22,-26 -23,-27 1,1 9,15 20,30z"></path> <g> <rect class="fil0" width="10502" height="2940"></rect> </g> <path class="fil1" d="M7920 1417c-5,5 -10,10 -14,14 6,0 25,-4 38,-18 8,-9 13,-19 16,-28 3,-9 4,-15 4,-15 0,0 -24,-2 -41,15 -14,14 -17,37 -19,44 4,-4 8,-10 13,-15 12,-14 23,-22 25,-23 -1,1 -10,13 -22,26z"></path> <g> <rect class="fil0" width="10502" height="2940"></rect> </g> <path class="fil1" d="M7888 1490c5,5 10,10 14,13 -6,0 -25,-2 -39,-17 -8,-9 -13,-22 -15,-32 -2,-10 -3,-18 -3,-18 0,0 24,2 40,21 13,15 18,37 19,44 -4,-4 -8,-9 -14,-15 -12,-13 -23,-23 -24,-25 1,2 9,15 22,29z"></path> <g> <rect class="fil0" width="10502" height="2940"></rect> </g> <path class="fil1" d="M7918 1488c-5,6 -9,11 -12,15 6,-1 24,-6 36,-22 7,-9 11,-20 13,-29 2,-9 2,-16 2,-16 0,0 -24,1 -39,20 -13,15 -14,38 -14,45 3,-5 7,-10 11,-16 10,-15 21,-25 22,-26 -1,2 -9,14 -19,29z"></path> <g> <rect class="fil0" width="10502" height="2940"></rect> </g> <path class="fil1" d="M8060 963c-5,6 -9,12 -13,17 7,-3 26,-11 39,-27 9,-10 13,-21 16,-30 3,-9 4,-16 4,-16 0,0 -7,1 -16,5 -9,4 -20,10 -28,21 -15,17 -17,39 -17,45 3,-5 7,-11 12,-17 13,-16 24,-27 26,-29 -1,2 -11,15 -23,31z"></path> <g> <rect class="fil0" width="10502" height="2940"></rect> </g> <path class="fil1" d="M9930 1653l-9 -1c8,-50 11,-101 11,-151 0,-207 -61,-405 -178,-575l7 -5c118,171 180,372 180,580 0,51 -4,102 -11,152z"></path> <g> <rect class="fil0" width="10502" height="2940"></rect> </g> <path class="fil1" d="M7910 1658l-1 -4c-8,-51 -11,-102 -11,-153 0,-212 64,-416 186,-589l3 -3 8 6 -2 3c-121,171 -185,373 -185,583 0,50 4,101 12,151l0 4 -10 2z"></path> <g> <rect class="fil0" width="10502" height="2940"></rect> </g> <path class="fil1" d="M9824 1004c-1,7 -2,14 -3,19 5,-4 19,-17 20,-37 2,-25 -15,-51 -15,-51 0,0 -18,16 -20,40 -1,21 9,41 12,47 1,-5 1,-12 2,-20 2,-18 4,-33 5,-34 0,2 1,17 -1,36z"></path> <g> <rect class="fil0" width="10502" height="2940"></rect> </g> <path class="fil1" d="M9799 1020c7,2 14,4 19,5 -6,3 -23,10 -42,4 -23,-6 -39,-26 -39,-26 0,0 19,-14 43,-8 19,4 34,22 38,27 -5,-2 -12,-4 -19,-6 -17,-5 -31,-7 -33,-7 2,1 16,6 33,11z"></path> <g> <rect class="fil0" width="10502" height="2940"></rect> </g> <path class="fil1" d="M9857 1069c-2,7 -3,14 -5,19 5,-3 20,-15 23,-35 3,-13 0,-25 -4,-35 -3,-10 -7,-17 -7,-17 0,0 -19,14 -22,38 -3,20 5,42 7,48 1,-5 2,-12 4,-20 3,-18 7,-32 7,-34 0,2 0,18 -3,36z"></path> <g> <rect class="fil0" width="10502" height="2940"></rect> </g> <path class="fil1" d="M9830 1083c7,3 13,5 19,7 -6,2 -24,7 -42,1 -11,-5 -21,-12 -27,-19 -7,-6 -10,-12 -10,-12 0,0 20,-11 43,-4 19,7 32,25 36,31 -5,-2 -11,-5 -18,-8 -17,-6 -31,-9 -32,-9 1,0 15,7 31,13z"></path> <g> <rect class="fil0" width="10502" height="2940"></rect> </g> <path class="fil1" d="M9886 1134c-2,7 -4,14 -6,19 5,-3 21,-14 26,-34 3,-12 2,-25 0,-35 -3,-10 -6,-17 -6,-17 0,0 -21,12 -26,36 -5,20 2,41 3,49 2,-6 4,-13 6,-20 4,-18 10,-32 10,-33 0,2 -2,17 -7,35z"></path> <g> <rect class="fil0" width="10502" height="2940"></rect> </g> <path class="fil1" d="M9859 1146c6,3 12,6 17,8 -5,2 -24,5 -41,-3 -11,-5 -19,-13 -25,-20 -6,-7 -10,-13 -10,-13 0,0 22,-10 44,-1 18,9 30,28 33,35 -5,-3 -10,-7 -17,-10 -16,-8 -30,-12 -32,-13 2,1 15,9 31,17z"></path> <g> <rect class="fil0" width="10502" height="2940"></rect> </g> <path class="fil1" d="M9909 1203c-3,7 -6,13 -8,18 5,-3 22,-11 29,-31 5,-12 4,-25 2,-35 -1,-11 -4,-18 -4,-18 0,0 -5,3 -11,8 -7,6 -14,14 -18,26 -6,19 -2,41 -1,48 2,-5 4,-12 7,-19 7,-17 13,-30 14,-32 -1,2 -3,17 -10,35z"></path> <g> <rect class="fil0" width="10502" height="2940"></rect> </g> <path class="fil1" d="M9880 1212c6,4 12,7 17,10 -6,1 -25,3 -41,-7 -10,-6 -18,-15 -23,-22 -5,-8 -8,-14 -8,-14 0,0 5,-2 14,-2 8,-1 19,0 29,6 18,9 28,30 30,36 -4,-3 -10,-7 -16,-11 -15,-9 -29,-14 -31,-15 2,1 14,10 29,19z"></path> <g> <rect class="fil0" width="10502" height="2940"></rect> </g> <path class="fil1" d="M9930 1273c-4,6 -7,12 -10,17 6,-2 23,-9 32,-28 6,-11 6,-24 6,-35 -1,-10 -3,-18 -3,-18 0,0 -22,9 -32,31 -8,19 -6,41 -5,48 2,-5 5,-11 8,-18 9,-16 16,-29 17,-31 -1,2 -5,17 -13,34z"></path> <g> <rect class="fil0" width="10502" height="2940"></rect> </g> <path class="fil1" d="M9900 1279c6,5 12,9 16,12 -6,0 -25,0 -40,-11 -10,-7 -17,-16 -21,-24 -5,-8 -7,-15 -7,-15 0,0 23,-5 43,8 17,11 24,33 27,39 -5,-3 -10,-8 -16,-12 -14,-11 -27,-17 -28,-18 1,1 12,11 26,21z"></path> <g> <rect class="fil0" width="10502" height="2940"></rect> </g> <path class="fil1" d="M9943 1344c-4,7 -8,12 -12,17 6,-2 24,-7 35,-25 6,-11 9,-24 9,-34 0,-11 -1,-19 -1,-19 0,0 -23,7 -35,28 -9,18 -10,41 -10,48 3,-5 7,-11 10,-18 10,-15 19,-27 20,-29 0,2 -7,17 -16,32z"></path> <g> <rect class="fil0" width="10502" height="2940"></rect> </g> <path class="fil1" d="M9913 1348c5,5 11,9 15,13 -6,0 -25,-2 -40,-15 -9,-7 -14,-18 -18,-26 -4,-8 -5,-15 -5,-15 0,0 23,-3 42,12 15,13 21,35 22,42 -4,-5 -8,-9 -14,-14 -13,-13 -25,-20 -27,-21 2,1 12,12 25,24z"></path> <g> <rect class="fil0" width="10502" height="2940"></rect> </g> <path class="fil1" d="M9951 1416c-5,6 -9,11 -13,15 6,-1 24,-4 37,-21 7,-10 11,-23 12,-33 1,-11 1,-18 1,-18 0,0 -24,4 -38,24 -11,17 -14,39 -14,46 3,-5 7,-10 12,-16 11,-15 21,-26 22,-27 -1,1 -8,15 -19,30z"></path> <g> <rect class="fil0" width="10502" height="2940"></rect> </g> <path class="fil1" d="M9921 1417c4,5 9,10 13,14 -6,0 -25,-4 -38,-18 -8,-9 -12,-19 -16,-28 -3,-9 -3,-15 -3,-15 0,0 23,-2 40,15 15,14 18,37 19,44 -4,-4 -8,-10 -13,-15 -12,-14 -23,-22 -25,-23 2,1 11,13 23,26z"></path> <g> <rect class="fil0" width="10502" height="2940"></rect> </g> <path class="fil1" d="M9952 1490c-5,5 -10,10 -14,13 6,0 25,-2 39,-17 9,-9 13,-22 15,-32 3,-10 3,-18 3,-18 0,0 -24,2 -40,21 -12,15 -17,37 -18,44 3,-4 8,-9 13,-15 13,-13 23,-23 25,-25 -1,2 -10,15 -23,29z"></path> <g> <rect class="fil0" width="10502" height="2940"></rect> </g> <path class="fil1" d="M9923 1488c4,6 8,11 12,15 -6,-1 -25,-6 -36,-22 -7,-9 -11,-20 -13,-29 -2,-9 -3,-16 -3,-16 0,0 24,1 39,20 13,15 14,38 15,45 -3,-5 -7,-10 -12,-16 -10,-15 -21,-25 -22,-26 1,2 9,14 20,29z"></path> <g> <rect class="fil0" width="10502" height="2940"></rect> </g> <path class="fil1" d="M9780 963c5,6 10,12 13,17 -6,-3 -26,-11 -39,-27 -8,-10 -13,-21 -16,-30 -3,-9 -4,-16 -4,-16 0,0 7,1 16,5 9,4 20,10 29,21 14,17 16,39 16,45 -3,-5 -7,-11 -12,-17 -12,-16 -24,-27 -25,-29 1,2 10,15 22,31z"></path> <g> <rect class="fil0" width="10502" height="2940"></rect> </g> <g> <path class="fil1" d="M8146 855c-1,-1 -1,-3 0,-5 1,-1 3,-1 4,0 2,1 2,3 1,4 -1,1 -2,2 -3,2 -1,0 -1,-1 -2,-1l0 0zm11 -13c-1,-1 -1,-2 -1,-2 0,-1 0,-2 1,-3 1,-1 3,-1 4,0 1,1 1,2 1,2 0,1 0,2 0,3 -1,0 -2,1 -3,1 -1,0 -1,-1 -2,-1l0 0zm11 -13c0,0 -1,-1 -1,-2 0,-1 0,-2 1,-2 1,-2 3,-2 4,-1 1,1 1,2 1,3 0,1 0,1 0,2 -1,1 -2,1 -3,1 0,0 -1,0 -2,-1l0 0zm12 -12c-1,-1 -1,-2 -1,-3 0,0 0,-1 0,-2 2,-1 4,-1 5,0 1,1 1,2 1,2 0,1 0,2 -1,3 -1,0 -1,1 -2,1 -1,0 -2,-1 -2,-1l0 0zm11 -13c0,0 -1,-1 -1,-2 0,-1 0,-1 1,-2 1,-1 3,-1 5,0 0,0 1,1 1,2 0,1 -1,2 -1,2l0 0c-1,1 -2,1 -3,1 0,0 -1,0 -2,-1l0 0zm12 -12c-1,0 -1,-1 -1,-2 0,-1 0,-2 1,-2 1,-1 3,-1 4,0 1,0 1,1 1,2 0,1 0,2 -1,2 0,1 -1,1 -2,1 -1,0 -1,0 -2,-1l0 0zm12 -12c-1,0 -1,-1 -1,-2 0,-1 0,-1 1,-2 1,-1 3,-1 4,0 1,1 1,1 1,2 0,1 0,2 -1,2 0,1 -1,1 -2,1 -1,0 -1,0 -2,-1l0 0zm12 -11c-1,-1 -1,-2 -1,-2 0,-1 0,-2 1,-3 1,-1 3,-1 5,0 0,1 0,2 0,2 0,1 0,2 0,3 -1,0 -2,1 -3,1 0,0 -1,-1 -2,-1l0 0zm12 -12c0,0 0,-1 0,-2 0,-1 0,-2 1,-2 1,-1 3,-1 4,0 1,1 1,1 1,2 0,1 0,2 -1,2 -1,1 -1,1 -2,1 -1,0 -2,0 -3,-1l0 0zm13 -11c-1,-1 -1,-1 -1,-2 0,-1 1,-2 1,-3 1,-1 3,-1 5,1 0,0 0,1 0,2 0,1 0,2 -1,2 0,1 -1,1 -2,1 -1,0 -1,0 -2,-1l0 0zm13 -11c-1,-1 -1,-1 -1,-2 0,-1 0,-2 1,-3 1,-1 3,-1 5,1 0,0 0,1 0,2 0,1 0,2 -1,2 0,1 -1,1 -2,1 -1,0 -2,0 -2,-1l0 0zm13 -11c-1,-1 -1,-1 -1,-2 0,-1 0,-2 1,-3 1,-1 3,0 4,1 1,1 1,1 1,2 0,1 0,2 -1,2 -1,1 -1,1 -2,1 -1,0 -2,0 -2,-1l0 0zm13 -11c-1,0 -1,-1 -1,-2 0,-1 0,-1 1,-2 2,-1 3,-1 5,0 0,1 0,2 0,2 0,1 0,2 -1,3 -1,0 -1,0 -2,0 -1,0 -2,0 -2,-1l0 0zm13 -10c0,-1 -1,-1 -1,-2 0,-1 1,-2 1,-3l1 0c1,-1 3,0 4,1 0,1 1,1 1,2 0,1 -1,2 -2,2 0,1 -1,1 -2,1 -1,0 -1,0 -2,-1l0 0zm13 -10c0,-1 0,-2 0,-2 0,-1 0,-2 1,-3 1,-1 3,-1 4,1 1,0 1,1 1,2 0,1 0,2 -1,2 -1,1 -1,1 -2,1 -1,0 -2,-1 -3,-1l0 0zm14 -10c0,-1 -1,-2 -1,-2 0,-1 1,-2 2,-3 1,-1 3,0 4,1 1,1 1,1 1,2 0,1 -1,2 -2,2 0,1 -1,1 -2,1 0,0 -1,0 -2,-1l0 0zm14 -10c-1,-1 -1,-1 -1,-2 0,-1 1,-2 2,-3 1,0 3,0 4,1 0,1 0,2 0,2 1,1 0,2 -1,3 0,0 -1,0 -2,0 -1,0 -2,0 -2,-1l0 0zm14 -10c-1,0 -1,-1 -1,-1 0,-1 1,-2 2,-3 1,-1 3,-1 4,1 0,0 0,1 0,2 0,1 0,2 -1,2 0,1 -1,1 -2,1 -1,0 -2,-1 -2,-2l0 0zm14 -9c-1,0 -1,-1 -1,-2 0,-1 1,-2 2,-2 1,-1 3,-1 4,1 0,0 1,1 1,1 0,1 -1,2 -2,3 0,0 -1,1 -2,1 -1,0 -2,-1 -2,-2l0 0zm14 -9c0,0 -1,-1 -1,-2 0,-1 1,-2 2,-2 1,-1 3,-1 4,1 1,0 1,1 1,1 0,1 -1,2 -2,3 0,0 -1,1 -1,1 -1,0 -2,-1 -3,-2l0 0zm14 -9c0,0 0,-1 0,-1 0,-1 1,-3 1,-3 2,-1 4,0 5,1 0,1 0,1 0,2 0,1 0,2 -1,2 -1,1 -1,1 -2,1 -1,0 -2,-1 -3,-2l0 0zm15 -8c0,-1 0,-1 -1,-2 0,-1 1,-2 2,-3 2,-1 4,0 4,2 1,0 1,1 1,1 0,1 -1,2 -2,3 0,0 -1,0 -1,0 -1,0 -3,0 -3,-1l0 0zm15 -9c-1,0 -1,-1 -1,-1 0,-1 1,-2 2,-3 1,-1 3,0 4,1 0,1 1,1 1,2 0,1 -1,2 -2,3 -1,0 -1,0 -2,0 -1,0 -2,-1 -2,-2l0 0zm14 -8c0,0 0,-1 0,-1 0,-1 1,-2 2,-3l0 0c1,-1 3,0 4,1 0,1 0,1 0,2 0,1 0,2 -1,3 -1,0 -1,0 -2,0 -1,0 -2,-1 -3,-2l0 0zm15 -8c0,0 0,0 0,-1 0,-1 1,-2 2,-3 1,-1 3,0 4,2 0,0 0,0 0,1 0,1 0,2 -1,3 -1,0 -1,0 -2,0 -1,0 -2,0 -3,-2l0 0zm15 -7c0,-1 0,-1 0,-2 0,-1 1,-2 2,-2 1,-1 3,0 4,1 0,1 0,1 0,1 0,2 0,3 -1,3 -1,0 -1,1 -2,1 -1,0 -2,-1 -3,-2l0 0zm16 -7c-1,-1 -1,-1 -1,-2 0,-1 1,-2 2,-3 2,0 4,0 4,2 1,0 1,1 1,1 0,1 -1,3 -2,3 -1,0 -1,0 -1,0 -2,0 -3,0 -3,-1l0 0zm15 -8c0,0 0,0 0,-1 0,-1 0,-2 2,-3 1,0 3,0 4,2 0,0 0,1 0,1 0,1 -1,3 -2,3 0,0 -1,0 -1,0 -1,0 -3,0 -3,-2l0 0zm15 -6c0,-1 0,-1 0,-2 0,-1 1,-2 2,-3 2,0 4,1 4,2 0,1 0,1 0,1 0,2 0,3 -1,3l0 0c-1,1 -1,1 -2,1 -1,0 -2,-1 -3,-2l0 0zm16 -7c0,0 0,-1 0,-1 0,-1 0,-3 2,-3 1,-1 3,0 4,2 0,0 0,1 0,1 0,1 -1,2 -2,3 0,0 -1,0 -1,0 -1,0 -3,-1 -3,-2l0 0zm16 -6c-1,-1 -1,-1 -1,-1 0,-1 1,-3 2,-3 2,-1 4,0 5,2 0,0 0,0 0,1 0,1 -1,2 -2,3 -1,0 -1,0 -1,0 -2,0 -3,-1 -3,-2l0 0zm15 -6c0,-1 0,-1 0,-1 0,-2 1,-3 2,-3l0 0c2,-1 4,0 4,2 0,0 0,0 0,1 0,1 0,2 -2,3 0,0 0,0 -1,0 -1,0 -2,-1 -3,-2l0 0zm16 -6c0,0 0,-1 0,-1 0,-1 1,-2 2,-3 2,-1 4,0 4,2 0,0 0,1 0,1 0,1 -1,3 -2,3 0,0 0,0 -1,0 -1,0 -2,-1 -3,-2z"></path> </g> <g> <rect class="fil0" width="10502" height="2940"></rect> </g> <g> <path class="fil1" d="M8148 857c-1,0 -2,-1 -3,-1l0 0c-1,-1 -1,-2 -1,-3 0,-2 0,-3 1,-4 0,0 2,-1 3,-1 1,0 2,0 3,1 2,2 2,4 1,6 -1,1 -2,2 -4,2l0 0zm-1 -3c1,0 2,0 3,0 0,-1 0,-2 -1,-3 0,0 -1,-1 -1,-1 0,1 -1,1 -1,1 -1,1 -1,1 -1,1 0,1 1,1 1,2l0 0zm12 -10c-1,0 -2,0 -3,-1 -1,-1 -1,-2 -1,-3 0,-1 0,-3 1,-3 1,-2 4,-2 6,-1 1,1 2,2 2,3 0,1 -1,2 -1,3 -1,1 -3,2 -4,2l0 0zm0 -6c0,0 -1,0 -1,0 -1,1 -1,1 -1,2 0,0 0,0 1,1l0 0c0,0 1,0 1,0 1,0 1,0 2,0 0,-1 0,-1 0,-2 0,0 0,-1 -1,-1 0,0 0,0 -1,0l0 0zm11 -7c-1,0 -2,0 -3,-1 -1,-1 -1,-2 -1,-3 0,-1 0,-2 1,-3 2,-2 5,-2 6,-1 1,1 2,3 2,4 0,1 -1,2 -1,3 -1,1 -2,1 -4,1l0 0zm0 -6c0,0 -1,0 -1,1 0,0 -1,0 -1,1 0,0 1,1 1,1l0 0c1,1 2,1 3,0 0,0 0,-1 0,-1 0,-1 0,-1 0,-2 -1,0 -1,0 -2,0l0 0zm12 -6c-1,0 -2,-1 -3,-1 -1,-1 -2,-2 -2,-4 0,-1 1,-2 1,-3 2,-1 5,-2 7,0 1,1 1,2 1,3 0,2 0,3 -1,3 -1,1 -2,2 -3,2l0 0zm0 -6c-1,0 -1,0 -2,0 0,0 0,1 0,1 0,1 0,1 0,2 1,0 2,0 3,0 0,-1 1,-1 1,-2 0,0 -1,-1 -1,-1 0,0 -1,0 -1,0l0 0zm11 -6c-1,0 -2,-1 -3,-2l0 0c-1,-1 -1,-2 -1,-3 0,-1 0,-2 1,-3 2,-2 5,-2 6,0 1,1 2,2 2,3 0,1 -1,2 -1,3l0 0 0 0c-1,1 -2,2 -4,2l0 0zm-1 -3c1,0 2,0 2,0l1 -1c0,0 0,-1 0,-1 0,0 0,-1 0,-1 -1,-1 -2,-1 -3,0 0,0 -1,1 -1,1 0,1 1,1 1,2l0 0zm13 -9c-1,0 -2,-1 -3,-2 -1,-1 -1,-2 -1,-3 0,-1 0,-2 1,-3 1,-1 2,-1 3,-1 1,0 2,0 3,1 1,1 2,2 2,3 0,1 -1,2 -2,3 -1,1 -2,2 -3,2l0 0zm0 -7c0,0 -1,0 -1,1 -1,0 -1,1 -1,1 0,0 0,1 1,1l0 0c1,1 2,1 3,0 0,0 0,0 0,-1 0,0 0,-1 -1,-1 0,-1 0,-1 -1,-1l0 0zm12 -5c-1,0 -2,-1 -3,-2 -1,0 -1,-2 -1,-3 0,-1 0,-2 1,-3 2,-2 5,-2 6,0 1,1 2,2 2,3 0,1 -1,3 -2,3 -1,1 -2,2 -3,2l0 0zm0 -7c0,0 -1,1 -1,1 0,0 -1,1 -1,1 0,0 0,1 1,1l0 0c0,1 1,1 1,1 1,0 1,0 1,0 1,-1 1,-1 1,-2 0,0 0,-1 -1,-1 0,0 0,-1 -1,-1l0 0zm12 -5c-1,0 -2,-1 -3,-1 -1,-1 -1,-2 -1,-3 0,-2 0,-3 1,-4 1,-1 2,-1 3,-1 2,0 3,1 4,1 0,1 1,2 1,3 0,2 -1,3 -2,4 0,1 -2,1 -3,1l0 0zm0 -6c0,0 -1,0 -1,0 0,1 -1,1 -1,2 0,0 1,0 1,1l0 0c1,1 2,1 3,0 0,0 0,-1 0,-2 0,0 0,0 0,-1 -1,0 -1,0 -2,0 0,0 0,0 0,0l0 0zm13 -5c-2,0 -3,-1 -4,-2 0,-1 -1,-2 -1,-3 0,-1 1,-2 2,-3 2,-2 4,-2 6,0 1,1 1,2 1,3 0,1 0,2 -1,3 -1,1 -2,2 -3,2l0 0zm0 -7c-1,0 -1,0 -2,1 0,0 0,1 0,1 0,1 0,1 0,1l0 0c1,1 2,1 3,0 0,0 1,0 1,-1 0,0 -1,-1 -1,-1 0,-1 -1,-1 -1,-1l0 0zm12 -5c-1,0 -2,0 -3,-1 -1,-1 -1,-2 -1,-3 0,-1 0,-3 1,-4 2,-1 5,-1 7,1 0,1 1,2 1,3 0,1 -1,2 -2,3 -1,1 -2,1 -3,1l0 0zm0 -6c0,0 -1,0 -1,0 0,1 -1,1 -1,2 0,0 1,1 1,1l0 0c1,1 2,1 3,0 0,0 0,-1 0,-1 0,-1 0,-1 0,-1 -1,-1 -1,-1 -2,-1l0 0zm13 -5c-1,0 -2,0 -3,-1l0 0c-1,-1 -1,-2 -1,-3 0,-1 0,-3 1,-4 2,-1 5,-1 6,1 1,1 2,2 2,3 0,1 -1,2 -2,3 -1,1 -2,1 -3,1l0 0zm-1 -3c0,1 1,1 2,0 1,0 1,-1 1,-1 0,-1 0,-1 -1,-2 0,0 -1,0 -2,0 -1,1 -1,1 -1,2 0,0 0,1 1,1l0 0zm14 -8c-1,0 -3,0 -3,-1l-1 0c0,-1 0,-2 0,-3 0,-1 0,-3 1,-4 1,0 2,-1 3,-1 2,1 3,1 3,2 1,1 1,2 1,3 0,1 0,3 -1,3 -1,1 -2,1 -3,1l0 0zm-1 -3c0,1 1,1 2,0 1,0 1,-1 1,-1 0,0 0,-1 -1,-1 0,-1 0,-1 -1,-1 0,0 -1,0 -1,0 -1,1 -1,1 -1,2 0,0 0,1 1,1l0 0zm14 -7c-1,0 -2,-1 -3,-2l0 0c-1,-1 -1,-2 -1,-3 0,-1 0,-2 1,-3 2,-2 5,-1 7,1 0,0 1,2 1,2 0,2 -1,3 -2,4 -1,0 -2,1 -3,1l0 0zm-1 -4c0,1 1,1 2,1 1,-1 1,-1 1,-2 0,0 0,0 0,-1 -1,-1 -2,-1 -3,0 0,0 -1,1 -1,1 0,1 0,1 1,1l0 0zm14 -7c-1,0 -2,0 -3,-1 -1,-1 -1,-2 -1,-3 0,-1 1,-3 2,-4l0 0c1,0 2,-1 3,-1 1,1 2,1 3,2 1,1 1,2 1,3 0,1 -1,3 -2,4 -1,0 -2,0 -3,0l0 0zm-1 -5c0,0 0,1 0,1 0,0 0,1 0,1l0 0c1,1 2,1 3,0 0,0 0,-1 0,-1 0,0 0,-1 0,-1 0,-1 -1,-1 -1,-1 -1,0 -1,0 -2,0l0 1zm15 -5c-2,0 -3,0 -4,-2 0,0 -1,-1 -1,-2 0,-2 1,-3 2,-4 1,-1 2,-1 4,-1 1,1 2,1 3,2 0,1 0,2 0,3 0,1 0,3 -1,3 -1,1 -2,1 -3,1l0 0zm0 -6c0,0 -1,0 -1,0 -1,1 -1,1 -1,2 0,0 0,1 0,1l0 0c1,1 2,1 3,0 1,0 1,-1 1,-1 0,-1 0,-1 -1,-1 0,-1 0,-1 -1,-1 0,0 0,0 0,0l0 0zm13 -4c-1,0 -2,0 -3,-2 -1,0 -1,-1 -1,-2 0,-2 1,-3 2,-4 2,-1 5,-1 6,1 1,1 1,2 1,3 0,1 -1,3 -2,3 -1,1 -1,1 -3,1l0 0zm1 -6c-1,0 -1,0 -1,0 -1,1 -1,1 -1,2 0,0 0,0 0,1 1,1 2,1 3,0 0,0 0,-1 0,-1 0,-1 0,-1 0,-1 0,-1 -1,-1 -1,-1l0 0zm13 -3c-1,0 -3,-1 -3,-2 -1,-1 -1,-2 -1,-3 0,-1 1,-3 2,-4 2,-1 5,0 6,2 1,0 1,1 1,2 0,2 -1,3 -2,4 -1,1 -2,1 -3,1l0 0zm0 -7c0,0 0,0 -1,1 0,0 -1,1 -1,1 1,0 1,1 1,1l0 0c0,1 2,1 2,1 1,-1 1,-1 1,-2 0,0 0,-1 0,-1 -1,0 -1,-1 -2,-1l0 0zm14 -3c-1,0 -3,-1 -3,-2l0 0c-1,-1 -1,-2 -1,-2 0,-2 1,-3 2,-4 1,-1 2,-1 3,-1 1,0 2,1 3,2 1,1 1,2 1,3 0,1 -1,3 -2,3 -1,1 -2,1 -3,1l0 0zm-1 -3c0,0 1,0 1,0 1,0 1,0 1,0 1,0 1,-1 1,-1 0,-1 0,-1 0,-1 0,-1 -1,-1 -1,-1 -1,0 -1,0 -2,0 0,0 -1,1 -1,2 0,0 1,0 1,1l0 0zm15 -6c-1,0 -3,-1 -3,-2 -1,-1 -1,-2 -1,-3 0,-1 1,-3 2,-3 2,-2 5,-1 6,1 1,1 1,2 1,2 0,2 -1,3 -2,4 -1,1 -2,1 -3,1l0 0zm0 -6c0,0 0,0 -1,0 0,0 0,1 0,1 0,1 0,1 0,1l0 0c0,1 2,2 2,1 1,0 1,-1 1,-2 0,0 0,0 0,-1 0,0 -1,0 -2,0l0 0zm15 -3c-2,0 -3,-1 -4,-2 -1,-1 -1,-2 -1,-3 0,-1 1,-3 2,-3 1,-1 3,-1 4,-1 1,0 2,1 3,2 0,1 0,2 0,2 0,2 -1,3 -2,4 -1,1 -2,1 -2,1l0 0zm0 -6c-1,0 -1,0 -1,0 -1,0 -1,1 -1,1 0,1 0,1 0,1l0 0c1,1 1,1 2,1 0,0 0,0 1,0 0,0 1,-1 1,-2 0,0 -1,0 -1,-1 0,0 0,0 -1,0 0,0 0,0 0,0l0 0zm14 -3c-2,0 -3,-1 -4,-2l0 0c0,-1 0,-2 0,-2 0,-2 1,-4 2,-4 2,-1 5,-1 6,1 0,1 1,2 1,3 0,1 -1,3 -3,3 0,1 -1,1 -2,1l0 0zm-1 -3c0,0 1,1 2,0 1,0 1,-1 1,-1 0,-1 0,-1 0,-1 -1,-1 -2,-1 -3,-1 0,0 -1,1 -1,2 0,0 0,0 1,1l0 0zm16 -5c-2,0 -3,-1 -4,-3 -1,0 -1,-1 -1,-2 0,-1 1,-3 2,-4 3,-1 5,0 7,2 0,1 0,1 0,2 0,2 -1,3 -2,4 -1,0 -1,1 -2,1l0 0zm0 -7c-1,0 -1,0 -1,0 -1,1 -1,1 -1,2 0,0 0,1 0,1l0 0c1,1 2,1 3,1 0,-1 1,-1 1,-2 -1,0 -1,-1 -1,-1 0,0 -1,-1 -1,-1l0 0zm14 -2c-1,0 -3,-1 -4,-2l0 0c0,-1 0,-1 0,-2 0,-2 1,-3 2,-4 1,-1 2,-1 4,0 1,0 2,1 2,2 1,0 1,1 1,2 0,1 -1,3 -3,4 0,0 -1,0 -2,0l0 0zm-1 -3c0,1 2,1 2,0 1,0 1,-1 1,-1 0,0 0,-1 0,-1 0,-1 -1,-1 -1,-1 -1,0 -1,0 -2,0 0,1 0,1 0,2 0,0 0,0 0,1l0 0zm16 -5c-1,0 -3,-1 -4,-2l0 0c0,-1 0,-2 0,-2 0,-2 0,-3 1,-4l0 0 1 0c2,-1 5,0 6,2 1,0 1,1 1,2 0,2 -1,3 -3,4 0,0 -1,0 -2,0l0 0zm-1 -3c0,1 1,1 2,0 1,0 1,-1 1,-1 0,0 0,-1 0,-1 -1,-1 -2,-1 -2,-1l-1 0c0,0 -1,1 -1,2 0,0 0,0 1,1l0 0zm16 -5c-2,0 -3,-1 -4,-2 0,-1 0,-1 0,-2 0,-2 0,-3 2,-4 2,-1 5,0 6,2l0 0c0,1 1,1 1,2 0,2 -1,3 -3,4 0,0 -1,0 -2,0l0 0zm0 -6c0,0 0,0 -1,0 0,1 -1,1 -1,2 0,0 0,1 0,1l1 0c0,1 1,1 2,1 1,-1 1,-1 1,-2 0,0 0,0 0,-1 -1,0 -1,-1 -2,-1l0 0zm15 -1c-1,0 -3,-1 -4,-3 0,0 0,-1 0,-2 0,-1 1,-3 2,-4 1,0 2,0 4,0 1,1 2,1 2,3 1,0 1,1 1,1 0,2 -1,4 -3,4l0 1c-1,0 -1,0 -2,0l0 0zm0 -6c0,0 0,0 0,0 -1,0 -2,1 -2,1 0,1 0,1 1,1l0 0c0,1 1,1 1,1 0,0 1,0 1,0 1,0 1,-1 1,-2 0,0 0,0 0,0 0,-1 -1,-1 -1,-1 0,0 -1,0 -1,0l0 0zm16 -1c-2,0 -4,-1 -5,-3 0,-1 0,-1 0,-2 0,-2 1,-3 3,-4 1,0 2,0 3,0 1,0 2,1 3,2 0,1 0,2 0,2 0,2 -1,4 -3,4 0,0 -1,1 -1,1l0 0zm0 -7c-1,0 -1,0 -1,1 -1,0 -1,1 -1,1 0,0 0,1 0,1l0 0c0,1 1,1 2,1 0,0 0,0 0,0 1,0 1,-1 1,-2 0,0 0,0 0,-1 0,0 0,0 -1,-1 0,0 0,0 0,0l0 0zm15 0c-2,0 -4,-1 -4,-3l0 0c-1,-1 -1,-1 -1,-2 0,-2 1,-3 3,-4 2,-1 5,0 6,2 0,1 0,1 0,2 0,2 -1,4 -2,4 -1,1 -2,1 -2,1l0 0zm-2 -4c1,1 2,1 3,1 0,0 1,-1 1,-2 0,0 0,0 0,0 -1,-1 -2,-2 -3,-1 -1,0 -1,0 -1,1 0,0 0,1 0,1l0 0zm17 -3c-1,0 -3,-1 -4,-3l0 0c0,0 0,-1 0,-2 0,-1 1,-3 3,-4 2,-1 4,0 5,3 1,0 1,1 1,1 0,2 -1,3 -2,4l0 0 -1 1c-1,0 -1,0 -2,0l0 0zm-1 -4c0,1 1,1 2,1l0 0c1,0 1,-1 1,-2 0,0 0,0 0,0 0,-1 -2,-2 -2,-1 -1,0 -2,1 -2,1 0,1 0,1 1,1l0 0zm17 -3c-2,0 -4,-1 -4,-2l0 0c-1,-1 -1,-2 -1,-2 0,-2 2,-4 3,-4 2,-1 5,0 6,2 0,1 0,2 0,2 0,2 -1,3 -2,4 -1,0 -2,0 -2,0l0 0zm-2 -3c1,1 2,1 3,1 0,-1 1,-1 1,-2 0,0 0,-1 0,-1 -1,-1 -2,-1 -3,-1 -1,1 -1,2 -1,2 0,0 0,0 0,1l0 0zm18 -3c-2,0 -4,-1 -5,-3 0,0 0,-1 0,-1 0,-2 1,-4 3,-4 2,-1 5,0 6,2 0,1 0,1 0,2 0,2 -1,3 -3,4 0,0 -1,0 -1,0l0 0zm0 -6c-1,0 -1,0 -1,0 -1,0 -1,1 -1,2 0,0 0,0 0,0l0 0c0,1 1,2 2,1 1,0 1,-1 1,-1 0,-1 0,-1 0,-1 0,-1 -1,-1 -1,-1l0 0zm15 0c-2,0 -3,-1 -4,-3l0 0 1 0 -1 0c0,0 0,-1 0,-1 0,-1 0,-1 0,-2l-5 0 8 -2c1,-1 2,-1 3,-1l4 0 -3 2c1,0 1,1 2,1 0,1 0,1 0,2 0,2 -1,3 -3,4 -1,0 -1,0 -2,0l0 0zm-1 -4c0,1 1,2 2,1 1,0 1,0 1,-1 0,0 0,-1 0,-1 0,-1 -1,-1 -2,-1l0 0c-1,0 -2,1 -2,2 0,0 1,0 1,0l0 0zm17 -2c-2,0 -3,-1 -4,-2l0 -1 1 0 -1 0c0,0 0,0 0,-1 0,-2 1,-4 3,-4 1,-1 2,-1 3,0 1,1 2,1 2,3 1,0 1,1 1,1 0,2 -2,4 -3,4 -1,0 -1,0 -2,0l0 0zm-2 -3c1,0 1,1 2,1 0,0 1,0 1,0 1,0 1,-1 1,-2 0,0 0,0 0,0 0,-1 -1,-1 -1,-2 0,0 -1,0 -1,0 -1,1 -2,1 -2,2 0,0 0,0 0,1z"></path> </g> <g> <rect class="fil0" width="10502" height="2940"></rect> </g> <path class="fil2" d="M975 868c144,0 243,3 297,10 13,2 25,6 37,9l-240 157c-31,-1 -72,-2 -125,-2 -108,0 -174,4 -197,9 -27,7 -45,21 -57,44 -12,22 -24,68 -36,135 -7,42 -10,72 -9,90l0 3 -209 137c-2,-8 -3,-16 -5,-24 -4,-44 3,-119 22,-227 18,-102 38,-175 57,-218 29,-65 83,-102 164,-113 55,-7 155,-11 301,-10z"></path> <g> <rect class="fil0" width="10502" height="2940"></rect> </g> <path class="fil3" d="M1383 946c7,13 11,28 13,45 4,44 -3,117 -22,222 -18,105 -37,179 -57,223 -29,64 -83,102 -164,112 -55,7 -155,11 -299,11 -145,0 -244,-4 -298,-11 -24,-3 -45,-10 -62,-18l229 -151c32,4 86,5 162,5 83,0 137,-1 165,-5 28,-2 50,-9 64,-19 14,-9 24,-23 31,-41 8,-17 14,-46 22,-87 9,-49 13,-84 13,-107 1,-17 -1,-32 -4,-43l207 -136z"></path> <g> <rect class="fil0" width="10502" height="2940"></rect> </g> <g> <path class="fil4" d="M4433 942c-90,0 -157,4 -200,11 -25,4 -44,11 -57,21 -12,10 -23,26 -32,48 -13,36 -26,89 -38,157 -12,72 -19,124 -21,156 -2,32 1,54 10,65 6,9 17,16 31,20 15,4 39,7 71,10 55,3 119,5 192,5 103,0 179,-4 228,-13 38,-6 63,-28 77,-65 14,-41 28,-95 40,-164 15,-84 22,-144 22,-178 0,-35 -21,-56 -62,-63 -24,-4 -52,-6 -82,-8 -32,-1 -91,-2 -179,-2l0 0zm63 -77c109,0 186,3 230,11 44,7 74,20 91,41 11,13 18,28 21,46 4,18 5,42 3,75 -3,39 -9,91 -20,153 -14,79 -28,139 -43,180 -14,40 -32,70 -53,89 -23,20 -57,34 -101,41 -44,7 -115,11 -214,11 -48,0 -102,0 -161,-2 -58,-2 -96,-4 -114,-5 -32,-3 -56,-8 -74,-15 -17,-7 -31,-19 -43,-34 -15,-20 -23,-49 -23,-85 0,-37 8,-98 22,-185 19,-102 38,-175 60,-218 26,-51 70,-81 132,-90 58,-8 153,-12 287,-13l0 0zm-1308 2l85 0 -47 271 592 0 47 -271 86 0 -113 643 -86 0 52 -296 -592 0 -52 296 -85 0 113 -643zm-817 0l-13 75 323 0 -101 568 86 0 101 -568 321 0 13 -75 -730 0zm-782 320l316 0c83,0 137,-1 161,-3 24,-3 44,-9 60,-18 25,-14 42,-49 52,-106 8,-49 4,-80 -14,-95 -12,-9 -31,-16 -59,-19 -27,-2 -80,-4 -157,-4l-316 0 -43 245zm-142 323l114 -643 400 0c108,1 177,4 206,8 52,7 85,30 98,71 9,28 9,66 0,115 -6,37 -13,66 -21,85 -7,19 -18,34 -29,46 -20,19 -48,31 -86,39 27,5 47,15 60,32 10,14 15,29 16,47 0,18 -5,55 -14,109l-16 91 -86 0 11 -62c10,-52 15,-88 16,-109 1,-40 -18,-64 -57,-72 -15,-1 -29,-3 -41,-3 -13,0 -55,-1 -127,-2l-315 0 -44 248 -85 0z"></path> </g> <g> <rect class="fil0" width="10502" height="2940"></rect> </g> <path class="fil4" d="M6050 867l777 0 -28 164 -286 0 -84 479 -206 0 85 -479 -287 0 29 -164zm-290 0l206 0 -113 643 -206 0 113 -643zm-762 0l-113 643 196 0 38 -222 460 0 27 -148 -460 0 21 -122 483 0 27 -151 -679 0z"></path> <g> <rect class="fil0" width="10502" height="2940"></rect> </g> <g> <path class="fil4" d="M6913 826c-13,15 -25,39 -22,69 2,27 14,47 30,61 15,15 40,26 68,23 28,-2 47,-13 62,-30 14,-16 26,-38 23,-68 -1,-14 -4,-25 -10,-36 -14,-28 -44,-53 -89,-50 -28,3 -47,16 -62,31l0 0zm65 -46c3,0 6,0 10,0 31,2 54,15 71,32 17,17 29,40 31,72l0 7c-2,33 -14,56 -32,73 -17,18 -42,31 -75,31 -32,1 -58,-13 -75,-30 -18,-18 -31,-40 -33,-73l0 -9c1,-30 15,-56 32,-72 17,-17 40,-29 71,-31z"></path> </g> <g> <rect class="fil0" width="10502" height="2940"></rect> </g> <g> <path class="fil4" d="M6946 835l0 42c22,-2 49,4 62,-5 12,-8 10,-28 -1,-35 -15,-8 -41,-1 -60,-4 -1,1 -1,1 -1,2l0 0zm-17 -16c31,3 77,-8 95,10 14,13 14,43 -4,54 -6,4 -13,6 -22,8 21,12 33,40 47,60 -7,0 -14,0 -21,0 -6,-7 -11,-17 -18,-27 -6,-10 -13,-22 -22,-28 -8,-5 -23,-3 -37,-4 -1,19 -1,40 -1,59 -6,0 -11,0 -17,0l0 -131c0,-1 0,-1 0,-1z"></path> </g> <g> <rect class="fil0" width="10502" height="2940"></rect> </g> <polygon class="fil3" points="3919,2160 3857,2161 3943,1667 4035,1666 4269,2095 4652,1665 4747,1665 4661,2159 4599,2159 4674,1724 4283,2160 4235,2160 3995,1726 "></polygon> <g> <rect class="fil0" width="10502" height="2940"></rect> </g> <path class="fil3" d="M4709 2159l384 -495 84 0 213 493 -67 1 -48 -109 -409 1 -84 109 -73 0zm197 -161l347 -1 -126 -284 -221 285z"></path> <g> <rect class="fil0" width="10502" height="2940"></rect> </g> <path class="fil3" d="M5502 2157l-64 0 86 -494 367 0c81,0 134,8 158,24 23,17 31,48 24,93l-11 59c-5,31 -16,53 -31,67 -16,14 -41,25 -76,32 27,3 47,12 58,28 12,17 15,39 10,68l-21 122 -64 0 19 -110c6,-32 2,-54 -10,-66 -13,-11 -46,-17 -100,-17l-311 1 -34 193zm400 -441l-323 1 -33 189 323 0c46,0 78,-6 95,-17 17,-11 28,-33 34,-66l4 -24c6,-33 2,-55 -11,-66 -13,-11 -43,-17 -89,-17z"></path> <g> <rect class="fil0" width="10502" height="2940"></rect> </g> <polygon class="fil3" points="6365,2155 6301,2156 6377,1717 6123,1717 6133,1662 6705,1661 6695,1716 6441,1717 "></polygon> <g> <rect class="fil0" width="10502" height="2940"></rect> </g> <rect class="fil4" x="7330" y="642" width="8.79092" height="1726.73"></rect> <g> <rect class="fil0" width="10502" height="2940"></rect> </g> <g> <path class="fil1" d="M9704 856l0 0c-1,0 -2,-1 -3,-2 -1,-1 -1,-3 1,-4 1,-1 3,-1 4,0 1,2 1,4 0,5 -1,0 -2,1 -2,1l0 0zm-11 -13l0 0c-1,0 -2,-1 -3,-1 0,-1 0,-2 0,-3 0,0 0,-1 1,-2 1,-1 3,-1 4,0 1,1 1,2 1,3 0,0 0,1 -1,2 -1,0 -2,1 -2,1l0 0zm-11 -13l0 0c-1,0 -2,0 -3,-1 0,-1 -1,-1 -1,-2 0,-1 1,-2 1,-3 2,-1 4,-1 5,1 1,0 1,1 1,2 0,1 -1,2 -1,2 -1,1 -2,1 -2,1l0 0zm-12 -12l0 0c-1,0 -1,-1 -2,-1 -1,-1 -1,-2 -1,-3 0,0 0,-1 1,-2 1,-1 3,-1 5,0 0,1 0,2 0,2 0,1 0,2 -1,3 0,0 -1,1 -2,1l0 0zm-11 -13l0 0c-1,0 -2,0 -3,-1l0 0c0,0 -1,-1 -1,-2 0,-1 1,-2 1,-2 2,-1 4,-1 5,0 0,1 1,1 1,2 0,1 -1,2 -1,2 -1,1 -2,1 -2,1l0 0zm-12 -12l0 0c-1,0 -2,0 -2,-1 -1,0 -1,-1 -1,-2 0,-1 0,-2 1,-2 1,-1 3,-1 4,0 1,0 1,1 1,2 0,1 0,2 -1,2 -1,1 -1,1 -2,1l0 0zm-12 -12l0 0c-1,0 -2,0 -2,-1 -1,0 -1,-1 -1,-2 0,-1 0,-1 1,-2 1,-1 3,-1 4,0 1,1 1,1 1,2 0,1 0,2 -1,2 -1,1 -1,1 -2,1l0 0zm-12 -11l0 0c-1,0 -2,-1 -3,-1 0,-1 -1,-2 -1,-3 0,0 1,-1 1,-2 2,-1 4,-1 5,0 0,1 1,2 1,3 0,0 -1,1 -1,2 -1,0 -2,1 -2,1l0 0zm-13 -12l0 0c-1,0 -1,0 -2,-1 -1,0 -1,-1 -1,-2 0,-1 0,-1 1,-2 1,-1 3,-1 4,0 1,0 1,1 1,2 0,1 0,2 0,2 -1,1 -2,1 -3,1l0 0zm-12 -11l0 0c-1,0 -2,0 -3,-1 0,0 -1,-1 -1,-2 0,-1 1,-2 1,-2 1,-2 3,-2 5,-1 0,1 1,2 1,3 0,1 0,1 -1,2 -1,1 -1,1 -2,1l0 0zm-13 -11l0 0c-1,0 -2,0 -2,-1 -1,0 -1,-1 -1,-2 0,-1 0,-2 0,-2 2,-2 4,-2 5,-1 1,1 1,2 1,3 0,1 0,1 -1,2 0,1 -1,1 -2,1l0 0zm-13 -11l0 0c-1,0 -1,0 -2,-1 -1,0 -1,-1 -1,-2 0,-1 0,-1 1,-2 1,-1 3,-2 4,-1 1,1 1,2 1,3 0,1 0,1 -1,2 0,1 -1,1 -2,1l0 0zm-13 -11l0 0c-1,0 -2,0 -2,0 -1,-1 -1,-2 -1,-3 0,0 0,-1 0,-2 1,-1 3,-1 5,0 1,1 1,1 1,2 0,1 0,2 -1,2 0,1 -1,1 -2,1l0 0zm-13 -10l0 0c-1,0 -2,0 -2,-1 -1,0 -2,-1 -2,-2 0,-1 1,-1 1,-2 1,-1 3,-2 4,-1l0 0c1,1 2,2 2,3 0,1 -1,1 -1,2 -1,1 -2,1 -2,1l0 0zm-14 -10l0 0c-1,0 -1,0 -2,-1 -1,0 -1,-1 -1,-2 0,-1 0,-2 0,-2 1,-2 4,-2 5,-1 1,1 1,2 1,3 0,0 0,1 0,2 -1,0 -2,1 -3,1l0 0zm-14 -10l0 0c0,0 -1,0 -1,-1 -1,0 -2,-1 -2,-2 0,-1 0,-1 1,-2 1,-1 3,-2 4,-1 1,1 2,2 2,3 0,0 -1,1 -1,2 -1,1 -2,1 -3,1l0 0zm-13 -10l0 0c-1,0 -2,0 -2,0 -1,-1 -2,-2 -2,-3 0,0 1,-1 1,-2 1,-1 3,-1 4,-1 1,1 2,2 2,3 0,1 0,1 -1,2 0,1 -1,1 -2,1l0 0zm-14 -9l0 0c-1,0 -2,0 -2,-1 -1,0 -2,-1 -2,-2 0,-1 1,-2 1,-2 1,-2 3,-2 4,-1 1,1 2,2 2,3 0,0 0,1 -1,1 0,1 -1,2 -2,2l0 0zm-15 -9l0 0c0,0 -1,-1 -1,-1 -1,-1 -2,-2 -2,-3 0,0 1,-1 1,-1 1,-2 3,-2 4,-1 1,0 2,1 2,2 0,1 0,2 -1,2 0,1 -1,2 -3,2l0 0zm-14 -9l0 0c0,0 -1,-1 -1,-1 -1,-1 -2,-2 -2,-3 0,0 0,-1 1,-1 0,-2 2,-2 4,-1 1,0 1,1 1,2 0,1 0,1 0,2 -1,1 -2,2 -3,2l0 0zm-14 -9l0 0c-1,0 -1,0 -2,-1 -1,0 -1,-1 -1,-2 0,-1 0,-1 0,-2 1,-1 3,-2 4,-1 1,0 2,2 2,3 0,0 0,1 0,1 -1,1 -2,2 -3,2l0 0zm-15 -9l0 0c0,0 -1,0 -1,0 -1,-1 -2,-2 -2,-3 0,0 0,-1 0,-1 1,-2 3,-3 5,-2 1,1 1,2 1,3 0,1 0,1 0,2 -1,1 -2,1 -3,1l0 0zm-14 -8l0 0c-1,0 -2,0 -2,0 -1,-1 -2,-2 -2,-3 0,-1 1,-1 1,-2 1,-1 3,-2 4,-1 1,1 2,2 2,3 0,0 0,1 -1,1 0,1 -1,2 -2,2l0 0zm-15 -8l0 0c-1,0 -1,0 -2,0 -1,-1 -1,-2 -1,-3 0,-1 0,-1 0,-2 1,-1 3,-2 4,-1l0 0c1,1 2,2 2,3 0,0 0,1 0,1 -1,1 -2,2 -3,2l0 0zm-15 -8l0 0c-1,0 -1,0 -2,0 -1,-1 -1,-2 -1,-3 0,-1 0,-1 0,-1 1,-2 3,-3 4,-2 1,1 2,2 2,3 0,1 0,1 0,1 -1,2 -2,2 -3,2l0 0zm-15 -7l0 0c-1,0 -1,-1 -2,-1 -1,0 -2,-1 -2,-3 0,0 1,0 1,-1 1,-1 3,-2 4,-1 1,0 2,1 2,2 0,1 0,1 -1,2 0,1 -1,2 -2,2l0 0zm-16 -8l0 0c0,0 0,0 -1,0 -1,0 -2,-2 -2,-3 0,0 0,-1 1,-1 0,-2 2,-2 4,-2 1,1 2,2 2,3 0,1 0,1 -1,2 0,1 -1,1 -3,1l0 0zm-15 -7l0 0c0,0 -1,0 -1,0 -1,0 -2,-2 -2,-3 0,0 0,-1 0,-1 1,-2 3,-2 4,-2 2,1 2,2 2,3 0,1 0,1 0,1 -1,2 -2,2 -3,2l0 0zm-15 -6l0 0c-1,0 -1,0 -2,-1l0 0c-1,0 -2,-1 -2,-3 0,0 1,0 1,-1 0,-1 2,-2 4,-2 1,1 2,2 2,3 0,1 0,1 0,2 -1,1 -2,2 -3,2l0 0zm-16 -7l0 0c0,0 -1,0 -1,0 -1,-1 -2,-2 -2,-3 0,0 0,-1 0,-1 1,-2 3,-3 4,-2 2,0 2,2 2,3 0,0 0,1 0,1 0,1 -2,2 -3,2l0 0zm-16 -6l0 0c0,0 0,0 -1,0 -1,-1 -2,-2 -2,-3 0,-1 0,-1 0,-1 1,-2 3,-3 5,-2 1,0 2,2 2,3 0,0 -1,0 -1,1 0,1 -1,2 -3,2l0 0zm-15 -6l0 0c-1,0 -1,0 -1,0 -2,-1 -3,-2 -3,-3 0,-1 1,-1 1,-1 0,-2 2,-3 4,-2l0 0c1,0 2,1 2,3 0,0 0,0 0,1 -1,1 -2,2 -3,2l0 0zm-16 -6l0 0c-1,0 -1,0 -1,0 -2,0 -2,-2 -2,-3 0,0 0,-1 0,-1 0,-2 2,-3 4,-2 1,1 2,2 2,3 0,0 0,1 0,1 -1,1 -2,2 -3,2z"></path> </g> <g> <rect class="fil0" width="10502" height="2940"></rect> </g> <g> <path class="fil1" d="M9704 857c-2,0 -3,-1 -4,-2 -1,-2 -1,-4 1,-6 1,-1 2,-1 3,-1 1,0 2,1 3,1 1,1 1,2 1,4 0,1 0,2 -1,3 -1,0 -2,1 -3,1l0 0zm0 -7c-1,0 -1,1 -1,1 -1,1 -1,2 -1,3 1,0 2,0 3,0 0,-1 1,-1 1,-2 0,0 -1,0 -1,-1 0,0 -1,0 -1,-1 0,0 0,0 0,0l0 0zm-11 -6c-1,0 -3,-1 -4,-1 0,-2 -1,-3 -1,-4 0,-1 1,-2 2,-3 2,-1 4,-1 6,0 1,1 1,3 1,4 0,1 0,2 -1,3 -1,1 -2,1 -3,1l0 0zm0 -6c-1,0 -1,0 -1,0 -1,0 -1,1 -1,1 0,1 0,1 0,2 1,0 1,0 2,0 0,0 0,0 1,0 1,-1 1,-1 1,-1 0,-1 -1,-1 -1,-2 0,0 -1,0 -1,0l0 0zm-11 -7c-2,0 -3,0 -4,-1 0,-1 -1,-2 -1,-3 0,-1 1,-3 2,-3 1,-2 4,-2 6,0 1,1 1,2 1,3 0,1 0,2 -1,3 -1,1 -2,1 -3,1l0 0zm0 -6c-1,0 -1,0 -2,0 0,1 0,1 0,2 0,0 0,1 0,1 1,1 2,1 3,0 0,0 0,-1 0,-1 0,-1 0,-1 0,-1 0,-1 -1,-1 -1,-1l0 0zm-12 -6c-1,0 -2,-1 -3,-2 -1,0 -1,-1 -1,-3 0,-1 0,-2 1,-3 2,-2 5,-1 6,0 1,1 2,2 2,3 0,2 -1,3 -2,4 -1,0 -2,1 -3,1l0 0zm0 -6c0,0 -1,0 -1,0 0,0 -1,1 -1,1 0,1 0,1 1,2 1,0 2,0 3,0 0,-1 0,-1 0,-2 0,0 0,-1 0,-1 -1,0 -1,0 -2,0l0 0zm-11 -6c-2,0 -3,-1 -4,-2l0 0c-1,-1 -1,-2 -1,-3 0,-1 1,-2 2,-3 1,-2 4,-2 6,0 1,1 1,2 1,3 0,1 0,2 -1,3 -1,1 -2,2 -3,2l0 0zm-1 -3c0,0 1,0 2,-1 0,0 0,0 0,-1 0,0 0,-1 0,-1 -1,-1 -2,-1 -3,0 0,0 0,1 0,1 0,0 0,1 0,1l1 1zm-11 -9c-1,0 -2,-1 -3,-2 -1,-1 -2,-2 -2,-3 0,-1 1,-2 2,-3 0,-1 2,-1 3,-1 1,0 2,0 3,1 1,1 1,2 1,3 0,1 0,3 -1,3 -1,1 -2,2 -3,2l0 0zm0 -7c-1,0 -1,0 -2,1 0,0 0,1 0,1 0,1 0,1 0,1 1,1 2,1 3,0 1,0 1,-1 1,-1 0,0 -1,-1 -1,-1 0,-1 -1,-1 -1,-1l0 0zm-12 -5c-1,0 -3,-1 -3,-2 -1,0 -2,-2 -2,-3 0,-1 1,-2 2,-3 1,-2 4,-2 6,0 1,1 1,2 1,3 0,1 0,3 -1,3 -1,1 -2,2 -3,2l0 0zm0 -7c-1,0 -1,1 -1,1 -1,0 -1,1 -1,1 0,1 0,1 1,1 0,1 0,1 1,1 0,0 1,0 1,-1 1,0 1,-1 1,-1 0,0 -1,-1 -1,-1 0,0 -1,-1 -1,-1l0 0zm-12 -5c-2,0 -3,0 -3,-1 -1,-1 -2,-2 -2,-4 0,-1 1,-2 1,-3 1,0 2,-1 3,-1 2,0 3,0 4,1 1,1 1,2 1,4 0,1 0,2 -1,3 -1,0 -2,1 -3,1l0 0zm0 -6c0,0 0,0 0,0 -1,0 -1,0 -2,0 0,1 0,1 0,1 0,1 0,2 0,2 1,0 2,1 3,0 0,-1 0,-1 0,-1 0,-1 0,-1 0,-2 0,0 -1,0 -1,0l0 0zm-13 -5c-1,0 -2,-1 -3,-2 -1,-1 -1,-2 -1,-3 0,-1 0,-2 1,-3 2,-2 4,-2 6,0 1,1 2,2 2,3 0,1 -1,2 -2,3 0,1 -1,2 -3,2l0 0zm0 -7c0,0 -1,0 -1,1 -1,0 -1,1 -1,1 0,1 1,1 1,2 0,0 2,0 3,-1 0,0 0,0 0,-1 0,0 0,-1 0,-1 -1,-1 -1,-1 -2,-1l0 0zm-12 -5c-1,0 -2,0 -3,-1 -1,-1 -2,-2 -2,-3 0,-1 1,-2 1,-3 2,-2 5,-2 7,-1 1,1 1,3 1,4 0,1 0,2 -1,3 -1,1 -2,1 -3,1l0 0zm0 -6c-1,0 -1,0 -2,1 0,0 0,0 0,1 0,0 0,1 0,1 1,1 2,1 3,0 0,0 0,-1 0,-1 0,-1 0,-1 0,-2 -1,0 -1,0 -1,0l0 0zm-13 -5c-1,0 -2,0 -3,-1 -1,-1 -2,-2 -2,-3 0,-1 1,-2 1,-3 2,-2 5,-2 7,-1 1,1 1,3 1,4 0,1 0,2 -1,3 -1,1 -2,1 -3,1l0 0zm0 -6c-1,0 -1,0 -2,1 0,0 0,0 0,1 0,0 0,1 1,1 1,1 2,1 2,0 1,0 1,-1 1,-1 0,-1 0,-1 -1,-2 0,0 -1,0 -1,0l0 0zm-13 -5c-1,0 -2,0 -3,-1 -1,0 -2,-2 -2,-3 0,-1 1,-2 2,-3 0,-1 1,-1 3,-2 1,0 2,1 3,1 1,1 1,3 1,4 0,1 0,2 -1,3 -1,1 -2,1 -3,1l0 0zm0 -6c0,0 0,0 0,0 -1,0 -1,0 -1,1 -1,0 -1,1 -1,1 0,0 0,1 1,1 1,1 2,1 2,0 1,0 1,-1 1,-1 0,-1 -1,-1 -1,-2 0,0 -1,0 -1,0l0 0zm-13 -4c-1,0 -2,-1 -3,-1 -1,-1 -2,-2 -2,-4 0,0 1,-2 1,-3 2,-1 5,-2 7,0 1,1 1,2 1,3 0,1 0,2 -1,3 -1,1 -2,2 -3,2l0 0zm0 -7c-1,0 -1,1 -2,1 0,1 0,1 0,1 0,1 0,1 1,2 1,0 2,0 2,-1 1,0 1,0 1,-1 0,0 -1,-1 -1,-1 0,0 -1,-1 -1,-1l0 0zm-13 -4c-1,0 -2,0 -3,-1 -1,0 -2,-2 -2,-3 0,-1 0,-2 1,-3 1,-1 2,-1 3,-2 1,0 2,1 3,1l0 0 0 0c1,1 2,3 2,4 0,1 0,2 -1,3 -1,1 -2,1 -3,1l0 0zm-1 -6c0,0 0,0 0,0 0,0 -1,0 -1,1 0,0 0,1 0,1 0,0 0,1 0,1 1,1 2,1 3,0 0,0 0,-1 0,-1 0,-1 0,-1 0,-1l0 -1c-1,0 -1,0 -2,0l0 0zm-13 -4c-1,0 -2,0 -3,-1 -1,0 -1,-2 -1,-3 0,-1 0,-2 0,-3 1,-1 2,-1 3,-2 1,0 3,0 4,1 1,1 2,2 2,4 0,1 -1,2 -1,2 -1,2 -3,2 -4,2l0 0zm0 -6c0,0 0,0 0,0 -1,0 -1,0 -1,1 -1,0 -1,0 -1,1 0,0 0,1 1,1 1,1 2,1 2,0 1,0 1,-1 1,-1 0,-1 0,-1 -1,-2 0,0 -1,0 -1,0l0 0zm-14 -4c-1,0 -2,0 -2,-1 -1,0 -2,-2 -2,-3 0,-1 0,-2 1,-3 1,-2 4,-2 6,-1 1,1 2,2 2,4 0,1 0,2 -1,2 -1,2 -2,2 -4,2l0 0zm0 -6c0,0 -1,0 -1,1 0,0 0,0 0,1 0,0 0,1 0,1 1,1 2,1 3,0 0,-1 0,-1 0,-1 0,-1 0,-1 -1,-2 0,0 0,0 -1,0l0 0zm-13 -3c-1,0 -2,0 -3,-1 -1,-1 -2,-2 -2,-4 0,-1 0,-2 1,-2 1,-2 4,-3 6,-2 1,1 2,3 2,4 0,1 0,2 -1,3 0,1 -2,2 -3,2l0 0zm0 -7c-1,0 -2,1 -2,1 0,0 0,1 0,1 0,1 0,1 1,2 0,0 2,0 2,-1 0,0 0,-1 0,-1 0,0 0,-1 0,-1 -1,-1 -1,-1 -1,-1l0 0zm-14 -3c-1,0 -2,0 -3,-1 -1,0 -2,-2 -2,-3 0,-1 0,-2 1,-3 1,-1 2,-2 3,-2 1,0 2,0 3,1 1,1 2,2 2,4 0,0 0,1 -1,2 0,1 -2,2 -3,2l0 0zm0 -6c-1,0 -1,0 -1,0 0,0 -1,0 -1,1 0,0 0,0 0,1 0,0 0,1 1,1 0,0 0,0 1,0 0,0 1,0 1,0 0,-1 0,-1 0,-1 0,-1 0,-2 0,-2 -1,0 -1,0 -1,0l0 0zm-15 -3c0,0 -1,0 -2,-1 -1,-1 -2,-2 -2,-4 0,0 0,-1 1,-2 1,-2 4,-3 6,-1 1,0 2,2 2,3 0,1 0,2 -1,3 -1,1 -2,2 -4,2l0 0zm1 -6c-1,0 -2,0 -2,0 0,1 0,1 0,1 0,1 0,2 1,2 0,1 2,0 2,-1 0,0 0,0 0,-1 0,0 0,-1 0,-1 -1,0 -1,0 -1,0l0 0zm-15 -3c0,0 -1,0 -2,-1 -1,-1 -2,-2 -2,-4 0,-1 0,-1 0,-2 1,-1 2,-2 3,-2 1,0 3,0 4,1 1,0 2,2 2,3 0,1 0,2 -1,3 -1,1 -2,2 -4,2l0 0zm0 -6c0,0 0,0 0,0 -1,0 -1,0 -1,0 0,1 -1,1 -1,1 0,1 1,2 1,2 1,0 2,1 3,-1 0,0 0,0 0,-1 0,0 0,-1 -1,-1 0,0 0,0 -1,0l0 0zm-14 -3c-1,0 -2,0 -3,-1 -1,0 -2,-2 -2,-3 0,-1 1,-2 1,-3 1,-1 2,-1 3,-2 1,0 2,0 3,1 1,0 2,2 2,4 0,1 0,1 0,2 -1,1 -3,2 -4,2l0 0zm0 -6c0,0 0,0 -1,0 0,0 -1,0 -1,1 0,0 0,0 0,1 0,0 0,1 1,1 1,1 2,0 2,0 1,-1 1,-1 1,-1 0,-1 -1,-2 -1,-2 0,0 -1,0 -1,0l0 0zm-15 -2c-1,0 -1,-1 -2,-1 -1,-1 -2,-2 -2,-4 0,-1 0,-1 0,-2 2,-2 4,-3 7,-2 1,1 2,3 2,4 0,1 0,2 -1,2 -1,2 -2,3 -4,3l0 0zm0 -7c0,0 -1,1 -1,1 0,0 -1,1 -1,1 0,1 1,1 1,2 1,0 2,0 3,-1 0,0 0,-1 0,-1 0,-1 0,-1 -1,-2 0,0 0,0 -1,0l0 0zm-14 -2c-1,0 -2,0 -3,0 -1,-1 -2,-3 -2,-4 0,-1 0,-2 1,-2 0,-1 1,-2 2,-2 1,-1 3,-1 4,0 1,1 2,2 2,4 0,1 0,1 0,2 -1,1 -3,2 -4,2l0 0zm0 -6c-1,0 -1,0 -1,0 0,0 -1,0 -1,1 0,0 0,1 0,1 0,0 0,1 1,1 0,1 2,1 2,0 0,-1 0,-1 0,-1 0,-1 0,-1 -1,-2 0,0 0,0 0,0l0 0zm-15 -2c-1,0 -2,0 -2,0 -2,-1 -3,-2 -3,-4 0,-1 0,-2 1,-2 1,-2 4,-3 6,-2l1 0 0 0c1,1 1,2 1,4 0,0 0,1 0,2 -1,1 -3,2 -4,2l0 0zm0 -6c-1,0 -2,0 -2,1 0,0 0,1 0,1 0,0 0,1 1,1 1,1 2,1 2,0 1,-1 1,-1 1,-1 0,-1 -1,-2 -1,-2l-1 0c0,0 0,0 0,0l0 0zm-15 -2c-1,0 -2,0 -2,0 -2,-1 -3,-2 -3,-4 0,-1 0,-1 1,-2l0 0c1,-2 4,-3 6,-2 1,1 2,2 2,4 0,1 0,1 0,2 -1,1 -3,2 -4,2l0 0zm0 -6c-1,0 -2,1 -2,1 0,1 0,1 0,1 0,1 0,1 1,2 1,0 2,0 2,-1 1,0 1,-1 1,-1 0,-1 -1,-1 -1,-2 -1,0 -1,0 -1,0l0 0zm-15 -1c-1,0 -2,0 -2,0l0 -1c-2,0 -3,-2 -3,-4 0,0 0,-1 1,-1 0,-2 1,-2 2,-3 1,0 3,0 4,1 1,0 2,2 2,3 0,1 0,2 0,2 -1,2 -3,3 -4,3l0 0zm0 -6c-1,0 -1,0 -1,0 0,0 -1,0 -1,1 0,0 0,0 0,0 0,1 0,2 1,2 0,0 0,0 1,0 0,0 1,0 1,-1 0,0 0,0 0,-1 0,0 0,-1 0,-1 -1,0 -1,0 -1,0l0 0zm-16 -1c0,0 -1,-1 -1,-1 -2,0 -3,-2 -3,-4 0,0 0,-1 0,-2 1,-1 2,-2 3,-2 1,0 2,0 3,0 2,1 3,2 3,4 0,1 0,2 -1,2 0,2 -2,3 -4,3l0 0zm0 -7c0,0 0,0 0,0 -1,1 -1,1 -1,1 0,1 0,1 0,1 0,1 0,2 1,2 1,0 2,0 2,-1 0,0 0,-1 0,-1 0,0 0,-1 -1,-1 0,-1 0,-1 -1,-1l0 0zm-15 0c0,0 -1,0 -2,-1 -1,0 -2,-2 -2,-4 0,-1 0,-1 0,-2 1,-2 4,-3 6,-2 2,1 3,2 3,4 0,1 -1,1 -1,2 0,2 -2,3 -4,3l0 0zm0 -7c-1,0 -1,1 -2,1 0,1 0,1 0,1 0,1 1,2 1,2 1,0 2,0 3,-1 0,0 0,-1 0,-1 0,-1 0,-1 -1,-1 0,-1 -1,-1 -1,-1l0 0zm-15 0c-1,0 -1,0 -2,0l-1 -1 0 0c-1,-1 -2,-2 -2,-4 0,0 0,-1 0,-1 1,-3 4,-4 6,-3 2,1 3,3 3,4 0,1 0,2 0,2 -1,2 -3,3 -4,3l0 0zm-1 -3c1,0 2,0 2,-1 0,0 0,0 0,-1 0,0 0,-1 -1,-1 -1,-1 -2,0 -2,1 0,0 0,0 0,0 0,1 0,2 1,2l0 0zm-15 -4c0,0 -1,0 -2,0 -1,-1 -2,-2 -2,-4 0,0 0,-1 0,-2 0,-1 1,-2 2,-2 1,-1 3,-1 4,0 1,0 2,2 3,4 0,0 -1,1 -1,2 0,1 -2,2 -4,2l0 0zm0 -6c0,0 0,0 -1,0 0,0 0,1 -1,1 0,0 0,1 0,1 0,1 1,1 1,2 1,0 1,0 1,0 1,0 2,-1 2,-1 0,-1 0,-1 0,-1 0,0 0,-1 -1,-2 0,0 -1,0 -1,0l0 0zm-16 0c0,0 -1,0 -1,0 -2,-1 -3,-2 -3,-4 0,-1 0,-1 0,-2 1,-2 4,-3 6,-2 2,0 3,2 3,4 0,0 0,1 0,1 -1,2 -3,3 -5,3l0 0zm0 -6c0,0 -1,0 -1,1 0,0 0,0 0,1 0,0 0,1 1,1 0,1 0,1 0,1 1,0 2,-1 2,-2 0,0 0,0 0,0 0,-1 0,-2 -1,-2 0,0 0,0 -1,0l0 0zm-15 0c-1,0 -1,0 -2,0 -2,-1 -3,-2 -3,-4 0,-1 0,-1 0,-2 1,0 1,-1 2,-1l-4 -2 5 0c1,0 2,0 3,1l8 2 -5 0c0,1 0,1 0,2 0,0 0,1 0,1 -1,2 -2,3 -4,3l0 0zm0 -6c-1,0 -2,0 -2,1 0,0 0,1 0,1 0,1 0,1 1,2 0,0 0,0 1,0 0,0 1,-1 1,-2 0,0 0,0 0,0 0,-1 0,-2 -1,-2l0 0c0,0 0,0 0,0l0 0zm-16 0c-1,0 -1,0 -2,0 -2,0 -3,-2 -3,-4 0,0 0,-1 1,-2 0,-1 1,-1 2,-2 1,0 2,-1 3,0 2,0 3,2 3,4 0,1 0,1 0,1 -1,2 -2,3 -4,3l0 0zm0 -6c-1,0 -1,0 -1,0 0,1 -1,1 -1,1 0,1 0,1 0,1 0,1 0,2 1,2 0,0 1,0 1,0 1,0 1,-1 2,-1 0,-1 0,-1 0,-1 0,-1 -1,-1 -2,-2 0,0 0,0 0,0z"></path> </g> <g> <rect class="fil0" width="10502" height="2940"></rect> </g> <polygon class="fil2" points="8546,1957 8546,2034 8503,2034 8503,1956 8432,1816 8477,1816 8526,1913 8575,1816 8617,1816 "></polygon> <g> <rect class="fil0" width="10502" height="2940"></rect> </g> <polygon class="fil2" points="8791,1994 8791,2034 8648,2034 8648,1816 8787,1816 8787,1856 8691,1856 8691,1904 8776,1904 8776,1943 8691,1943 8691,1994 "></polygon> <g> <rect class="fil0" width="10502" height="2940"></rect> </g> <path class="fil2" d="M8961 1987l-86 0 -16 47 -44 0 82 -218 42 0 82 218 -44 0 -16 -47zm-14 -38l-29 -84 -29 84 58 0z"></path> <g> <rect class="fil0" width="10502" height="2940"></rect> </g> <path class="fil2" d="M9173 2034l-36 -61 -2 0 -37 0 0 61 -42 0 0 -218 79 0c17,0 31,3 43,9 12,7 21,16 27,28 7,12 10,26 10,42 0,16 -3,30 -10,42 -6,12 -16,21 -28,27l42 70 -46 0zm-11 -167c-7,-7 -16,-10 -29,-10l-35 0 0 76 35 0c13,0 22,-3 29,-10 7,-7 10,-16 10,-28 0,-12 -3,-22 -10,-28z"></path> <g> <rect class="fil0" width="10502" height="2940"></rect> </g> <path class="fil2" d="M9282 2031c-13,-5 -24,-11 -33,-18l15 -38c8,7 17,12 28,16 11,4 22,6 33,6 12,0 20,-2 26,-6 6,-4 9,-10 9,-17 0,-5 -2,-10 -5,-13 -4,-3 -8,-6 -13,-8 -6,-2 -13,-5 -22,-7 -14,-4 -25,-8 -34,-12 -9,-4 -17,-10 -23,-19 -7,-9 -10,-20 -10,-35 0,-13 3,-24 9,-34 6,-11 14,-19 26,-25 12,-6 26,-9 43,-9 11,0 23,2 34,5 11,3 21,8 29,14l-13 39c-17,-12 -34,-17 -51,-17 -12,0 -20,2 -26,6 -6,5 -9,11 -9,19 0,7 4,13 10,16 7,4 17,7 30,11 14,4 26,8 35,12 9,4 16,10 23,19 6,8 9,20 9,34 0,13 -3,24 -9,34 -5,11 -14,19 -26,25 -12,6 -26,9 -43,9 -14,0 -28,-2 -42,-7z"></path> <g> <rect class="fil0" width="10502" height="2940"></rect> </g> <polygon class="fil2" points="8560,2136 8503,2231 8482,2218 8528,2140 8509,2129 8519,2111 "></polygon> <g> <rect class="fil0" width="10502" height="2940"></rect> </g> <g> <path class="fil2" d="M8636 2186c4,13 2,27 -5,43 -6,11 -12,20 -20,26 -8,6 -17,10 -27,10 -10,1 -20,-1 -30,-6 -5,-2 -10,-5 -14,-9 -5,-3 -8,-7 -10,-10l16 -14c3,6 9,11 17,14 8,4 16,5 23,2 8,-3 14,-9 18,-18 -8,3 -18,2 -29,-3 -6,-3 -11,-7 -15,-12 -5,-5 -7,-10 -8,-16 -1,-6 0,-13 3,-19 3,-7 8,-12 13,-15 6,-4 12,-5 19,-6 7,0 15,2 22,5 14,7 23,16 27,28l0 0zm-33 22c4,-1 8,-4 10,-9 2,-4 2,-8 0,-13 -2,-4 -6,-7 -11,-10 -5,-2 -10,-2 -14,-1 -4,1 -8,4 -10,8 -2,5 -2,9 0,14 2,4 5,7 10,9 5,3 10,3 15,2z"></path> </g> <g> <rect class="fil0" width="10502" height="2940"></rect> </g> <g> <path class="fil2" d="M8727 2217c6,12 6,26 0,43 -3,12 -9,22 -16,29 -7,7 -15,12 -25,13 -9,2 -20,2 -30,-2 -6,-2 -11,-4 -16,-7 -5,-3 -8,-6 -11,-9l14 -15c4,5 10,9 19,11 9,3 16,3 23,-1 7,-4 12,-11 16,-20 -8,4 -18,4 -29,1 -7,-2 -13,-5 -17,-10 -5,-4 -8,-10 -10,-16 -2,-6 -1,-12 1,-18 2,-7 6,-13 11,-17 5,-5 11,-7 18,-8 7,-1 14,0 22,2 14,5 25,13 30,24l0 0zm-30 26c5,-2 7,-5 9,-10 1,-4 1,-9 -1,-13 -3,-4 -7,-6 -13,-8 -5,-2 -10,-2 -14,0 -4,2 -7,5 -8,10 -2,5 -1,9 1,13 2,4 6,7 12,8 5,2 10,2 14,0z"></path> </g> <g> <rect class="fil0" width="10502" height="2940"></rect> </g> <g> <path class="fil2" d="M8826 2289c2,5 3,10 2,16 -2,6 -5,12 -9,16 -5,5 -11,8 -19,9 -7,2 -15,2 -24,0 -10,-1 -17,-4 -24,-8 -6,-4 -11,-9 -14,-15 -3,-5 -4,-12 -2,-18 1,-6 3,-11 7,-15 3,-4 8,-6 14,-8 -4,-3 -7,-7 -8,-11 -2,-4 -2,-9 -1,-14 1,-6 4,-11 8,-15 4,-5 10,-7 17,-9 7,-1 14,-1 22,0 9,2 16,4 22,8 6,4 10,8 13,13 2,6 3,11 2,18 -1,5 -3,9 -5,12 -3,4 -7,6 -12,8 5,4 9,8 11,13l0 0zm-31 21c4,-2 6,-6 7,-11 1,-4 0,-8 -3,-12 -4,-3 -8,-6 -15,-7 -6,-1 -11,0 -15,2 -4,2 -7,6 -8,10 -1,5 1,9 4,13 3,3 8,5 14,7 6,1 11,0 16,-2l0 0zm-16 -73c-3,2 -5,5 -6,10 -1,4 0,7 3,10 2,3 6,5 11,6 6,1 10,0 13,-1 4,-2 6,-5 7,-9 1,-5 0,-8 -3,-11 -3,-3 -7,-5 -12,-6 -5,-1 -9,-1 -13,1z"></path> </g> <g> <rect class="fil0" width="10502" height="2940"></rect> </g> <rect class="fil2" transform="matrix(-0.84387 -0.00497883 0.00497883 -0.84387 8937.9 2295.04)" width="53.0633" height="23.4371"></rect> <g> <rect class="fil0" width="10502" height="2940"></rect> </g> <path class="fil2" d="M9087 2304l4 20 -83 13 -3 -16 36 -47c4,-5 7,-9 8,-12 1,-3 1,-7 1,-10 -1,-4 -3,-7 -6,-9 -4,-2 -8,-2 -14,-1 -5,0 -9,2 -13,4 -3,3 -6,6 -8,10l-20 -9c3,-7 8,-13 15,-18 7,-4 15,-8 25,-9 8,-1 15,-1 22,1 6,1 12,4 16,9 4,4 7,9 8,16 1,6 0,12 -2,17 -1,6 -5,13 -11,20l-22 28 47 -7z"></path> <g> <rect class="fil0" width="10502" height="2940"></rect> </g> <g> <path class="fil2" d="M9130 2309c-8,-2 -16,-7 -22,-14 -6,-7 -11,-16 -14,-28 -4,-11 -5,-22 -3,-31 1,-9 5,-17 10,-24 6,-6 13,-10 22,-13 9,-3 17,-3 25,0 9,2 16,7 22,14 6,7 11,16 15,28 3,11 4,22 2,31 -1,9 -5,17 -10,24 -6,6 -13,10 -22,13 -9,3 -17,3 -25,0l0 0zm32 -34c2,-6 1,-15 -2,-27 -4,-12 -8,-20 -13,-24 -6,-5 -11,-6 -18,-4 -6,2 -11,6 -13,13 -2,6 -1,15 2,27 4,12 8,20 14,24 5,5 11,6 17,4 7,-2 11,-6 13,-13z"></path> </g> <g> <rect class="fil0" width="10502" height="2940"></rect> </g> <path class="fil2" d="M9286 2234l9 19 -77 34 -7 -15 23 -54c3,-6 4,-11 4,-14 0,-4 0,-7 -1,-10 -2,-4 -5,-6 -9,-7 -3,-1 -8,-1 -13,2 -5,2 -8,4 -11,8 -3,3 -5,7 -6,11l-22 -3c2,-8 5,-15 11,-21 5,-7 12,-12 21,-16 8,-3 15,-5 22,-5 7,0 12,2 18,5 5,3 9,8 11,14 3,5 4,11 4,17 -1,6 -3,13 -7,22l-13 32 43 -19z"></path> <rect class="fil0" width="10502" height="2940"></rect> <path class="fil2" d="M9347 2160c7,2 13,7 17,14 4,6 5,12 5,18 0,6 -2,13 -7,19 -4,6 -10,12 -19,17 -7,4 -14,7 -21,9 -8,2 -15,3 -21,2l-2 -22c5,1 11,1 17,-1 5,-1 11,-3 16,-6 5,-3 9,-7 11,-11 2,-4 1,-8 -1,-12 -4,-8 -13,-8 -25,-1l-10 6 -8 -15 6 -33 -40 24 -11 -18 67 -40 8 15 -7 37c9,-4 18,-4 25,-2z"></path> </g> </g> </svg>