<svg xmlns="http://www.w3.org/2000/svg" xmlns:xlink="http://www.w3.org/1999/xlink" xml:space="preserve" width="8.26772in" height="11.6929in" style="shape-rendering:geometricPrecision; text-rendering:geometricPrecision; image-rendering:optimizeQuality; fill-rule:evenodd; clip-rule:evenodd" viewBox="0 0 8268 11693"> <defs>   <style type="text/css"> @font-face { font-family:"Arial";src:url("#FontID1") format(svg)} @font-face { font-family:"Arial Black";src:url("#FontID0") format(svg)} .str0 {stroke:black;stroke-width:7;stroke-dasharray:14.000000 21.000000} .fil4 {fill:none} .fil2 {fill:black} .fil8 {fill:#141414} .fil6 {fill:#540000} .fil7 {fill:#700101} .fil5 {fill:#ED1C24} .fil9 {fill:#F2F2F3} .fil0 {fill:white} .fil3 {fill:black;fill-rule:nonzero} .fil1 {fill:url(#id0)} .fnt1 {font-weight:normal;font-size:309.449px;font-family:'Arial'} .fnt0 {font-weight:900;font-size:833.409px;font-family:'Arial Black'} </style> <radialGradient id="id0" gradientUnits="userSpaceOnUse" gradientTransform="matrix(1 -0 -0 1 0 0)" cx="4138.05" cy="5841.2" r="489.583" fx="4138.05" fy="5841.2"> <stop offset="0" style="stop-opacity:1; stop-color:#636262"></stop> <stop offset="0.458824" style="stop-opacity:1; stop-color:#AFADAD"></stop> <stop offset="1" style="stop-opacity:1; stop-color:#FAF7F7"></stop> </radialGradient> </defs> <g id="Layer_x0020_1"> <metadata id="CorelCorpID_0Corel-Layer"></metadata> <g id="_1588659750480"> <circle class="fil0" cx="4134" cy="5846" r="3062"></circle> <g> <g> <circle class="fil1" cx="4138" cy="5841" r="1959"></circle> <text x="2114" y="5237" class="fil2 fnt0"><tspan rotate="294">T</tspan></text> <text x="2367" y="4688" class="fil2 fnt0"><tspan rotate="311">R</tspan></text> <text x="2811" y="4216" class="fil2 fnt0"><tspan rotate="324">I</tspan></text> <text x="3069" y="4011" class="fil2 fnt0"><tspan rotate="339">P</tspan></text> <text x="3633" y="3794" class="fil2 fnt0"><tspan rotate="353">L</tspan></text> <text x="4190" y="3723" class="fil2 fnt0"><tspan rotate="10">A</tspan></text> <text x="4830" y="3844" class="fil2 fnt0"><tspan rotate="27">N</tspan></text> <text x="5438" y="4171" class="fil2 fnt0"><tspan rotate="46">A</tspan></text> <text x="5894" y="4642" class="fil2 fnt0"><tspan rotate="66">R</tspan></text> <path class="fil3" d="M1889 6021l34 177 -251 119 277 16 34 177 -434 83 -22 -109 332 -64 -348 -21 -19 -100 315 -148 -331 64 -22 -110 435 -84zm-73 664c66,-29 125,-34 179,-14 53,20 94,63 124,128 30,67 36,127 16,180 -19,53 -62,93 -126,123 -48,21 -90,31 -127,29 -37,-3 -71,-15 -102,-37 -30,-23 -55,-56 -75,-101 -21,-46 -31,-87 -30,-123 1,-36 13,-71 36,-104 23,-32 58,-59 105,-81zm56 125c-40,18 -66,39 -77,62 -11,24 -11,48 1,74 12,27 30,44 54,51 25,7 59,0 104,-21 38,-17 62,-37 73,-60 10,-23 10,-48 -2,-74 -11,-26 -30,-42 -54,-49 -25,-7 -58,-2 -99,17zm362 238l258 326 -86 68 -87 -110 -261 207 -85 -107 262 -207 -87 -110 86 -67zm336 402l103 90 -291 334 -103 -90 291 -334zm91 369c39,-60 87,-96 143,-107 56,-12 114,2 174,41 61,41 98,89 110,143 11,55 -3,113 -42,172 -28,43 -59,74 -91,92 -33,18 -68,26 -106,23 -38,-2 -77,-17 -118,-44 -42,-27 -72,-57 -91,-88 -18,-31 -26,-67 -25,-107 2,-40 17,-81 46,-125zm114 76c-25,37 -35,68 -32,94 3,25 17,46 41,62 24,16 49,20 72,13 25,-7 50,-31 77,-73 23,-34 33,-64 29,-90 -3,-25 -17,-46 -41,-61 -23,-16 -47,-20 -72,-12 -25,7 -49,29 -74,67zm473 14l121 40 82 285 76 -233 123 41 -139 420 -122 -40 -81 -283 -76 231 -122 -40 138 -421zm1168 421l122 27c-6,34 -16,63 -32,87 -15,24 -35,42 -60,56 -25,13 -57,21 -97,24 -48,4 -87,0 -119,-11 -31,-12 -59,-35 -84,-68 -25,-33 -40,-78 -44,-132 -5,-73 10,-131 46,-173 36,-42 89,-66 160,-71 56,-5 100,3 134,23 33,20 60,53 79,99l-118 35c-6,-13 -11,-22 -16,-28 -8,-10 -18,-17 -30,-22 -11,-4 -24,-6 -37,-5 -31,2 -54,16 -69,42 -11,20 -15,49 -12,89 4,48 14,81 30,98 16,17 38,25 65,23 26,-2 45,-11 57,-27 13,-15 21,-37 25,-66zm232 -53c-25,-67 -26,-127 -2,-179 24,-51 70,-90 137,-114 69,-26 129,-27 180,-4 52,24 89,69 114,136 18,48 24,91 19,128 -5,37 -19,70 -44,99 -24,28 -60,51 -106,68 -47,17 -88,24 -124,21 -37,-4 -70,-19 -101,-44 -31,-25 -56,-62 -73,-111zm128 -46c15,41 34,69 57,81 22,13 47,14 74,4 27,-10 45,-27 54,-50 8,-24 4,-59 -13,-105 -14,-39 -33,-65 -55,-77 -23,-12 -47,-13 -75,-3 -25,9 -43,26 -52,50 -9,24 -6,57 10,100zm337 -360l110 -65 268 126 -125 -211 111 -65 226 380 -111 66 -266 -125 123 209 -110 66 -226 -381zm428 -267l299 -289 76 79 -100 97 231 240 -98 95 -232 -240 -100 97 -76 -79zm727 -114l-370 -243 125 -191c24,-35 44,-60 63,-75 18,-15 39,-22 63,-23 24,-1 48,7 71,22 21,14 36,30 45,48 9,19 13,39 13,61 -1,13 -5,30 -12,49 13,-10 24,-17 33,-21 6,-2 16,-3 31,-5 16,-1 27,-2 34,-1l143 15 -85 129 -153 -13c-19,-2 -33,-1 -42,2 -11,4 -20,12 -27,22l-6 11 150 98 -76 115zm-144 -259l32 -49c3,-5 8,-16 15,-33 3,-9 3,-18 0,-26 -3,-9 -9,-16 -17,-22 -12,-8 -23,-10 -35,-7 -11,4 -24,16 -37,37l-33 50 75 50zm237 -316c-67,-28 -111,-68 -133,-120 -22,-53 -19,-112 8,-179 28,-68 68,-113 119,-135 52,-22 111,-19 177,8 48,19 84,43 108,72 24,29 38,62 42,99 5,38 -2,79 -21,125 -19,46 -42,81 -69,105 -27,25 -60,40 -100,45 -39,6 -83,-1 -131,-20zm52 -127c42,17 74,22 99,14 24,-8 42,-26 53,-52 11,-27 11,-52 -1,-74 -12,-22 -40,-43 -86,-62 -39,-15 -70,-19 -94,-11 -24,8 -42,26 -53,53 -10,25 -10,49 2,72 12,23 39,43 80,60zm-74 -460l16 -136 331 38 25 -212 108 12 -40 348 -440 -50z"></path> <line class="fil4 str0" x1="2764" y1="4446" x2="5533" y2="7216"></line> <line class="fil4 str0" x1="4115" y1="4115" x2="4115" y2="7691"></line> <line class="fil4 str0" x1="6062" y1="5807" x2="2327" y2="5807"></line> <g> <g> <path class="fil2" d="M3187 6830c196,-45 215,-389 13,-443 -81,-22 -131,5 -200,17l18 -269 -83 -1c12,55 -13,236 -15,303 64,-10 122,-35 195,-16 120,30 157,157 140,270 -12,77 -37,93 -68,139z"></path> <path class="fil2" d="M3408 7074c-144,50 -457,38 -589,-21 -133,-59 -204,-141 -262,-256 -13,-30 -25,-95 -49,-112 -81,8 -92,2 -63,77 41,108 101,204 195,271 216,156 531,127 768,41z"></path> <path class="fil2" d="M2527 5747c-36,55 -57,99 -76,177 8,5 1,3 20,10l182 36 190 33 12 -28c10,-29 20,-14 -29,-26l-295 -52c33,-178 128,-235 190,-311 -67,15 -149,96 -194,161z"></path> <path class="fil2" d="M3019 5799l23 -5c49,11 120,45 137,95 31,90 -13,153 -48,200 257,-33 180,-452 -112,-290z"></path> <path class="fil5" d="M2721 5586c-77,57 -162,128 -190,311 104,18 304,69 403,68 160,-476 561,38 197,124 -40,12 -65,8 -109,4l-4 42 -18 269c69,-12 119,-39 200,-17 202,54 183,398 -13,443 -71,22 -139,-6 -177,-46 -41,-41 -61,-102 -76,-174l-429 53c0,47 32,85 52,134 58,115 129,197 262,256 132,59 445,71 589,21 209,-81 345,-217 361,-459 4,-73 -6,-157 -42,-221 -55,-99 -132,-147 -246,-176 19,-16 48,-35 65,-49 134,-108 186,-264 114,-433 -32,-75 -75,-92 -104,-141 -34,-18 -54,-36 -98,-54 -41,-17 -83,-29 -126,-36 -102,-18 -206,-18 -312,-13 -115,12 -221,48 -299,94z"></path> </g> <g> <path class="fil6" d="M3308 4736c-5,33 -8,41 3,70 32,13 231,121 240,134 83,26 242,129 326,171 6,-75 11,-111 19,-108 6,3 8,14 29,10 132,-23 325,-97 402,-219 22,-34 42,-74 51,-122 -29,42 -49,84 -85,114 -132,107 -256,159 -441,153l-11 88 -533 -291z"></path> <path class="fil7" d="M4109 4397c-77,-122 -25,-107 -182,-146 -33,0 -181,1 -221,2 -77,3 -138,11 -212,18 112,119 497,40 615,126z"></path> <path class="fil5" d="M4109 4397c86,65 121,264 -249,284l2 -88 -554 143 533 291 11 -88c185,6 309,-46 441,-153 36,-30 56,-72 85,-114 132,-450 -549,-453 -830,-406l249 53c73,10 274,39 312,78z"></path> </g> <g> <path class="fil5" d="M5384 6259c45,34 149,17 196,-5 160,-45 241,-360 239,-459 1,-121 13,-302 -29,-413 21,184 -6,507 -109,602 -36,73 -161,89 -219,22 -46,-53 -72,-168 -74,-259l85 3 -139 -558 -222 404c-19,35 -53,92 -69,130 26,16 56,15 87,16 -19,112 32,247 74,324 75,140 164,172 180,193z"></path> <path class="fil2" d="M5113 5476c-25,44 -42,81 -66,124 -96,172 -128,147 -4,186 2,54 21,110 51,182 17,41 37,82 58,115 52,83 135,155 232,176 -16,-21 -105,-53 -180,-193 -42,-77 -93,-212 -74,-324 -31,-1 -61,0 -87,-16 16,-38 50,-95 69,-130l222 -404c-21,5 -36,-1 -56,3 -43,8 -136,229 -165,281z"></path> <path class="fil2" d="M5715 5786c-17,125 -3,19 -34,204 103,-96 134,-429 109,-608 -78,50 -49,79 -54,188 -3,57 -9,168 -21,216z"></path> </g> <g> <path class="fil2" d="M4829 6454l-163 19c15,41 90,92 116,141 -142,165 -218,333 -159,548 27,-46 -33,-193 167,-421 33,-36 75,-63 104,-92 -18,-28 -28,-38 -36,-74 83,-4 525,-81 563,-75 18,3 15,4 21,7l12 -18c-29,-25 -45,-39 -69,-61 -34,-31 -41,-25 -97,-17l-459 43z"></path> <path class="fil2" d="M5023 7237c19,13 243,-18 256,-25 54,-26 180,-134 235,-178 18,-14 61,-57 67,-60 -82,-11 -99,15 -150,46 -105,75 -287,176 -408,217z"></path> <polygon class="fil8" points="5389,7296 5379,7313 5406,7313 5406,7296 "></polygon> <polygon class="fil9" points="5389,7296 5380,7288 "></polygon> <path class="fil5" d="M4637 7211c226,387 689,-18 904,-201 -64,-5 -281,136 -327,152 -38,14 -78,43 -191,75 -58,30 -147,-55 -147,-131 0,-98 92,-188 168,-241l52 67 346 -425c-20,-40 -493,64 -584,68 8,36 18,46 36,74 -29,29 -71,56 -104,92 -107,83 -212,381 -153,470z"></path> </g> </g> </g> <text x="6340" y="5711" class="fil2 fnt1">TM</text> </g> </g> </g> </svg>