<svg xmlns="http://www.w3.org/2000/svg" xmlns:xlink="http://www.w3.org/1999/xlink" xml:space="preserve" width="1.26337in" height="1.26337in" style="shape-rendering:geometricPrecision; text-rendering:geometricPrecision; image-rendering:optimizeQuality; fill-rule:evenodd; clip-rule:evenodd" viewBox="0 0 1108 1108"> <defs> <style type="text/css"> .str0 {stroke:#373435;stroke-width:2.63126} .fil0 {fill:#FEFEFE} .fil1 {fill:#2C2A2C} </style> </defs> <g id="Layer_x0020_1"> <metadata id="CorelCorpID_0Corel-Layer"></metadata> <g id="_2397179574864"> <circle class="fil0 str0" cx="554" cy="554" r="553"></circle> <path class="fil1" d="M800 401c-18,8 -37,14 -58,16 21,-12 37,-32 45,-56 -20,12 -41,20 -64,25 -19,-20 -45,-32 -74,-32 -56,0 -101,45 -101,101 0,8 1,16 2,23 -84,-4 -158,-44 -208,-106 -9,15 -14,33 -14,51 0,35 18,66 45,84 -16,0 -32,-5 -46,-12 0,0 0,1 0,1 0,49 35,90 81,99 -8,2 -17,4 -26,4 -7,0 -13,-1 -19,-2 13,40 50,69 94,70 -34,27 -78,43 -125,43 -8,0 -16,0 -24,-1 44,29 97,45 155,45 186,0 287,-154 287,-287 0,-5 0,-9 0,-13 20,-15 37,-32 50,-53z"></path> </g> </g> </svg>